/* XPM */
static char *result[] = {
/* columns rows colors chars-per-pixel */
"67 67 48 1 ",
"  c gray6",
". c #131313",
"X c gray10",
"o c gray11",
"O c gray12",
"+ c #191919",
"@ c #1D1D1D",
"# c #151515",
"$ c #111111",
"% c gray8",
"& c #161616",
"* c gray9",
"= c #222222",
"- c #1B1B1B",
"; c #101010",
": c #0B0B0B",
"> c #181818",
", c gray7",
"< c #0C0C0C",
"1 c gray5",
"2 c #0E0E0E",
"3 c gray4",
"4 c #282828",
"5 c #2D2D2D",
"6 c #2F2F2F",
"7 c #252525",
"8 c #090909",
"9 c gray19",
"0 c gray24",
"q c gray20",
"w c #232323",
"e c gray13",
"r c gray18",
"t c #1E1E1E",
"y c #202020",
"u c gray15",
"i c #2C2C2C",
"p c gray16",
"a c gray17",
"s c #2A2A2A",
"d c gray3",
"f c gray14",
"g c #272727",
"h c #070707",
"j c #060606",
"k c gray2",
"l c #323232",
"z c #353535",
/* pixels */
" .XoO+@@#$.%.&*o=-# #-;: $>,, <112;;133<2<<13:< 2#*456=##.$*&##1<-.",
"%%&@=-@-&*-*#XO=7=,,.>+$< +.; 1122.& 83:12:133:<22-90qw->#*+ %.117&",
"$#o7e>>&%*o*$Xeert#,X@%+;.-X 21<1 #X.88:<38:3::<$  -o-+>*..%;&&;2@X",
";>yy@+*>.$,$;%&&OuiOpo2&**O&<<<<<1%>;883333:<:3:<1121$##&%,,;.& :,X",
"&XoX+->-&;2;$&*.oaO+=O-.@-O.1<11<< $ 38833:3:<33<1<<:%*.&#;$;%&23;>",
".+#>*>*># 1$>-+%+stXy-O-O-@#1122<:1,$:8d88383:33<:<::#&#X&,#$.+;:2,",
"*X*-%#%##$2,X-.$#@-*+o#wwo@X2:11<32.;133888883::21<,;; ,&%$#&.+;821",
",*&X.#%**,;.*&,$;*.%&%.fy>##2:::<: ,2 <:83:38d:1.2:o&<1;,,;#+**$32$",
"2#.>.&&+&,;.#%#.$.2 .$ey-&%$1<<<12,.2$133::3:d3<&13#;31;%%.*X+-$:<&",
"2#%&%&&>>. $#*+>%,21$#goX-X :<<<2;%%1  3:<38:88<,:: <31$#%$*-*X*,:>",
";.**#+##*, ;,XO>,.$<2*g--tO#1::<12,$< $33:88:88<11: 2<2;$$,*-**+.:#",
",,%%.#$$$ 2;;%X#;##<1$g@Xte&1:::<1211;$38:83:883:1:2;2;;1 #>&,&+ 1.",
"#,;  11 2<<2  $%.#&  1yX#te.<1<::11<<2 :8<3:388<::3<;;$,2 ..;1#>  &",
"*.; 211 2<<<:2.%#.#$21%,.X@%1<<<<<2;1<2 8:33<<81<38< ;.#,;  $2$$$1#",
"*.$2221  111<2%#,.*#<<;<&,, 2<2<<2%>$<$#3388;18313312,&*.   $18:;8 ",
"% ;21   2<#%:2$,$%t>12::%2211< 1<;&+.2&>:3332:3:13:<1.#&,12<::3<183",
";2 11 11<<>*3<<1;%-+1;3: .1<<1  2 ;;$$#.1<:3<8:3<333<22$,21<12<:<3d",
"  2<<211<:::333< ..&:<::1X$<32;;21221$$:<:38dh<3:8dd:<< ;2112,;313:",
"1  <1 2<2<::33312  $13<<1# <:1<22::<121:3333881:3d8d8:33:2;;;%*:<:1",
":12<<1<1 1:333:<21 ,$::21 2:38: 1:2$;1<:33:838 13d8d8833:1$,$&>:3d1",
"<:$;1<:2 <:3833d812;$2:.2 12<33<:3:1 2<:3d33<8;2:8833::333 .;;$1:81",
":82$21< 2:::888dd3221%.*211<::3883:<<388<83388d388d3<:883:2.$21<<8<",
"33,; <$ 1:83<:8dd1;1:,#*#,;21:<<3<<3:38311d883d88:d821:8d:2 2;<<: .",
"8:# 2:33;1d3:<<:1;$ 12&..$  <:<<:<<::3331,d8d:88h8d8<<388< ;$$*o3 %",
"3:,,2:3<:883:11:3< :<:$2,%;21<:::::<:8333 338:88d8833:8d8:2;$$>&2$,",
":8<1:::::38883338: <3<:1;#%1<<33:<2 13:d83:38:838d883:8d8:2; $%;:$#",
"38:<3:::338883833:<38:3<<.#1:::::<1<1:88888388338dd3::88:<2;; ;23.$",
"3d3:8:3:3888338333:33::<3,.;2<33311:1<333dd33:<38dd::383:<<1 11,:$<",
"383133:::3383883:3<38<11 $$%$111:1  2383:8d881:88dd33883112;;2<,2;d",
":3:23331<333883<38:38$;$,$., 11<31.&;33338d33<3:38d8:::<12$,;1:$$2h",
"33<23881:338888:8833d;,,,$$ 1<:<:<*- 333388:3:8<33dd:::12;.. 1:2$<h",
"88:<888<:33888d888:1d:,.$$  21333<*- :<33:333<8388dd:::2 ;.%1<<111d",
"83::83::333888d8d8<;8:;,;;;;22:831,*.< ::::332d888d8:<12;$..13338 d",
"33::3<1:333383d888<2:22$; ;212<<1$#+*113:3:3:1888883:<1 $,.$23:hd2d",
"331:<<<3d8:33:8888:<<:$$;  21<<2;%X-%1<d8833::3833d88:1 $%#$ <<dd3h",
":81:<:38d8333:888832 3.,$; 11:312;>+ 22d83<3:333:3dd8:1;$#>. <<:8dj",
":8<:3d33888838883::;.1..%; 21:33<1.*$;<d3<1:<:::38dd8:1 ;#>,11 :8<j",
"38:13d3:38883883:<1.,1.%%., 2<:3 $;,. 388<:3<:3:838dd3< ;%>,12;:d2h",
"33:2<88388883383<<2&$<,##. 12221$% <$.:38:<33:33838d8:1,.%#,;12:31h",
"3:32<38338dd3:33<< *,1.&#; 1< $2 .$1%>23:3<:3:<<:<8dd31,%%.,.<:382:",
"8<: 13d8:3d88333<:;>. ,#&; << $22,$ ;,$12121<3  <:3dd3< ,.$;, <3h:1",
"8<:21:8888d83833<: &..;%&,$ 11&,    :;+#11;:33: 1<38:111 ,,2; 3:hdk",
"83:21<388d888333::;>$*$*&,$2$.#; ,$ 2;,:38;11<<<<<3888:2 %&<< <88dk",
"8::22<333883333:<<;&,%%-+,<1to# 122;  %1::  1<;3<:388d83<,.:1$,:8:k",
"8 < ;:3<2<:::::212$*%%+-*. .5@%$1 .&$2,1$<231 $<1::38d83< ;$,#%:<hh",
"3 :2;:3:1:3:<<<1<2,&.$>X+%2%lf>,  22;.$1:<2 1;.:3832<832$,$ ;,,238d",
"823,.<3333333::3::$*#%>>X#$ozp>$$,$$;;$:<:< .%; <<3833:2;;22, ;;33d",
"d23,.<:3::383<<:1<;#*,-***$-lwu+1$%*% ;:  <,.&< 1228ddd:11:<1:1 <3d",
"d<3 ;:::33383:::<< #,,+>#, +e>w+1;&+#,.$ ;222, <:  :8d8< <3::<1 ;3h",
"d<:$2::88333:33<<<,%%$*+>..>*o@# <;*#,.21121  ;<<12::38::3833:8<;8k",
"d3:% <:83338312112,##$**&*&+>X*,;1$*.$$22 1  ;$1:<1:3883:383:3831<<",
"d: & 3:333::3 # 1;$#%.&*#X.##&.$$ ;%,;;;;$122;$2<3::8833::8:21<<<1 ",
":1 #2::::<1<31;1<  .&#*&&+%,>%,$$$$.%.,22,<1 $. 2:3<38383:32$$ 21::",
"<2 o$:::::<::<<<<,;,***&#>%%&.&%;$,,%%.21$<12;. 1:31:888833: $21:3h",
": ;+ :::<::<::121#;$&>&#%+.o*##,  ;$.,;2<;1 2  21:31<388:1:31;2<:8h",
":$,#2<::1::1::1 2% ,#&&%%*$+>X%;$ 1,>. 2  2;  2 2:311:88<21:  1<:3h",
"<$;%;21<1<<1::1 ;, ..&%&%.$.&-&$.$2#-%;,;1<211$;2<321:38:1<:2 1:33h",
"..1;; 1<11<<::<2;%$.$#$>,,;,.&#,,$ ,&,;.21:<<:$ 22:1<:38:<<:<;2::3j",
"&#   21222<<1112;,;  ,,*$$ .%%,,.$ ;,,  12 1<:  12:<<33331 11$;<33h",
"2% 1221  ;21  22; <<1,.#; 2,t=>,#.$,%%$$ 1 2:331:<:2133:<2$; ,,133d",
"<& 1<2<<1212 222;2<<2%$%;1<;pro*>#..#%$.;:<<3:8333311::<2;,; ,$2<38",
"1*, 3;211<<<11211222;%$%,21;=@%Oy+*###;<23<8338d883::<<1;.,  ,$2<hd",
"<.$21*&.;<::<<<<<11;%#$, 11;,%#tO>&%%%$223833838d83::<:: ## $,$1<dd",
";>$#*#X&;1<:<1<<111 ,.2.;$.$,+*#%%&#,,;<:83d<83dd3::::::2&& $,,233h",
";=,+aX,,$21121<:1 2 $$<,.&%$%oX*%,##,, :<:<3 8d8d3333::3 &#, ;.;<:j",
";o Xe-;,.2<  <12 2<:<  %>o.$%o>,%#*&,# < ::33ddd83883::: &*,,%&$:<d",
"#O<%>> $.2<<<:<;.$:1<11.o,;tOX>.#%%*#&212<<<:3:88:383::< #+%,>#;88 "
};
