/* XPM */
static char *result[] = {
/* columns rows colors chars-per-pixel */
"55 59 167 2 ",
"   c #161616",
".  c #12162E",
"X  c #1A1E3A",
"o  c #171B36",
"O  c #231E22",
"+  c #1C213E",
"@  c #2C2323",
"#  c #39252B",
"$  c #372A2E",
"%  c #292336",
"&  c #332836",
"*  c #4F3D35",
"=  c #583E36",
"-  c #683E3C",
";  c #693A33",
":  c #1F2442",
">  c #212645",
",  c #292E49",
"<  c #2C3357",
"1  c #323A63",
"2  c #403040",
"3  c #4B3A46",
"4  c #513E4D",
"5  c #3F466A",
"6  c #48475F",
"7  c #5F4956",
"8  c #604147",
"9  c #694A48",
"0  c #744D54",
"q  c #695756",
"w  c #7C5B55",
"e  c #454A65",
"r  c #595878",
"t  c #6D4C65",
"y  c #605063",
"u  c #685671",
"i  c #5C617E",
"p  c #8C5B5C",
"a  c #835859",
"s  c #96656A",
"d  c #9B6579",
"f  c #A66E6F",
"g  c #A5746C",
"h  c #AD7C73",
"j  c #AD7976",
"k  c #B77E76",
"l  c #A5827D",
"z  c #C2837D",
"x  c #C7937D",
"c  c #565E86",
"v  c #585F87",
"b  c #586087",
"n  c #59628A",
"m  c #5D669D",
"M  c #60678B",
"N  c #64698E",
"B  c #646C93",
"V  c #6A7193",
"C  c #6B749D",
"Z  c #67709B",
"A  c #777C9A",
"S  c #6C75A0",
"D  c #727BA6",
"F  c #9A688C",
"G  c #837980",
"H  c #9D7880",
"J  c #A56E96",
"K  c #AE739B",
"L  c #AA7097",
"P  c #B3769C",
"I  c #B97B9F",
"U  c #B175A2",
"Y  c #7C84A6",
"T  c #7A82AC",
"R  c #7E8CB4",
"E  c #9E8B9F",
"W  c #A18C9F",
"Q  c #A59C98",
"!  c #858DB4",
"~  c #8B93BB",
"^  c #A89FB9",
"/  c #BDADAB",
"(  c #B5A7B7",
")  c #C38985",
"_  c #CA9A88",
"`  c #D79784",
"'  c #E39C8F",
"]  c #D6A389",
"[  c #D0A79E",
"{  c #DFA291",
"}  c #E2A38B",
"|  c #E8B596",
" . c #F8BB97",
".. c #F7BB99",
"X. c #D8B8A7",
"o. c #C2AEBD",
"O. c #DBC0AC",
"+. c #DBCDBF",
"@. c #F9C5A3",
"#. c #FFD7B1",
"$. c #FFD8B2",
"%. c #8993C9",
"&. c #959EC6",
"*. c #9DA4C6",
"=. c #9BA7CC",
"-. c #A2A9CE",
";. c #A6A9C9",
":. c #A6BEC3",
">. c #AAB9C7",
",. c #B2B2CF",
"<. c #A1A9D0",
"1. c #ACB3D5",
"2. c #AFB6DA",
"3. c #A9BADB",
"4. c #B0B7DA",
"5. c #B4BBDC",
"6. c #B9BFDE",
"7. c #B1BED7",
"8. c #AAC1C7",
"9. c #ADC5CB",
"0. c #B0C6CD",
"q. c #B2C9CE",
"w. c #AFC0D1",
"e. c #B3C3D3",
"r. c #B5CCD2",
"t. c #B9CFD5",
"y. c #B6C3DC",
"u. c #BBC2DE",
"i. c #BBC9DB",
"p. c #B7CBDA",
"a. c #BAD0D6",
"s. c #BDD4DB",
"d. c #BEC4E0",
"f. c #D4CFCD",
"g. c #C2CCDD",
"h. c #C1C3DB",
"j. c #C2D3D7",
"k. c #C2D6DC",
"l. c #C4D9DE",
"z. c #CBDBDE",
"x. c #DFD8D6",
"c. c #C1C6E1",
"v. c #C5CAE3",
"b. c #C9CEE4",
"n. c #C5D3E2",
"m. c #CDD2E6",
"M. c #C6DAE0",
"N. c #CBDDE2",
"B. c #D0D4E7",
"V. c #D2D6E8",
"C. c #D4D8E9",
"Z. c #D8DAE3",
"A. c #CFE0E5",
"S. c #D2E2E6",
"D. c #D6E5E9",
"F. c #D9E6EA",
"G. c #DCE9ED",
"H. c #E2ECEE",
"J. c #E4EEF1",
"K. c #E9EFF0",
"L. c #E6F0F2",
"P. c #ECF3F5",
"I. c #F0F5F6",
"U. c #F3F7F8",
"Y. c #F5F9FA",
"T. c #FAFCFC",
"R. c None",
/* pixels */
"R.R.R.R.R.R.R.R.R.R.R.R.R.R.R.R.R.R.R.R.R.R.R.R.R.R.R.R.R.R.R.R.R.R.R.R.R.R.R.R.R.R.R.R.R.R.R.R.R.R.R.R.R.R.R.",
"R.R.R.R.R.R.R.R.R.R.R.R.R.R.R.R.R.R.R.R.R.R.R.R.R.R.R.R.R.R.R.R.R.R.R.R.R.R.R.R.R.R.R.R.R.R.R.R.R.R.R.R.R.R.R.",
"R.R.R.R.R.R.R.R.R.R.R.R.R.R.R.R.R.R.R.R.R.R.R.R.R.R.R.R.R.R.R.R.R.R.R.R.R.R.R.R.R.R.R.R.R.R.R.R.R.R.R.R.R.R.R.",
"R.R.R.R.R.R.R.R.R.R.R.R.R.R.R.R.R.R.R.R.R.R.R.R.R.R.R.:.R.R.R.R.R.R.R.R.R.R.R.R.R.R.R.R.R.R.R.R.R.R.R.R.R.R.R.",
"R.R.R.R.R.R.R.R.R.R.R.R.R.R.R.R.R.R.R.R.R.R.R.R.R.R.R.:.R.R.R.R.R.R.R.R.R.R.R.R.R.R.R.R.R.R.R.R.R.R.R.R.R.R.R.",
"R.R.R.R.R.R.R.R.R.R.R.R.R.R.R.R.R.R.R.R.R.F.M.R.R.R.9.8.R.R.r.:.:.R.R.R.R.R.R.R.R.R.R.R.R.R.R.R.R.R.R.R.R.R.R.",
"R.R.R.R.R.R.R.R.R.R.R.R.R.R.R.R.R.R.R.R.R.k.k.s.R.s.a.0.R.a.r.0.a.j.R.R.R.R.R.R.R.R.R.R.R.R.R.R.R.R.R.R.R.R.R.",
"R.R.R.R.R.R.R.R.R.R.R.R.R.R.R.R.R.R.s.s.R.8.r.s.a.l.s.s.a.q.r.l.G.L.R.R.R.R.R.R.R.R.R.R.R.R.R.R.R.R.R.R.R.R.R.",
"R.R.R.R.R.R.R.R.R.R.R.R.R.R.R.R.R.R.s.s.s.a.s.t.8.S.A.a.8.l.G.H.S.A.R.R.G.F.S.R.R.R.R.R.R.R.R.R.R.R.R.R.R.R.R.",
"R.R.R.R.R.R.R.R.R.R.R.R.R.R.R.R.8.8.s.M.G.D.M.r.8.D.S.a.8.z.F.N.k.k.s.s.t.t.N.R.R.R.R.R.R.R.R.R.R.R.R.R.R.R.R.",
"R.R.R.R.R.R.R.R.R.R.R.R.R.R.R.R.9.a.s.A.D.S.D.z.8.z.D.D.j.A.A.A.F.S.s.r.0.e.e.R.R.R.R.R.R.R.R.R.R.R.R.R.R.R.R.",
"R.R.R.R.R.R.R.R.R.R.R.R.R.R.R.R.A.A.s.s.s.t.F.S.q.a.F.U.G.M.l.D.H.F.k.9.r.p.5.R.R.R.R.R.R.R.R.R.R.R.R.R.R.R.R.",
"R.R.R.R.R.R.R.R.R.R.R.R.R.R.R.S.z.a.9.8.8.8.q.A.J.M.A.G.l.s.t.8.:.j.G.l.s.N.H.R.R.R.R.R.R.R.R.R.R.R.R.R.R.R.R.",
"R.R.R.R.R.R.R.R.R.R.R.R.R.R.:.9.r.s.A.A.D.L.P.U.Y.A.s.s.s.q.9.t.G.I.I.M.s.k.M.k.R.R.R.R.R.R.R.R.R.R.R.R.R.R.R.",
"R.R.R.R.R.R.R.R.R.R.R.R.R.R.R.R.q.s.A.D.L.U.G.J.P.D.A.s.s.t.r.s.S.G.G.S.M.s.j.j.z.H.H.R.R.R.R.R.R.R.R.R.R.R.R.",
"R.R.R.R.R.R.R.R.R.R.R.R.R.R.R.R.t.t.t.k.A.G.s.A.D.J.S.a.t.a.s.s.M.M.N.D.N.l.z.j.z.K.H.R.R.R.R.R.R.R.R.R.R.R.R.",
"R.R.R.R.R.R.R.R.R.R.R.R.R.R.J.N.t.8.8.8.9.s.s.s.s.D.A.a.8.r.s.s.F.J.G.M.N.D.R.R.R.R.R.R.R.R.R.R.R.R.R.R.R.R.R.",
"R.R.R.R.R.R.R.R.R.R.R.R.R.R.M.D.J.I.I.H.D.D.A.r.9.s.a.9.r.s.s.s.P.T.T.G.H.G.R.R.R.R.R.R.R.R.R.R.R.R.R.R.R.R.R.",
"R.R.R.R.R.R.R.R.R.R.R.R.R.D.s.D.L.P.G.S.A.A.s.a.q.9.q.q.q.a.s.s.S.D.D.A.N.A.A.R.R.R.R.R.R.R.R.R.R.R.R.R.R.R.R.",
"R.R.R.R.R.R.R.R.R.R.R.R.R.D.s.S.D.D.s.z.A.A.s.s.s.q.q.r.9.a.s.s.M.M.s.r.p.s.s.s.R.R.R.R.R.R.R.R.R.R.R.R.R.R.R.",
"R.R.R.R.R.R.R.R.R.R.R.R.R.R.R.s.s.s.s.F.L.J.A.a.a.s.r.9.s.s.s.s.G.D.a.8.r.t.8.s.l.R.R.R.R.R.R.R.R.R.R.R.R.R.R.",
"R.R.R.R.R.R.R.R.R.R.R.R.R.R.R.s.s.s.F.P.Y.L.A.r.8.r.s.s.s.s.s.s.L.H.a.8.0.k.D.t.0.R.R.R.R.R.R.R.R.R.R.R.R.R.R.",
"R.R.R.R.R.R.R.R.R.R.R.R.R.R.:.9.q.q.l.G.J.A.s.r.:.a.A.A.s.A.A.s.P.J.s.a.k.N.R.R.R.R.R.R.R.R.R.R.R.R.R.R.R.R.R.",
"R.R.R.R.R.R.R.R.R.R.R.R.R.R.j.r.q.q.A.J.L.A.l.a.r.l.A.S.A.G.J.A.L.F.s.s.z.z.R.R.R.R.R.R.R.R.R.R.R.R.R.R.R.R.R.",
"R.R.R.R.R.R.R.R.R.R.R.R.R.R.L.N.s.s.L.Y.U.J.s.s.s.D.A.M.G.Y.Y.D.H.S.s.l.l.N.R.R.R.R.R.R.R.R.R.R.R.R.R.R.R.R.R.",
"R.R.R.R.R.R.R.R.R.R.R.R.R.R.R.R.R.s.s.s.M.J.s.9.s.G.A.M.G.Y.P.s.F.D.M.D.F.G.G.R.R.R.R.R.R.R.R.R.R.R.R.R.R.R.R.",
"R.R.R.R.R.R.R.R.R.R.R.R.R.R.R.R.R.N.q.9.q.s.q.9.s.M.l.s.A.J.G.s.l.s.q.N.F.G.R.R.R.R.R.R.R.R.R.R.R.R.R.R.R.R.R.",
"R.R.R.R.R.R.R.R.R.R.R.R.R.R.R.R.d.d.8.8.e.s.q.9.s.s.s.s.s.s.s.s.s.r.:.i.N.R.R.R.R.R.R.R.R.R.R.R.R.R.R.R.R.R.R.",
"R.R.R.R.R.R.R.R.R.R.R.R.R.R.R.5.y.d.w.e.d.s.9.9.s.s.s.s.s.d.y.s.k.e.:.7.5.R.R.R.R.R.R.R.R.R.R.R.R.R.R.R.R.R.R.",
"R.R.R.R.R.R.R.R.R.R.R.R.R.R.4.d.d.d.d.m.C.s.9.q.v.v.b.s.s.s.b.d.g.r.8.s.y.5.R.R.R.R.R.R.R.R.R.R.R.R.R.R.R.R.R.",
"R.R.R.R.R.R.R.R.R.R.R.R.R.e 1.d.m.B.V.C.V.d.e.d.v.v.b.s.s.s.d.b.B.m.l.N.v.u.5.R.R.R.R.R.R.R.R.R.R.R.R.R.R.R.R.",
"R.R.R.R.R.R.R.R.R.R.R.R.. , B =.d.m.m.m.m.v.d.d.v.v.b.d.b.d.b.V.b.b.b.c.u.*.b R.R.R.R.R.R.R.R.R.R.R.R.R.R.R.R.",
"R.R.R.R.R.R.R.R.R.R.R.R.X : < V *.d.v.v.v.b.V.V.b.v.v.v.b.b.b.C.B.v.5.~ ! V % o R.R.R.R.R.R.R.R.R.R.R.R.R.R.R.",
"R.R.R.R.R.R.R.R.R.R.. . > < < < M 4.c.v.b.V.C.C.V.b.v.b.V.b.b.C.C.v.&.e < < < X . R.R.R.R.R.R.R.R.R.R.R.R.R.R.",
"R.R.R.R.R.R.R.R.R.R.. . > < < < N 4.c.v.b.V.C.C.V.v.v.v.V.b.b.C.C.v.=.e < < < X . R.R.R.R.R.R.R.R.R.R.R.R.R.R.",
"R.R.R.R.R.R.R.R.R.R.# # % : X : r 4.c.v.b.V.C.C.V.b.b.V.C.V.B.C.C.c.<.m 1 + X # # R.R.R.R.R.R.R.R.R.R.R.R.R.R.",
"R.R.R.R.R.R.R.R.R.R.- - 9 7 & e A 6.v.v.b.V.C.C.V.b.b.B.V.C.C.C.B.v.5.%.v 3 q 9 - R.R.R.R.R.R.R.R.R.R.R.R.R.R.",
"R.R.R.R.R.R.R.R.R.R.p p x ] s ( 6.v.v.B.C.C.C.C.V.b.v.b.V.C.V.V.b.m.B.6.W j | k p R.R.R.R.R.R.R.R.R.R.R.R.R.R.",
"R.R.R.R.R.R.R.R.R.R.R.R.s d 1.6.v.v.v.B.C.C.C.V.v.v.v.b.V.C.V.v.v.b.V.v.h.( s R.R.R.R.R.R.R.R.R.R.R.R.R.R.R.R.",
"R.R.R.R.R.R.R.R.R.R.R.R.R.E 4.5.6.v.v.B.C.b.b.b.v.v.v.v.b.b.b.v.v.b.b.v.d.,.R.R.R.R.R.R.R.R.R.R.R.R.R.R.R.R.R.",
"R.R.R.R.R.R.R.R.R.R.R.R.R.R.5.4.y.v.v.b.m.v.v.v.v.v.v.v.v.v.v.v.v.v.v.d.6.R.R.R.R.R.R.R.R.R.R.R.R.R.R.R.R.R.R.",
"R.R.R.R.R.R.R.R.R.R.R.R.R.R.R.=.1.c.c.c.v.v.v.v.v.v.v.v.v.v.v.v.c.c.u.<.R.R.R.R.R.R.R.R.R.R.R.R.R.R.R.R.R.R.R.",
"R.R.R.R.R.R.R.R.R.R.R.R.R.R.R.n T 4.4.u.v.v.v.v.v.v.v.v.v.v.v.v.6.4.<.Z R.R.R.R.R.R.R.R.R.R.R.R.R.R.R.R.R.R.R.",
"R.R.R.R.R.R.R.R.R.R.R.R.R.R.R.b Z ~ ~ =.5.5.5.5.5.5.5.5.5.5.5.5.3.=.! n R.R.R.R.R.R.R.R.R.R.R.R.R.R.R.R.R.R.R.",
"R.R.R.R.R.R.R.R.R.R.R.R.R.R.R.R.m C T ~ &.&.&.*.&.%.%.&.&.&.&.&.&.R Z n R.R.R.R.R.R.R.R.R.R.R.R.R.R.R.R.R.R.R.",
"R.R.R.R.R.R.R.R.R.R.R.R.R.R.R.R.R.n C T D D D D D J T S D D D D D B r R.R.R.R.R.R.R.R.R.R.R.R.R.R.R.R.R.R.R.R.",
"R.R.R.R.R.R.R.R.R.R.R.R.R.R.R.R.R.n n n n n n n n Z.:.c c v v v n y ; R.R.R.R.R.R.R.R.R.R.R.R.R.R.R.R.R.R.R.R.",
"R.R.R.R.R.R.R.R.R.R.R.R.R.R.R.R.R.u _ X.+.+.[ l w x./ w ) X.+.+.X.j 7 R.R.R.R.R.R.R.R.R.R.R.R.R.R.R.R.R.R.R.R.",
"R.R.R.R.R.R.R.R.R.R.R.R.R.R.R.R.R.F { @.$.$._ p * f.Q = f | #.#...g & R.R.R.R.R.R.R.R.R.R.R.R.R.R.R.R.R.R.R.R.",
"R.R.R.R.R.R.R.R.R.R.R.R.R.R.R.R.R.P ) } ....k 0 4 o.G @ a _  . .` w   R.R.R.R.R.R.R.R.R.R.R.R.R.R.R.R.R.R.R.R.",
"R.R.R.R.R.R.R.R.R.R.R.R.R.R.R.R.R.K s k ' ' j d U U t $ a z ' ' f 8 O R.R.R.R.R.R.R.R.R.R.R.R.R.R.R.R.R.R.R.R.",
"R.R.R.R.R.R.R.R.R.R.R.R.R.R.R.R.R.U K P I I K K U U L F L P I I K J F R.R.R.R.R.R.R.R.R.R.R.R.R.R.R.R.R.R.R.R.",
"R.R.R.R.R.R.R.R.R.R.R.R.R.R.R.R.R.U U U P U U U U U U U U U U U U U U R.R.R.R.R.R.R.R.R.R.R.R.R.R.R.R.R.R.R.R.",
"R.R.R.R.R.R.R.R.R.R.R.R.R.R.R.R.R.U U U U U U U U R.R.U U U U U U U U R.R.R.R.R.R.R.R.R.R.R.R.R.R.R.R.R.R.R.R.",
"R.R.R.R.R.R.R.R.R.R.R.R.R.R.R.R.R.R.U U U U U U R.R.R.R.U U U U U U R.R.R.R.R.R.R.R.R.R.R.R.R.R.R.R.R.R.R.R.R.",
"R.R.R.R.R.R.R.R.R.R.R.R.R.R.R.R.R.R.R.R.R.R.R.R.R.R.R.R.R.R.R.R.R.R.R.R.R.R.R.R.R.R.R.R.R.R.R.R.R.R.R.R.R.R.R.",
"R.R.R.R.R.R.R.R.R.R.R.R.R.R.R.R.R.R.R.R.R.R.R.R.R.R.R.R.R.R.R.R.R.R.R.R.R.R.R.R.R.R.R.R.R.R.R.R.R.R.R.R.R.R.R.",
"R.R.R.R.R.R.R.R.R.R.R.R.R.R.R.R.R.R.R.R.R.R.R.R.R.R.R.R.R.R.R.R.R.R.R.R.R.R.R.R.R.R.R.R.R.R.R.R.R.R.R.R.R.R.R.",
"R.R.R.R.R.R.R.R.R.R.R.R.R.R.R.R.R.R.R.R.R.R.R.R.R.R.R.R.R.R.R.R.R.R.R.R.R.R.R.R.R.R.R.R.R.R.R.R.R.R.R.R.R.R.R."
};
