/* XPM */
static char *result[] = {
/* columns rows colors chars-per-pixel */
"55 59 192 2 ",
"   c #12162E",
".  c #16192F",
"X  c #151932",
"o  c #1A1B32",
"O  c #191E39",
"+  c #201E33",
"@  c #1C213A",
"#  c #2B2839",
"$  c #42333F",
"%  c #7C513F",
"&  c #242943",
"*  c #242A4A",
"=  c #282943",
"-  c #302A42",
";  c #32374F",
":  c #37394F",
">  c #272E50",
",  c #2C3356",
"<  c #353A57",
"1  c #483641",
"2  c #403241",
"3  c #4C3658",
"4  c #573F4C",
"5  c #533E60",
"6  c #3F4565",
"7  c #744D48",
"8  c #7B5141",
"9  c #7B5D5A",
"0  c #484C65",
"q  c #434A6E",
"w  c #544368",
"e  c #4D5372",
"r  c #5C5D79",
"t  c #575468",
"y  c #6B5169",
"u  c #745966",
"i  c #7B6061",
"p  c #885D55",
"a  c #9B685A",
"s  c #83694D",
"d  c #A07158",
"f  c #A46D5E",
"g  c #9D706C",
"h  c #986F79",
"j  c #887575",
"k  c #937677",
"l  c #916971",
"z  c #A97566",
"x  c #B27D6D",
"c  c #AB7D70",
"v  c #B57F75",
"b  c #AD8B76",
"n  c #BB8874",
"m  c #C38C75",
"M  c #C68776",
"N  c #C39271",
"B  c #565F88",
"V  c #575E85",
"C  c #576089",
"Z  c #696682",
"A  c #766B85",
"S  c #6C7C88",
"D  c #636C97",
"F  c #6A739C",
"G  c #7C7C94",
"H  c #7B7F9B",
"J  c #777D9D",
"K  c #797389",
"L  c #6E77A0",
"P  c #717AA2",
"I  c #B175A2",
"U  c #B77CA8",
"Y  c #7C869B",
"T  c #7785B0",
"R  c #7C85AE",
"E  c #888397",
"W  c #988D99",
"Q  c #9C949C",
"!  c #A58B84",
"~  c #BA8287",
"^  c #BD9387",
"/  c #A99E8E",
"(  c #858AA2",
")  c #8186A1",
"_  c #9D9BAA",
"`  c #8A92BC",
"'  c #8B94B8",
"]  c #979BB4",
"[  c #BB82A9",
"{  c #BF85B1",
"}  c #A99BA4",
"|  c #9BA8B8",
" . c #95A3AE",
".. c #A5A6A7",
"X. c #ACA5B6",
"o. c #B3BCBD",
"O. c #B9B6B6",
"+. c #B6AAA7",
"@. c #D49A8B",
"#. c #D09891",
"$. c #D9A789",
"%. c #DDAE91",
"&. c #C2AA9A",
"*. c #E8A08D",
"=. c #E9B795",
"-. c #EEB397",
";. c #C48BB5",
":. c #C88FBA",
">. c #C78EB9",
",. c #C991BA",
"<. c #C1B4AA",
"1. c #D2B6AC",
"2. c #D9A2B1",
"3. c #E6B7A5",
"4. c #F1BCA7",
"5. c #EDC09E",
"6. c #FAC69C",
"7. c #D0CBBF",
"8. c #ECC4A9",
"9. c #F4C7A8",
"0. c #FDD4AE",
"q. c #EEC9B3",
"w. c #F4CAB4",
"e. c #FBD5B4",
"r. c #FFDEBB",
"t. c #F6D8BA",
"y. c #949CC2",
"u. c #9BA2C5",
"i. c #A3AACE",
"p. c #AAAFCC",
"a. c #A0A7CB",
"s. c #A6BEC3",
"d. c #ACB1CA",
"f. c #B4B6CD",
"g. c #B7B8C9",
"h. c #ACB2D4",
"j. c #AFB6DA",
"k. c #B4BBDC",
"l. c #B9BFDE",
"z. c #B0B7DA",
"x. c #A9C1C6",
"c. c #ADC5CA",
"v. c #B2C8CE",
"b. c #B7C3C7",
"n. c #B5CCD3",
"m. c #B9CFD5",
"M. c #BCC1DE",
"N. c #B8C1D0",
"B. c #BAD1D7",
"V. c #BDD4DB",
"C. c #BEC4E0",
"Z. c #C8CACE",
"A. c #D5CCC4",
"S. c #D3CFCE",
"D. c #C0C5DE",
"F. c #C2D7DD",
"G. c #C4D9DE",
"H. c #CBD9DB",
"J. c #D7DAD9",
"K. c #DBD2C9",
"L. c #E7DCCD",
"P. c #F3DEC4",
"I. c #DFE0DA",
"U. c #FCE6CA",
"Y. c #FEEACD",
"T. c #FBE4C6",
"R. c #F7E7D0",
"E. c #FFF4DE",
"W. c #C1C6E1",
"Q. c #C5CAE3",
"!. c #C9CEE5",
"~. c #CDD1E6",
"^. c #C6DBE0",
"/. c #CBDEE3",
"(. c #D2D6E8",
"). c #D4D8E9",
"_. c #CEE0E5",
"`. c #D2E2E6",
"'. c #D5E5E9",
"]. c #D9E7EA",
"[. c #DDEAED",
"{. c #DDE4E4",
"}. c #E1ECEE",
"|. c #E3EEF0",
" X c #E6F0F2",
".X c #ECF3F4",
"XX c #F0F6F7",
"oX c #F2F7F8",
"OX c #F5F9F9",
"+X c #FDFDFE",
"@X c #FDF2E2",
"#X c None",
/* pixels */
"#X#X#X#X#X#X#X#X#X#X#X#X#X#X#X#X#X#X#X#X#X#X#X#X#X#X#X#X#X#X#X#X#X#X#X#X#X#X#X#X#X#X#X#X#X#X#X#X#X#X#X#X#X#X#X",
"#X#X#X#X#X#X#X#X#X#X#X#X#X#X#X#X#X#X#X#X#X#X#X#X#X#X#X#X#X#X#X#X#X#X#X#X#X#X#X#X#X#X#X#X#X#X#X#X#X#X#X#X#X#X#X",
"#X#X#X#X#X#X#X#X#X#X#X#X#X#X#X#X#X#X#X#X#X#X#X#X#X#X#X#X#X#X#X#X#X#X#X#X#X#X#X#X#X#X#X#X#X#X#X#X#X#X#X#X#X#X#X",
"#X#X#X#X#X#X#X#X#X#X#X#X#X#X#X#X#X#X#X#X#X#X#X#X#X#X#X#X#X#X#X#X#X#X#X#X#X#X#X#X#X#X#X#X#X#X#X#X#X#X#X#X#X#X#X",
"#X#X#X#X#X#X#X#X#X#X#X#X#X#X#X#X#X#X#X#X#X#X#X#X#X#X#X#X#X#X#X#X#X#X#X#X#X#X#X#X#X#X#X#X#X#X#X#X#X#X#X#X#X#X#X",
"#X#X#X#X#X#X#X#X#X#X#X#X#X#X#X#X#X#X#X#X#X#X#X#X#X#X#X#X#X#XV.V.#X#X#X#X#X#X#X#X#X#X#X#X#X#X#X#X#X#X#X#X#X#X#X",
"#X#X#X#X#X#X#X#X#X#X#X#X#X#X#X#X#X#X#X#X#X#X#Xs.v.V.#X#X#X#XV.m.s.#X#X#X#X#X#X#X#X#X#X#X#X#X#X#X#X#X#X#X#X#X#X",
"#X#X#X#X#X#X#X#X#X#X#X#X#X#X#X#X#X#X#X#X#X#X#Xs.m./.^.#X#X#X/.B.x.#X#X#X#X#X#X#X#X#X#X#X#X#X#X#X#X#X#X#X#X#X#X",
"#X#X#X#X#X#X#X#X#X#X#X#X#X#X#X#X#X#X#Xs.x.#X#Xx.F.}./.V.#X#X|.H.x.x.#X#X#X#X#X#X#X#X#X#X#X#X#X#X#X#X#X#X#X#X#X",
"#X#X#X#X#X#X#X#X#X#X#X#X#X#XV.V.V.#X#XB.m.x.c.m./.}./.V.V./.}._.B.V.V.#X#XV.V.#X#X#X#X#X#X#X#X#X#X#X#X#X#X#X#X",
"#X#X#X#X#X#X#X#X#X#X#X#X#X#Xc.m.V.V.G._.^.B.m.V.^./.`._.V./.[.|.|./.V.#X#XV.V.#X#XV.V.#X#X#X#X#X#X#X#X#X#X#X#X",
"#X#X#X#X#X#X#X#X#X#X#X#X#X#Xs.c.m.B.F._.'.`./.^././.[. X`.`. XoX+X[.V./.#X/./.#X#Xm.m.#X#X#X#X#X#X#X#X#X#X#X#X",
"#X#X#X#X#X#X#X#X#X#X#X#X#X#X#X#Xx.m.V.V._.oXoX X}. XoX+X.X.X+X+X+X[.F.'. X}.|.#X#Xs.s.#X#X#X#X#X#X#X#X#X#X#X#X",
"#X#X#X#X#X#X#X#X#X#X#X#X#X#X#X#X'.^.V.V.^.}.XX+X.X|.OX+X+XOX XoX+X[.F.'.[././.[./.m.B.#X#X#X#X#X#X#X#X#X#X#X#X",
"#X#X#X#X#X#X#X#X#X#X#X#X#X#X#X#X|.]./.^.G./.[..XoXoXXX.X}.[. X[.[.[.[.`._.[.|.|.'.#X#X#X#X#X#X#X#X#X#X#X#X#X#X",
"#X#X#X#X#X#X#X#X#X#X#X#X#X#X#X`.].|.|.'._.^._.].|..X[./.G.G._.^.V.'.}.^._.XXXX[._.#X#X#X#X#X#X#X#X#X#X#X#X#X#X",
"#X#X#X#X#X#X#X#X#X#X#X#X#X#XV.V.V.|.+X+XOX.X`.V.V.V.c.x.B.m.x.v.V.n.s.m./.XX.XG.v.s.s.#X#X#X#X#X#X#X#X#X#X#X#X",
"#X#X#X#X#X#X#X#X#X#X#X#X#X#X[.].].|. X'.'.[.[.[._.V.B.V._._.V.G.].H.B./.'./.F.c.x.#X#X#X#X#X#X#X#X#X#X#X#X#X#X",
"#X#X#X#X#X#X#X#X#X#X#X#X#X^./.|.XXXX.X].`._.`.`.F.v.B.^.}.I.<.7..X'.^.}.|.F.c.s.#X#X#X#X#X#X#X#X#X#X#X#X#X#X#X",
"#X#X#X#X#X#X#X#X#X#X#XV.V.V.V.].XX.X|.[.`.F.V.V.m.v.o.o.Z.O.z &.OXH.o.[. Xm.s.#X#X#X#X#X#X#X#X#X#X#X#X#X#X#X#X",
"#X#X#X#X#X#X#X#X#X#X#X#X#X#X#X#XV.v.c.n.F.V.V.V.`.I.! 7 4 3 3 E }./ s <.|.#X#X#X#X#X#X#X#X#X#X#X#X#X#X#X#X#X#X",
"#X#X#X#X#X#X#X#X#X#X#X#X#X#X#X#Xc.n.V./.].]./.F.[..X..j Q E w l 3.@.m ^ ^ #X#X#X#X#X#X#X#X#X#X#X#X#X#X#X#X#X#X",
"#X#X#X#X#X#X#X#X#X#X#X#X#X#X#X#Xc./.].'./.`.Z.+.S..Xb._ W A 5 h 4.w.w.@.M #X#X#X#X#X#X#X#X#X#X#X#X#X#X#X#X#X#X",
"#X#X#X#X#X#X#X#X#X#X#X#X#X#X#X^./.|.XX/.V.V.O.n 1.}.H.g.A w w W Y.@X@X8.*.#X#X#X#X#X#X#X#X#X#X#X#X#X#X#X#X#X#X",
"#X#X#X#X#X#X#X#X#X#X#X#X#X#XV.[.OX.X[.^.V.V.7.6.0.Y.I.v.' T T o.Y.Y.U.4.*.#X#X#X#X#X#X#X#X#X#X#X#X#X#X#X#X#X#X",
"#X#X#X#X#X#X#X#X#X#X#X#X#X#XV.`..X'.^.v.b.1.=.6.r.Y.R.L.K.A.A.L.Y.r.9.m a #X#X#X#X#X#X#X#X#X#X#X#X#X#X#X#X#X#X",
"#X#X#X#X#X#X#X#X#X#X#X#X#X#XV.`.}. .Y s...k c @.5.r.T.Y.Y.Y.t.e.w.$.N d #X#X#X#X#X#X#X#X#X#X#X#X#X#X#X#X#X#X#X",
"#X#X#X#X#X#X#X#X#X#X#X#X#X#X#X#X#X  & r Y = 1 p n $.8.t.t.q.=.$.@.z % #X#X#X#X#X#X#X#X#X#X#X#X#X#X#X#X#X#X#X#X",
"#X#X#X#X#X#X#X#X#X#X#X#X#X#X#X#X#X  X @ @ X o + # # p x x g u y y y #X#X#X#X#X#X#X#X#X#X#X#X#X#X#X#X#X#X#X#X#X",
"#X#X#X#X#X#X#X#X#X#X#X#X#X#X#X#X#XY Y Y ( ( ( ( ( E t 1 1 : - - - #X#X#X#X#X#X#X#X#X#X#X#X#X#X#X#X#X#X#X#X#X#X",
"#X#X#X#X#X#X#X#X#X#X#X#X#X#X#X#X#Xj.z.C.Q.Q.Q.Q.Q.M.H e e 6 & o   #X#X#X#X#X#X#X#X#X#X#X#X#X#X#X#X#X#X#X#X#X#X",
"#X#X#X#X#X#X#X#X#X#X#X#X#X#X#X#X#Xj.z.C.Q.Q.Q.Q.Q.Q.l.j.j.` e < = < #X#X#X#X#X#X#X#X#X#X#X#X#X#X#X#X#X#X#X#X#X",
"#X#X#X#X#X#X#X#X#X#X#X#X#X#X#X#X#Xj.k.C.!.Q.Q.Q.Q.Q.Q.C.k.h.a.u.y.i.z.#X#X#X#X#X#X#X#X#X#X#X#X#X#X#X#X#X#X#X#X",
"#X#X#X#X#X#X#X#X#X#X#X#X#X#X#X#Xj.l.M.W.W.M.C.Q.Q.Q.C.l.C.M.M.C.C.k.z.#X#X#X#X#X#X#X#X#X#X#X#X#X#X#X#X#X#X#X#X",
"#X#X#X#X#X#X#X#X#X#X#X#X#X#X#X#Xj.M.W.C.M.z.l.C.C.C.z.k.D.Q.!.!.Q.C.l.k.#X#X#X#X#X#X#X#X#X#X#X#X#X#X#X#X#X#X#X",
"#X#X#X#X#X#X#X#X#X#X#X#X#X#X#Xz.k.M.W.h.a.a.i.i.i.a.a.h.M.!.(.~.Q.Q.Q.k.j.#X#X#X#X#X#X#X#X#X#X#X#X#X#X#X#X#X#X",
"#X#X#X#X#X#X#X#X#X#X#X#X#X#Xz.l.D.Q.f.r < 6 q q q q < 0 u.!.(.(.Q.Q.Q.k.z.#X#X#X#X#X#X#X#X#X#X#X#X#X#X#X#X#X#X",
"#X#X#X#X#X#X#X#X#X#X#X#X#X#Xj.l.Q.Q.d.0 O > , , , , @ ; ] !.(.(.(.!.W.l.z.#X#X#X#X#X#X#X#X#X#X#X#X#X#X#X#X#X#X",
"#X#X#X#X#X#X#X#X#X#X#X#X#X#Xj.C.Q.Q.p.0 O & * * * * O ; ] !.).).(.!.Q.k.z.#X#X#X#X#X#X#X#X#X#X#X#X#X#X#X#X#X#X",
"#X#X#X#X#X#X#X#X#X#X#X#X#X#Xj.l.Q.Q.d.e o   . o o o o : ] !.(.).(.~.Q.l.j.#X#X#X#X#X#X#X#X#X#X#X#X#X#X#X#X#X#X",
"#X#X#X#X#X#X#X#X#X#X#X#X#X#Xj.l.Q.Q.D.d.E 4 7 v n v p 9 X.!.!.~.).~.W.l.j.#X#X#X#X#X#X#X#X#X#X#X#X#X#X#X#X#X#X",
"#X#X#X#X#X#X#X#X#X#X#X#X#X#Xj.k.M.W.Q.Q.g.W k a f z ! } f.Q.Q.Q.!.Q.l.z.j.#X#X#X#X#X#X#X#X#X#X#X#X#X#X#X#X#X#X",
"#X#X#X#X#X#X#X#X#X#X#X#X#X#Xz.i.y.h.C.C.D.C._ u u k X.C.Q.W.l.C.C.l.z.j.j.#X#X#X#X#X#X#X#X#X#X#X#X#X#X#X#X#X#X",
"#X#X#X#X#X#X#X#X#X#X#X#X#X#X#X#XB ` j.j.j.j.j.j.z.z.j.j.j.j.j.j.j.#X#X#X#X#X#X#X#X#X#X#X#X#X#X#X#X#X#X#X#X#X#X",
"#X#X#X#X#X#X#X#X#X#X#X#X#X#X#X#XB P ` ` ` ` ` ` ` y.y.y.y.] y.T F #X#X#X#X#X#X#X#X#X#X#X#X#X#X#X#X#X#X#X#X#X#X",
"#X#X#X#X#X#X#X#X#X#X#X#X#X#X#X#XB D F F F F D F L P L P P F F D C #X#X#X#X#X#X#X#X#X#X#X#X#X#X#X#X#X#X#X#X#X#X",
"#X#X#X#X#X#X#X#X#X#X#X#X#X#X#X#X#X#XV Z Z K K Y G G Z r V B B #X#X#X#X#X#X#X#X#X#X#X#X#X#X#X#X#X#X#X#X#X#X#X#X",
"#X#X#X#X#X#X#X#X#X#X#X#X#X#X#X#X#X#X#Xf m =.0.T.R.t.b p #X#X#X#X#X#X#X#X#X#X#X#X#X#X#X#X#X#X#X#X#X#X#X#X#X#X#X",
"#X#X#X#X#X#X#X#X#X#X#X#X#X#X#X#X#X#X#Xz m -.0.Y.Y.T.b % #X#X#X#X#X#X#X#X#X#X#X#X#X#X#X#X#X#X#X#X#X#X#X#X#X#X#X",
"#X#X#X#X#X#X#X#X#X#X#X#X#X#X#X#X#X#X#XI n m $.9.e.e.#.h #X#X#X#X#X#X#X#X#X#X#X#X#X#X#X#X#X#X#X#X#X#X#X#X#X#X#X",
"#X#X#X#X#X#X#X#X#X#X#X#X#X#X#X#X#X#X#X,.U g c @.-.4.2.>.#X#X#X#X#X#X#X#X#X#X#X#X#X#X#X#X#X#X#X#X#X#X#X#X#X#X#X",
"#X#X#X#X#X#X#X#X#X#X#X#X#X#X#X#X#X,.,.,.;.:.:.,.,.,.,.>.U I #X#X#X#X#X#X#X#X#X#X#X#X#X#X#X#X#X#X#X#X#X#X#X#X#X",
"#X#X#X#X#X#X#X#X#X#X#X#X#X#X#X#X#XU U ;.,.,.,.,.,.,.,.>.;.;.,.#X#X#X#X#X#X#X#X#X#X#X#X#X#X#X#X#X#X#X#X#X#X#X#X",
"#X#X#X#X#X#X#X#X#X#X#X#X#X#X#X#X#X#XU { ;.[ { ;.{ { { { { ;.>.#X#X#X#X#X#X#X#X#X#X#X#X#X#X#X#X#X#X#X#X#X#X#X#X",
"#X#X#X#X#X#X#X#X#X#X#X#X#X#X#X#X#X#X#XI I I I I I I I I I I #X#X#X#X#X#X#X#X#X#X#X#X#X#X#X#X#X#X#X#X#X#X#X#X#X",
"#X#X#X#X#X#X#X#X#X#X#X#X#X#X#X#X#X#X#X#X#X#X#X#X#X#X#X#X#X#X#X#X#X#X#X#X#X#X#X#X#X#X#X#X#X#X#X#X#X#X#X#X#X#X#X",
"#X#X#X#X#X#X#X#X#X#X#X#X#X#X#X#X#X#X#X#X#X#X#X#X#X#X#X#X#X#X#X#X#X#X#X#X#X#X#X#X#X#X#X#X#X#X#X#X#X#X#X#X#X#X#X",
"#X#X#X#X#X#X#X#X#X#X#X#X#X#X#X#X#X#X#X#X#X#X#X#X#X#X#X#X#X#X#X#X#X#X#X#X#X#X#X#X#X#X#X#X#X#X#X#X#X#X#X#X#X#X#X",
"#X#X#X#X#X#X#X#X#X#X#X#X#X#X#X#X#X#X#X#X#X#X#X#X#X#X#X#X#X#X#X#X#X#X#X#X#X#X#X#X#X#X#X#X#X#X#X#X#X#X#X#X#X#X#X"
};
