/* XPM */
static char *result[] = {
/* columns rows colors chars-per-pixel */
"55 59 196 2 ",
"   c #12162E",
".  c #161B35",
"X  c #181C35",
"o  c #1B1F39",
"O  c #131730",
"+  c #2B2536",
"@  c #282438",
"#  c #3D2C37",
"$  c #47353B",
"%  c #7C513F",
"&  c #252A45",
"*  c #292D45",
"=  c #242A4A",
"-  c #38394C",
";  c #272E50",
":  c #2C3356",
">  c #313652",
",  c #2D3549",
"<  c #403A4A",
"1  c #483856",
"2  c #553D5B",
"3  c #3E4464",
"4  c #53415F",
"5  c #5F4448",
"6  c #7C544A",
"7  c #664B51",
"8  c #644A5E",
"9  c #6C5056",
"0  c #705359",
"q  c #774F4A",
"w  c #5B4867",
"e  c #4D536C",
"r  c #565B7C",
"t  c #604E6C",
"y  c #5B607E",
"u  c #66677C",
"i  c #63727F",
"p  c #825544",
"a  c #835B57",
"s  c #89635D",
"d  c #926B5A",
"f  c #976758",
"g  c #976B66",
"h  c #896878",
"j  c #917273",
"k  c #A87163",
"l  c #B37F6C",
"z  c #AA7B76",
"x  c #9F907E",
"c  c #A88775",
"v  c #BD8775",
"b  c #B7856D",
"n  c #C98A78",
"m  c #C7927E",
"M  c #D29F7B",
"N  c #555E87",
"B  c #5A6084",
"V  c #58618A",
"C  c #656A82",
"Z  c #616789",
"A  c #7B7486",
"S  c #626B94",
"D  c #6A6D97",
"F  c #666F99",
"G  c #6B749D",
"H  c #67709A",
"J  c #777A95",
"K  c #757EA8",
"L  c #8A7B84",
"P  c #877A8A",
"I  c #817C90",
"U  c #917B85",
"Y  c #B47C80",
"T  c #B175A2",
"R  c #B67BA7",
"E  c #B87DA9",
"W  c #918381",
"Q  c #888398",
"!  c #9C8E9B",
"~  c #9F919E",
"^  c #A29195",
"/  c #B7868F",
"(  c #8C91A8",
")  c #9C97A2",
"_  c #838BB6",
"`  c #868EB8",
"'  c #8D96BD",
"]  c #959CBC",
"[  c #8287A2",
"{  c #BC84AA",
"}  c #A59FAC",
"|  c #BF86B1",
" . c #9CA1BA",
".. c #B0A4AE",
"X. c #AAADBF",
"o. c #B7BCBD",
"O. c #A3A5AB",
"+. c #C49887",
"@. c #DB9785",
"#. c #DBA787",
"$. c #C4A59D",
"%. c #C8A996",
"&. c #DAB399",
"*. c #DEA897",
"=. c #E3A98D",
"-. c #E9A390",
";. c #F5BA96",
":. c #EBB19B",
">. c #CF93AC",
",. c #C289B4",
"<. c #C78EB9",
"1. c #C086B1",
"2. c #C991BB",
"3. c #D49CB3",
"4. c #C8B9AE",
"5. c #EFB8A4",
"6. c #F4BDA1",
"7. c #E4BDB2",
"8. c #FAC79F",
"9. c #D4C5B9",
"0. c #ECC5A9",
"q. c #F8CAA6",
"w. c #FFD4AC",
"e. c #E4CDB3",
"r. c #EDCEB4",
"t. c #F4CDB2",
"y. c #FEDAB5",
"u. c #FDD8B6",
"i. c #969DC3",
"p. c #9FA6CA",
"a. c #A4A9C2",
"s. c #A4ABCF",
"d. c #A6AAC9",
"f. c #A6BEC3",
"g. c #A6ADD2",
"h. c #A8AFD3",
"j. c #AFB6DA",
"k. c #A9B0D4",
"l. c #B0B7DA",
"z. c #B4BBDC",
"x. c #B8BEDE",
"c. c #B7B9D1",
"v. c #B7B7CD",
"b. c #A9C1C6",
"n. c #AEC5CB",
"m. c #B1C6CB",
"M. c #B2C9CE",
"N. c #B4CCD2",
"B. c #B8CFD4",
"V. c #BBC1DF",
"C. c #BAD0D6",
"Z. c #BDD4DB",
"A. c #BEC4E0",
"S. c #C6CFCE",
"D. c #C6C6C7",
"F. c #CCD0CF",
"G. c #C2D6DC",
"H. c #C4D9DE",
"J. c #CBDBDE",
"K. c #CCD3D9",
"L. c #DCDDDE",
"P. c #D2C9CC",
"I. c #E1DCD3",
"U. c #F7DFD0",
"Y. c #F8D7C1",
"T. c bisque",
"R. c #FFE7C9",
"E. c #FEEACD",
"W. c #F7E3C8",
"Q. c #FFEFD6",
"!. c #EDE7D9",
"~. c #C5CAE3",
"^. c #C9CEE5",
"/. c #C2C7E2",
"(. c #CDD1E7",
"). c #C6DAE0",
"_. c #CBDDE2",
"`. c #D0D4E7",
"'. c #D1D6E8",
"]. c #D4D8E9",
"[. c #CFE0E5",
"{. c #D2E2E6",
"}. c #D6E5E9",
"|. c #D9E7EA",
" X c #DCE9EC",
".X c #E1ECEE",
"XX c #E8EBEB",
"oX c #E5EEF1",
"OX c #E7F1F2",
"+X c #EBF3F5",
"@X c #F0F6F7",
"#X c #F1F7F8",
"$X c #F5F9F9",
"%X c #FAFCFC",
"&X c #FFF7E5",
"*X c None",
/* pixels */
"*X*X*X*X*X*X*X*X*X*X*X*X*X*X*X*X*X*X*X*X*X*X*X*X*X*X*X*X*X*X*X*X*X*X*X*X*X*X*X*X*X*X*X*X*X*X*X*X*X*X*X*X*X*X*X",
"*X*X*X*X*X*X*X*X*X*X*X*X*X*X*X*X*X*X*X*X*X*X*X*X*X*X*X*X*X*X*X*X*X*X*X*X*X*X*X*X*X*X*X*X*X*X*X*X*X*X*X*X*X*X*X",
"*X*X*X*X*X*X*X*X*X*X*X*X*X*X*X*X*X*X*X*X*X*X*XZ.Z.*X*X*X*X*X*X*X*X*X*X*X*X*X*X*X*X*X*X*X*X*X*X*X*X*X*X*X*X*X*X",
"*X*X*X*X*X*X*X*X*X*X*X*X*X*X*X*X*X*X*X*X*X*Xf.B.Z.*X*X*X*XN.*X*X*X*X*X*X*X*X*X*X*X*X*X*X*X*X*X*X*X*X*X*X*X*X*X",
"*X*X*X*X*X*X*X*X*X*X*X*X*X*X*X*X*X*X*X*X*X*Xf.B.).*X*X*X).B.f.*X*X*X*X*X*X*X*X*X*X*X*X*X*X*X*X*X*X*X*X*X*X*X*X",
"*X*X*X*X*X*X*X*X*X*X*X*X*X*X*X*X*X*X*X*X*X*Xf.J. X*X*XH.|.G.f.*X*Xf.*X*X*X*X*X*X*X*X*X*X*X*X*X*X*X*X*X*X*X*X*X",
"*X*X*X*X*X*X*X*X*X*X*X*X*X*X*X*X*X*X*X*X*XC.N.[. XH.Z.H. X_.N.b.n.N.*X*XZ.Z.*X*X*X*X*X*X*X*X*X*X*X*X*X*X*X*X*X",
"*X*X*X*X*X*X*X*X*X*X*X*X*X*X*X*X*XZ.Z.*XZ.H.[. X|.H.H._.}._.Z.M.B.).).Z.Z.C.B.*X*X*X*X*X*X*X*X*X*X*X*X*X*X*X*X",
"*X*X*X*X*X*X*X*X*X*X*X*X*XZ.Z.Z.*XZ.Z.*XZ.{.%X@X|.H.{. XH.Z.Z.Z._..X).Z.Z.n.f.*X*X*X*X*X*X*X*X*X*X*X*X*X*X*X*X",
"*X*X*X*X*X*X*X*X*X*X*X*X*Xn.n.n.*X}. X XH.{.%X%X+X|.OX@X X}.}.OX.X).).B.n.n.*X*X*X*X*X*X*X*X*X*X*X*X*X*X*X*X*X",
"*X*X*X*X*X*X*X*X*X*X*X*X*Xn.n.C.*X}.|..X[.{.%X%X$X@X$X%XOXOX@X#X.XZ.Z.Z.C.*X*X*X*X*X*X*X*X*X*X*X*X*X*X*X*X*X*X",
"*X*X*X*X*X*X*X*X*X*X*X*X*XZ.Z.{. X[.[. X[.{.%X+XOX%X%X%XOX@X%XOX{.Z.Z._..X*X*X*X*X*X*X*X*X*X*X*X*X*X*X*X*X*X*X",
"*X*X*X*X*X*X*X*X*X*X*X*X*X*X*X|.OX+X X)..XXX[.|. X[.|.+X$X$XOX[.).Z.[. XoX*X*X*X*X*X*X*X*X*X*X*X*X*X*X*X*X*X*X",
"*X*X*X*X*X*X*X*X*X*X*X*X*X*X*XG.}.$XOXZ.{.J.Z.G.H.Z.G.[. X|.{.[.{. XOXOX{._.*X*X*X*X*X*X*X*X*X*X*X*X*X*X*X*X*X",
"*X*X*X*X*X*X*X*X*X*X*X*X*Xf.f.M.Z.OX.XH.M.M.H.M.m.Z.N.n.B.Z.H.|.+X$X%XOXH.H.H.*X*X*X*X*X*X*X*X*X*X*X*X*X*X*X*X",
"*X*X*X*X*X*X*X*X*X*X*X*X*X*X*Xb.n.G.[. XH.H. XH.H.}.).C.Z.[. XOX|.). XOX X X X*X*X*X*X*X*X*X*X*X*X*X*X*X*X*X*X",
"*X*X*X*X*X*X*X*X*X*X*X*X*X*X*X*Xb.n.J.@X[.[.@X9.9. X}.C.N.S.[.[.[.{.OX#X#X X[.Z.Z.*X*X*X*X*X*X*X*X*X*X*X*X*X*X",
"*X*X*X*X*X*X*X*X*X*X*X*X*X*X*X*X*Xf.J.$XS.S.$X%.c P.B.o.m.B.Z.Z.).|.OX+X@X}.Z.Z.Z.*X*X*X*X*X*X*X*X*X*X*X*X*X*X",
"*X*X*X*X*X*X*X*X*X*X*X*X*X*X*X*X*X*X*X.Xx x XXQ 4 4 0 j F.[.Z.Z.Z.H.M.M.H.*X*X*X*X*X*X*X*X*X*X*X*X*X*X*X*X*X*X",
"*X*X*X*X*X*X*X*X*X*X*X*X*X*X*X*X*X*X*X$.v m 7.h w Q j W L. XZ.[.}.{.Z.N.m.*X*X*X*X*X*X*X*X*X*X*X*X*X*X*X*X*X*X",
"*X*X*X*X*X*X*X*X*X*X*X*X*X*X*X*X*X*X*Xb -.5.5.h t ) ) O.XXL.o.J.|.}.}.H.m.*X*X*X*X*X*X*X*X*X*X*X*X*X*X*X*X*X*X",
"*X*X*X*X*X*X*X*X*X*X*X*X*X*X*X*X*X*X*X-.!.&XE.U 1 1 Q K. X4.b o.Z.Z.OX+XZ.*X*X*X*X*X*X*X*X*X*X*X*X*X*X*X*X*X*X",
"*X*X*X*X*X*X*X*X*X*X*X*X*X*X*X*X*X*X*X-.Y.Q.E.} D D  .F.!.r.#.S.Z.Z. X+X+X{.Z.*X*X*X*X*X*X*X*X*X*X*X*X*X*X*X*X",
"*X*X*X*X*X*X*X*X*X*X*X*X*X*X*X*X*X*X*Xn 5.T.E.D.X.d.D.L.E.y.8.9.D.N.[. X$X{.Z.*X*X*X*X*X*X*X*X*X*X*X*X*X*X*X*X",
"*X*X*X*X*X*X*X*X*X*X*X*X*X*X*X*X*X*X*Xp M q.R.W.E.E.E.E.E.y.8.=.%.b.M.G..X_.Z.*X*X*X*X*X*X*X*X*X*X*X*X*X*X*X*X",
"*X*X*X*X*X*X*X*X*X*X*X*X*X*X*X*X*X*X*X*Xf b :.q.w.E.E.R.w.=.l 7 i X.i e *X*X*X*X*X*X*X*X*X*X*X*X*X*X*X*X*X*X*X",
"*X*X*X*X*X*X*X*X*X*X*X*X*X*X*X*X*X*X*X*X*Xf z / +.&.&.&.c s 5 @ - C ,   *X*X*X*X*X*X*X*X*X*X*X*X*X*X*X*X*X*X*X",
"*X*X*X*X*X*X*X*X*X*X*X*X*X*X*X*X*X*X*X*X*X*X4 4 t f f 0 - * * & * & * & *X*X*X*X*X*X*X*X*X*X*X*X*X*X*X*X*X*X*X",
"*X*X*X*X*X*X*X*X*X*X*X*X*X*X*X*X*X*X*X*X*X*Xo @ @ + + - ( X.a.a.a.a.] ] *X*X*X*X*X*X*X*X*X*X*X*X*X*X*X*X*X*X*X",
"*X*X*X*X*X*X*X*X*X*X*X*X*X*X*X*X*X*X*X*X*X*X  o > B Z J v./././.~./.x.l.*X*X*X*X*X*X*X*X*X*X*X*X*X*X*X*X*X*X*X",
"*X*X*X*X*X*X*X*X*X*X*X*X*X*X*X*X*X*X*X*X*X*X: 3 Z g.l.x./.~.~.~.~.~.x.l.*X*X*X*X*X*X*X*X*X*X*X*X*X*X*X*X*X*X*X",
"*X*X*X*X*X*X*X*X*X*X*X*X*X*X*X*X*X*X*X*Xl.h.p.d.s.j.V./.~.~.~.~././.x.l.*X*X*X*X*X*X*X*X*X*X*X*X*X*X*X*X*X*X*X",
"*X*X*X*X*X*X*X*X*X*X*X*X*X*X*X*X*X*X*X*Xj.z.A.V.V.V.V.V./.~.~.V.A.~.A.V.l.*X*X*X*X*X*X*X*X*X*X*X*X*X*X*X*X*X*X",
"*X*X*X*X*X*X*X*X*X*X*X*X*X*X*X*X*X*X*X*Xz.V.~.~.^.~.V.l.A.A.V.z.z.A./.A.l.*X*X*X*X*X*X*X*X*X*X*X*X*X*X*X*X*X*X",
"*X*X*X*X*X*X*X*X*X*X*X*X*X*X*X*X*X*X*Xl.A./.~.`.].~.V.j.j.j.j.j.j.l.A.A.j.*X*X*X*X*X*X*X*X*X*X*X*X*X*X*X*X*X*X",
"*X*X*X*X*X*X*X*X*X*X*X*X*X*X*X*X*X*X*Xl.A.~.~.(.`.~.[ e r B B V r e  ./.A.x.*X*X*X*X*X*X*X*X*X*X*X*X*X*X*X*X*X",
"*X*X*X*X*X*X*X*X*X*X*X*X*X*X*X*X*X*X*Xl.A.~.(.(.`.~.C . ; : : : = . ( ~.~.V.j.*X*X*X*X*X*X*X*X*X*X*X*X*X*X*X*X",
"*X*X*X*X*X*X*X*X*X*X*X*X*X*X*X*X*X*X*Xl.A.^.].].].~.C . ; : : : = . ( ~./.x.j.*X*X*X*X*X*X*X*X*X*X*X*X*X*X*X*X",
"*X*X*X*X*X*X*X*X*X*X*X*X*X*X*X*X*X*X*Xl.A.^.].].`.~.C . . o o o O . ( /.~.x.j.*X*X*X*X*X*X*X*X*X*X*X*X*X*X*X*X",
"*X*X*X*X*X*X*X*X*X*X*X*X*X*X*X*X*X*X*Xl.A.^.].`.^.~.A $ 7 9 7 # - u X./.~.V.j.*X*X*X*X*X*X*X*X*X*X*X*X*X*X*X*X",
"*X*X*X*X*X*X*X*X*X*X*X*X*X*X*X*X*X*X*Xl.V.^.].^.~.~.^ f m @.n 6 j ~.~././.x.j.*X*X*X*X*X*X*X*X*X*X*X*X*X*X*X*X",
"*X*X*X*X*X*X*X*X*X*X*X*X*X*X*X*X*X*X*Xj.l.V.~.~.~.~.c...g p q ~ c.~.~./.z.l.j.*X*X*X*X*X*X*X*X*X*X*X*X*X*X*X*X",
"*X*X*X*X*X*X*X*X*X*X*X*X*X*X*X*X*X*X*Xj.l.z.V.V.A.V.V.c.~ L P d.V.V.V.h._ i.*X*X*X*X*X*X*X*X*X*X*X*X*X*X*X*X*X",
"*X*X*X*X*X*X*X*X*X*X*X*X*X*X*X*X*X*X*X*X*X*Xp.s.g.h.h.h.h.h.g.g.g.g.g.' V *X*X*X*X*X*X*X*X*X*X*X*X*X*X*X*X*X*X",
"*X*X*X*X*X*X*X*X*X*X*X*X*X*X*X*X*X*X*X*X*X*XS K ` i.' i.i.` _ _ _ _ _ K V *X*X*X*X*X*X*X*X*X*X*X*X*X*X*X*X*X*X",
"*X*X*X*X*X*X*X*X*X*X*X*X*X*X*X*X*X*X*X*X*X*X*XS F G G F G H F F F F F S *X*X*X*X*X*X*X*X*X*X*X*X*X*X*X*X*X*X*X",
"*X*X*X*X*X*X*X*X*X*X*X*X*X*X*X*X*X*X*X*X*X*X*X*XN N r u J I Q I A C B N *X*X*X*X*X*X*X*X*X*X*X*X*X*X*X*X*X*X*X",
"*X*X*X*X*X*X*X*X*X*X*X*X*X*X*X*X*X*X*X*X*X*X*X*X*X*Xq d e.W.W.q.@.k *X*X*X*X*X*X*X*X*X*X*X*X*X*X*X*X*X*X*X*X*X",
"*X*X*X*X*X*X*X*X*X*X*X*X*X*X*X*X*X*X*X*X*X*X*X*X*X*X6 d e.E.E.w.#.k *X*X*X*X*X*X*X*X*X*X*X*X*X*X*X*X*X*X*X*X*X",
"*X*X*X*X*X*X*X*X*X*X*X*X*X*X*X*X*X*X*X*X*X*X*X*X*X*Xg z r.u.t.=.+.z *X*X*X*X*X*X*X*X*X*X*X*X*X*X*X*X*X*X*X*X*X",
"*X*X*X*X*X*X*X*X*X*X*X*X*X*X*X*X*X*X*X*X*X*X*X*X*X*X<.3.5.;.@.f g 2.*X*X*X*X*X*X*X*X*X*X*X*X*X*X*X*X*X*X*X*X*X",
"*X*X*X*X*X*X*X*X*X*X*X*X*X*X*X*X*X*X*X*X*X*X*X*X*XT 1.2.3.3.>./ 1.2.2.*X*X*X*X*X*X*X*X*X*X*X*X*X*X*X*X*X*X*X*X",
"*X*X*X*X*X*X*X*X*X*X*X*X*X*X*X*X*X*X*X*X*X*X*X*X,.{ ,.2.2.2.2.2.2.2.,.,.*X*X*X*X*X*X*X*X*X*X*X*X*X*X*X*X*X*X*X",
"*X*X*X*X*X*X*X*X*X*X*X*X*X*X*X*X*X*X*X*X*X*X*X2.2.2.<.<.<.<.<.<.2.<.E T *X*X*X*X*X*X*X*X*X*X*X*X*X*X*X*X*X*X*X",
"*X*X*X*X*X*X*X*X*X*X*X*X*X*X*X*X*X*X*X*X*X*X*X*X*XR R R R R R R R R *X*X*X*X*X*X*X*X*X*X*X*X*X*X*X*X*X*X*X*X*X",
"*X*X*X*X*X*X*X*X*X*X*X*X*X*X*X*X*X*X*X*X*X*X*X*X*XT T T T T T T T T *X*X*X*X*X*X*X*X*X*X*X*X*X*X*X*X*X*X*X*X*X",
"*X*X*X*X*X*X*X*X*X*X*X*X*X*X*X*X*X*X*X*X*X*X*X*X*X*X*X*X*X*X*X*X*X*X*X*X*X*X*X*X*X*X*X*X*X*X*X*X*X*X*X*X*X*X*X",
"*X*X*X*X*X*X*X*X*X*X*X*X*X*X*X*X*X*X*X*X*X*X*X*X*X*X*X*X*X*X*X*X*X*X*X*X*X*X*X*X*X*X*X*X*X*X*X*X*X*X*X*X*X*X*X",
"*X*X*X*X*X*X*X*X*X*X*X*X*X*X*X*X*X*X*X*X*X*X*X*X*X*X*X*X*X*X*X*X*X*X*X*X*X*X*X*X*X*X*X*X*X*X*X*X*X*X*X*X*X*X*X"
};
