/* XPM */
static char *result[] = {
/* columns rows colors chars-per-pixel */
"55 59 190 2 ",
"   c #1C1A1A",
".  c #12162E",
"X  c #141931",
"o  c #181D38",
"O  c #191D36",
"+  c #211C2D",
"@  c #221F31",
"#  c #1C2039",
"$  c #242639",
"%  c #352B34",
"&  c #512D29",
"*  c #543C3C",
"=  c #503739",
"-  c #1E2542",
";  c #272D4D",
":  c #262B45",
">  c #2C3256",
",  c #303554",
"<  c #383E61",
"1  c #4A3559",
"2  c #563B58",
"3  c #3F466A",
"4  c #5C4449",
"5  c #554F55",
"6  c #764E4B",
"7  c #6A4B57",
"8  c #6A605B",
"9  c #5B4766",
"0  c #5E4B6A",
"q  c #5F4966",
"w  c #535979",
"e  c #444B6E",
"r  c #624D6A",
"t  c #614762",
"y  c #665876",
"u  c #85575E",
"i  c #996954",
"p  c #8B5F68",
"a  c #84646A",
"s  c #8C666B",
"d  c #996A62",
"f  c #9C7A78",
"g  c #836C7D",
"h  c #A9766A",
"j  c #A87768",
"k  c #BB7E6E",
"l  c #A77376",
"z  c #AD7672",
"x  c #BD7F7F",
"c  c #A16D7D",
"v  c #BF8670",
"b  c #BC8B7B",
"n  c #B48377",
"m  c #C6917D",
"M  c #565F88",
"N  c #5D6385",
"B  c #64678A",
"V  c #726A87",
"C  c #77728B",
"Z  c #646D94",
"A  c #696F92",
"S  c #6B749E",
"D  c #6C7396",
"F  c #737794",
"G  c #757B9F",
"H  c #7A7794",
"J  c #6E76A0",
"K  c #737BA4",
"L  c #767FA9",
"P  c #B07A94",
"I  c #B175A2",
"U  c #B679A0",
"Y  c #BA7FAB",
"T  c #7B83AB",
"R  c #7880A6",
"E  c #7C85B1",
"W  c #7F88B3",
"Q  c #94828B",
"!  c #8B8497",
"~  c #B38E85",
"^  c #B38D8D",
"/  c #AE938C",
"(  c #B59088",
")  c #A58B93",
"_  c #A69298",
"`  c #B19D9A",
"'  c #8687A7",
"]  c #828BB5",
"[  c #868EB8",
"{  c #8B93BA",
"}  c #9097BD",
"|  c #959EA8",
" . c #BC83AC",
".. c #BE89AF",
"X. c #A898A8",
"o. c #BF86B1",
"O. c #BD89B0",
"+. c #9FA4BB",
"@. c #A4A4B5",
"#. c #C18782",
"$. c #CD9687",
"%. c #DD9F88",
"&. c #DF9990",
"*. c #C09D9C",
"=. c #D4A98D",
"-. c #D0AC94",
";. c #CEA891",
":. c #E7A08D",
">. c #E3AC9C",
",. c #EEB59F",
"<. c #E8BA99",
"1. c #F4B795",
"2. c #F8BE97",
"3. c #C087AE",
"4. c #C187B2",
"5. c #C48CB5",
"6. c #C78FB9",
"7. c #C991BB",
"8. c #C9BCB8",
"9. c #D4B8B1",
"0. c #FCC59B",
"q. c #CEC0BD",
"w. c #DAC7BB",
"e. c #F1CBA9",
"r. c #FED3AC",
"t. c #E1CBBB",
"y. c #F6D5B8",
"u. c #949CC4",
"i. c #9CA3C8",
"p. c #A5ABCC",
"a. c #A8AECF",
"s. c #A0A7CA",
"d. c #A7BEC3",
"f. c #ACB4CA",
"g. c #A8BDC1",
"h. c #BCBBC5",
"j. c #B3B1CB",
"k. c #A5ACD2",
"l. c #A8AFD3",
"z. c #ABB1D2",
"x. c #AFB6DA",
"c. c #B4BADB",
"v. c #B4BAD8",
"b. c #B0AFC8",
"n. c #A9C1C6",
"m. c #ADC4CA",
"M. c #B7C6CA",
"N. c #B5CCD2",
"B. c #BCC2DF",
"V. c #BDC8D2",
"C. c #BAD0D7",
"Z. c #BDD4DB",
"A. c #BFC4E1",
"S. c #C8C8C9",
"D. c #C1D6DC",
"F. c #C4D9DF",
"G. c #D1D4D5",
"H. c #C0C5DD",
"J. c #F2DFC8",
"K. c #FFECCF",
"L. c #F2E0C9",
"P. c #FEEBD5",
"I. c #FFF1DC",
"U. c #C1C6E1",
"Y. c #C5CAE3",
"T. c #C9CEE4",
"R. c #CDD2E6",
"E. c #C6DBE1",
"W. c #CBDDE2",
"Q. c #D1D5E8",
"!. c #D4D8E9",
"~. c #D0D4E7",
"^. c #E8D1E3",
"/. c #CFE0E5",
"(. c #D1E2E6",
"). c #D6E5E9",
"_. c #D9E7EA",
"`. c #DCE9EC",
"'. c #DFE3E5",
"]. c #E1ECEF",
"[. c #E0E3E5",
"{. c #FFFAEB",
"}. c #E3EEF0",
"|. c #E7F0F2",
" X c #EBF3F5",
".X c #FFFFF3",
"XX c #F5F9FA",
"oX c #FBFDFD",
"OX c #F1F7F8",
"+X c None",
/* pixels */
"+X+X+X+X+X+X+X+X+X+X+X+X+X+X+X+X+X+X+X+X+X+X+X+X+X+X+X+X+X+X+X+X+X+X+X+X+X+X+X+X+X+X+X+X+X+X+X+X+X+X+X+X+X+X+X",
"+X+X+X+X+X+X+X+X+X+X+X+X+X+X+X+X+X+X+X+X+X+X+X+X+X+X+X+X+X+X+X+X+X+X+X+X+X+X+X+X+X+X+X+X+X+X+X+X+X+X+X+X+X+X+X",
"+X+X+X+X+X+X+X+X+X+X+X+X+X+X+X+X+X+X+X+X+X+X+X+X+X+X+X+X+X+X+X+X+X+X+X+X+X+X+X+X+X+X+X+X+X+X+X+X+X+X+X+X+X+X+X",
"+X+X+X+X+X+X+X+X+X+X+X+X+X+X+X+X+X+X+X+X+X+X+XZ.+X+X+X+X+X+X+X+X+X+X+X+X+X+X+X+X+X+X+X+X+X+X+X+X+X+X+X+X+X+X+X",
"+X+X+X+X+X+X+X+X+X+X+X+X+X+X+X+X+X+X+X+X+X+X+XZ.Z.+X+X+X+X+XZ.Z.+X+X+X+X+X+X+X+X+X+X+X+X+X+X+X+X+X+X+X+X+X+X+X",
"+X+X+X+X+X+X+X+X+X+X+X+X+X+X+X+X+X+X+X+X+X+XZ.Z.Z.N.+X+X+XZ.Z.Z.m.+X+X+X+X+X+X+X+X+X+X+X+X+X+X+X+X+X+X+X+X+X+X",
"+X+X+X+X+X+X+X+X+X+X+X+X+X+X+X+X+XZ.Z.+X+XN.D.E.E.m.n.+XZ.E.W.Z.m.d.+X+XZ.Z.+X+X+X+X+X+X+X+X+X+X+X+X+X+X+X+X+X",
"+X+X+X+X+X+X+X+X+X+X+X+X+X+X+X+X+XZ.Z.Z.m.N.E.}.W.N.m.Z.Z.(.`.Z.m.m.+XZ.Z.Z.+X+X+X+X+X+X+X+X+X+X+X+X+X+X+X+X+X",
"+X+X+X+X+X+X+X+X+X+X+X+X+X+X+XZ.Z.Z.Z.Z.C.Z.E.}.OX).F.`.E.`. XZ.C.C.Z.Z.Z.Z.C.n.+X+X+X+X+X+X+X+X+X+X+X+X+X+X+X",
"+X+X+X+X+X+X+X+X+X+X+X+X+X+X+X+XZ.E.(.(.(.E.E.}.oX`.W.XXW.`.OXZ.Z.Z.Z.(.E.C.m.+X+X+X+X+X+X+X+X+X+X+X+X+X+X+X+X",
"+X+X+X+X+X+X+X+X+X+X+X+X+X+X+X+XC.F.)._.|._./.].oX`./.oX_.`.|.Z.Z.F.(. XW.N.m.+X+X+X+X+X+X+X+X+X+X+X+X+X+X+X+X",
"+X+X+X+X+X+X+X+X+X+X+X+X+X+X+X+Xn.N.Z.F. XOX|.}.XX`./.oX|.].).E.F.(.|.XX/.Z.Z.+X+X+X+X+X+X+X+X+X+X+X+X+X+X+X+X",
"+X+X+X+X+X+X+X+X+X+X+X+X+X+X+X+XC.Z.F._./.].XX].oX X_.E.`.(.W.`._. X X/.F.Z.+X+X+X+X+X+X+X+X+X+X+X+X+X+X+X+X+X",
"+X+X+X+X+X+X+X+X+X+X+X+X+X+X+XD./.(.(./.(.).)./.|.|._.Z._.(.E.}.OXOX|.).F.Z.+X+X+X+X+X+X+X+X+X+X+X+X+X+X+X+X+X",
"+X+X+X+X+X+X+X+X+X+X+X+X+X+XZ.Z.`.|.]./.)./.F.Z._._.W.Z.W.F.Z./. X X|. X_.E.Z.+X+X+X+X+X+X+X+X+X+X+X+X+X+X+X+X",
"+X+X+X+X+X+X+X+X+X+X+X+X+XZ.Z.Z._.OXXX`.E.(.).D._.D.m.Z.m.N.C.n./.`.|.oXoX}.Z.Z.+X+X+X+X+X+X+X+X+X+X+X+X+X+X+X",
"+X+X+X+X+X+X+X+X+X+X+X+X+Xn.n.m.Z._. XoX].(.D.D._./.F.].D.F.'.C.F.F.F.W.].].).Z.+X+X+X+X+X+X+X+X+X+X+X+X+X+X+X",
"+X+X+X+X+X+X+X+X+X+X+X+X+X+Xm.N.Z.(.|.OX'.F.F.].(.F.F.OXF.`.}.Z.Z./._.Z.W././.+X+X+X+X+X+X+X+X+X+X+X+X+X+X+X+X",
"+X+X+X+X+X+X+X+X+X+X+X+X+X+X+XZ.F./.(./.D.M.S.XXF.M.S.oXS.G.}.F.h.G.}.W.Z.C.N.+X+X+X+X+X+X+X+X+X+X+X+X+X+X+X+X",
"+X+X+X+X+X+X+X+X+X+X+X+X+X+X+XZ._./.N.n.N.` ( `.D.` ( }.( ` D.`.~ ` D.`.W.N.d.+X+X+X+X+X+X+X+X+X+X+X+X+X+X+X+X",
"+X+X+X+X+X+X+X+X+X+X+X+X+X+XZ.Z.F.F.N.g./ a t y y a ~ F.b a y y t a / m.C.Z.N.n.+X+X+X+X+X+X+X+X+X+X+X+X+X+X+X",
"+X+X+X+X+X+X+X+X+X+X+X+X+X+X+X+X+Xq.8.M.;.s 0 ! 9 p $.9.$.a 9 ! 0 a ;.g.8.q.+X+X+X+X+X+X+X+X+X+X+X+X+X+X+X+X+X",
"+X+X+X+X+X+X+X+X+X+X+X+X+X+X+X+X+X#.*.D.e.( C X.9 f ,.,.,.f r X.P Q <.| ^ ~ +X+X+X+X+X+X+X+X+X+X+X+X+X+X+X+X+X",
"+X+X+X+X+X+X+X+X+X+X+X+X+X+X+X+X+X9 C C.e.t.@.1 1 _ K.K.K._ 1 1 @.t.=.r q t +X+X+X+X+X+X+X+X+X+X+X+X+X+X+X+X+X",
"+X+X+X+X+X+X+X+X+X+X+X+X+X+X+X+X+X+X+XV >.t.f.K S h.{.{.{.h.S S f.t.=.q +X+X+X+X+X+X+X+X+X+X+X+X+X+X+X+X+X+X+X",
"+X+X+X+X+X+X+X+X+X+X+X+X+X+X+X+X+X+X+Xq n -.w.h.H.[..X.X.X'.S.h.w.-.n t +X+X+X+X+X+X+X+X+X+X+X+X+X+X+X+X+X+X+X",
"+X+X+X+X+X+X+X+X+X+X+X+X+X+X+X+X+X+X+XV 8 b <.y.K.I.I.I.I.P.P.J.,.b a V +X+X+X+X+X+X+X+X+X+X+X+X+X+X+X+X+X+X+X",
"+X+X+X+X+X+X+X+X+X+X+X+X+X+X+X+X+Xx.x.x.p./ v :.2.0.0.0.0.0.2.:.k ) s.x.x.x.+X+X+X+X+X+X+X+X+X+X+X+X+X+X+X+X+X",
"+X+X+X+X+X+X+X+X+X+X+X+X+X+X+X+Xx.U.R.T.B.j._ i i j v v m j i i _ j.U.R.Y.c.x.+X+X+X+X+X+X+X+X+X+X+X+X+X+X+X+X",
"+X+X+X+X+X+X+X+X+X+X+X+X+X+X+Xs.c.Y.R.R.R.B.j.Q 4 * 4 4 2 = 4 n b.A.Y.R.T.B.i.: +X+X+X+X+X+X+X+X+X+X+X+X+X+X+X",
"+X+X+X+X+X+X+X+X+X+X+X+X+X+X+X' v.U.Y.Y.B.U.B.v.w ; o o O ; w x.U.U.B.Y.U.f.G O +X+X+X+X+X+X+X+X+X+X+X+X+X+X+X",
"+X+X+X+X+X+X+X+X+X+X+X+X+X+X+X# { B.Y.Y.a.v.Y.U.B.F > > > D x.Z.Y.v.a.Y.c.K ; X +X+X+X+X+X+X+X+X+X+X+X+X+X+X+X",
"+X+X+X+X+X+X+X+X+X+X+X+X+X+XO - e ] v.f.v.U.Y.Y.U.p.G > G p.U.Y.Y.Y.H.l.Z 3 ; . . +X+X+X+X+X+X+X+X+X+X+X+X+X+X",
"+X+X+X+X+X+X+X+X+X+X+X+X+XX o ; > w R s.B.T.R.R.Y.A.p.D p.A.T.R.R.~.T.l.w > ; . . . +X+X+X+X+X+X+X+X+X+X+X+X+X",
"+X+X+X+X+X+X+X+X+X+X+X+X+X+ $ < ; < B l.H.R.!.!.Y.Y.Y.c.U.Y.T.!.!.!.R.v.Z 3 ; $ $ + +X+X+X+X+X+X+X+X+X+X+X+X+X",
"+X+X+X+X+X+X+X+X+X+X+X+X+X& * 5 $ B a.Y.Y.R.!.!.T.Y.Y.Y.Y.Y.T.!.!.!.Q.Y.d.N $ 5 * & +X+X+X+X+X+X+X+X+X+X+X+X+X",
"+X+X+X+X+X+X+X+X+X+X+X+X+X6 d =.n X.x.Y.R.~.!.!.T.Y.Y.Y.Y.T.Q.!.!.~.T.Y.c.X.n =.d 6 +X+X+X+X+X+X+X+X+X+X+X+X+X",
"+X+X+X+X+X+X+X+X+X+X+X+X+X+Xh m l X.c.Y.Q.~.~.!.R.T.Y.Y.R.R.Q.R.R.T.Y.Y.c.X.l m h +X+X+X+X+X+X+X+X+X+X+X+X+X+X",
"+X+X+X+X+X+X+X+X+X+X+X+X+X+X+Xu 2 ' x.Y.~.R.Y.~.!.R.Y.Y.R.Q.R.Y.Y.Y.Y.Y.c.I 1 u +X+X+X+X+X+X+X+X+X+X+X+X+X+X+X",
"+X+X+X+X+X+X+X+X+X+X+X+X+X+X+X+X+Xi.z.Y.Y.Y.Y.Y.Q.R.Y.Y.Y.Y.Y.Y.Y.Y.Y.Y.l.i.+X+X+X+X+X+X+X+X+X+X+X+X+X+X+X+X+X",
"+X+X+X+X+X+X+X+X+X+X+X+X+X+X+X+X+X+Xa.z.c.A.Y.Y.Y.Y.Y.A.Y.Y.Y.Y.Y.A.c.l.p.+X+X+X+X+X+X+X+X+X+X+X+X+X+X+X+X+X+X",
"+X+X+X+X+X+X+X+X+X+X+X+X+X+X+X+X+X+XT } i.x.A.A.A.A.A.A.A.B.B.B.A.z.u.{ T +X+X+X+X+X+X+X+X+X+X+X+X+X+X+X+X+X+X",
"+X+X+X+X+X+X+X+X+X+X+X+X+X+X+X+X+XZ S W [ i.l.z.k.k.k.i.s.k.z.z.k.u.E E S Z +X+X+X+X+X+X+X+X+X+X+X+X+X+X+X+X+X",
"+X+X+X+X+X+X+X+X+X+X+X+X+X+X+X+X+XZ S W [ { { { W W T M R [ { } ] E E E Z M +X+X+X+X+X+X+X+X+X+X+X+X+X+X+X+X+X",
"+X+X+X+X+X+X+X+X+X+X+X+X+X+X+X+X+X+XS S E [ { { W E K M K [ { { W E L J Z +X+X+X+X+X+X+X+X+X+X+X+X+X+X+X+X+X+X",
"+X+X+X+X+X+X+X+X+X+X+X+X+X+X+X+X+X+X+XZ S S K R J J R i.T R R K J J J Z +X+X+X+X+X+X+X+X+X+X+X+X+X+X+X+X+X+X+X",
"+X+X+X+X+X+X+X+X+X+X+X+X+X+X+X+X+X+X+XB V F F F A N ! oX' C H F F C A B +X+X+X+X+X+X+X+X+X+X+X+X+X+X+X+X+X+X+X",
"+X+X+X+X+X+X+X+X+X+X+X+X+X+X+X+X+X+X+X0 =.y.L.L.>.d n oXf h >.J.J.y.;.r +X+X+X+X+X+X+X+X+X+X+X+X+X+X+X+X+X+X+X",
"+X+X+X+X+X+X+X+X+X+X+X+X+X+X+X+X+X+X+X% m 2.r.r.m 6 8 oX8 6 b r.r.2.m % +X+X+X+X+X+X+X+X+X+X+X+X+X+X+X+X+X+X+X",
"+X+X+X+X+X+X+X+X+X+X+X+X+X+X+X+X+X+X+X7 z =.1.1.h 7 g ^.4 = h 1.1.%.d   +X+X+X+X+X+X+X+X+X+X+X+X+X+X+X+X+X+X+X",
"+X+X+X+X+X+X+X+X+X+X+X+X+X+X+X+X+X+X+X7.l P &.&.l P 7.7.1 4 l &.&.P u % +X+X+X+X+X+X+X+X+X+X+X+X+X+X+X+X+X+X+X",
"+X+X+X+X+X+X+X+X+X+X+X+X+X+X+X+X+X+X+X7.5. .U U 3.6.7.7.O.O...U U  .3. .+X+X+X+X+X+X+X+X+X+X+X+X+X+X+X+X+X+X+X",
"+X+X+X+X+X+X+X+X+X+X+X+X+X+X+X+X+X+X+XY 5.5.4.4.6.4. .+X .4.6.4.4.6.6. .+X+X+X+X+X+X+X+X+X+X+X+X+X+X+X+X+X+X+X",
"+X+X+X+X+X+X+X+X+X+X+X+X+X+X+X+X+X+X+XI 3.3.3.3.4.Y +X+X+XY 4.4.o.o. .I +X+X+X+X+X+X+X+X+X+X+X+X+X+X+X+X+X+X+X",
"+X+X+X+X+X+X+X+X+X+X+X+X+X+X+X+X+X+X+X+XI I I I I +X+X+X+X+XI I I I U +X+X+X+X+X+X+X+X+X+X+X+X+X+X+X+X+X+X+X+X",
"+X+X+X+X+X+X+X+X+X+X+X+X+X+X+X+X+X+X+X+X+X+X+X+X+X+X+X+X+X+X+X+X+X+X+X+X+X+X+X+X+X+X+X+X+X+X+X+X+X+X+X+X+X+X+X",
"+X+X+X+X+X+X+X+X+X+X+X+X+X+X+X+X+X+X+X+X+X+X+X+X+X+X+X+X+X+X+X+X+X+X+X+X+X+X+X+X+X+X+X+X+X+X+X+X+X+X+X+X+X+X+X",
"+X+X+X+X+X+X+X+X+X+X+X+X+X+X+X+X+X+X+X+X+X+X+X+X+X+X+X+X+X+X+X+X+X+X+X+X+X+X+X+X+X+X+X+X+X+X+X+X+X+X+X+X+X+X+X",
"+X+X+X+X+X+X+X+X+X+X+X+X+X+X+X+X+X+X+X+X+X+X+X+X+X+X+X+X+X+X+X+X+X+X+X+X+X+X+X+X+X+X+X+X+X+X+X+X+X+X+X+X+X+X+X"
};
