/* XPM */
static char *result[] = {
/* columns rows colors chars-per-pixel */
"55 57 246 2 ",
"   c #57341B",
".  c #4C2B1B",
"X  c #6A3C18",
"o  c #743D1C",
"O  c #7B3D1A",
"+  c #743B16",
"@  c #743C08",
"#  c #4F382A",
"$  c #4E3725",
"%  c #553324",
"&  c #593424",
"*  c #53342C",
"=  c #5A322B",
"-  c #51382B",
";  c #533432",
":  c #5D3D33",
">  c #5B3133",
",  c #59302F",
"<  c #6C3D23",
"1  c #643B2C",
"2  c #6D3D2D",
"3  c #65362B",
"4  c #743D23",
"5  c #7A3C24",
"6  c #733D2B",
"7  c #7B3D2A",
"8  c #7A3721",
"9  c #6D3E34",
"0  c #663C37",
"q  c #733D36",
"w  c #7E383A",
"e  c #54132D",
"r  c #6E410C",
"t  c #7B430D",
"y  c #73490C",
"u  c #7E520A",
"i  c #6C441C",
"p  c #734414",
"a  c #75421C",
"s  c #7B431E",
"d  c #7C4B1A",
"f  c #7F5A1E",
"g  c #5D4A37",
"h  c #5B4D2E",
"j  c #6B4322",
"k  c #674B24",
"l  c #66432C",
"z  c #6B422C",
"x  c #664729",
"c  c #744323",
"v  c #794525",
"b  c #764A24",
"n  c #7C4A23",
"m  c #72422C",
"M  c #7B422B",
"N  c #7D4B2B",
"B  c #754A28",
"V  c #644333",
"C  c #6B4334",
"Z  c #624935",
"A  c #66463A",
"S  c #6A453C",
"D  c #64493C",
"F  c #69493C",
"G  c #684935",
"H  c #734231",
"J  c #7B4333",
"K  c #7D4E3C",
"L  c #764837",
"P  c #7A513A",
"I  c #765637",
"U  c #7E5128",
"Y  c #673F46",
"T  c #7C3442",
"R  c #583241",
"E  c #5D4F42",
"W  c #564F40",
"Q  c #5F5144",
"!  c #6D4340",
"~  c #674C41",
"^  c #7D4D43",
"/  c #7A4C47",
"(  c #755244",
")  c #785245",
"_  c #7D5649",
"`  c #7E594B",
"'  c #785845",
"]  c #803E12",
"[  c #823F2B",
"{  c #864D0B",
"}  c #86490B",
"|  c #82530C",
" . c #89540B",
".. c #854B18",
"X. c #8C561B",
"o. c #85591C",
"O. c #8A5719",
"+. c #93591C",
"@. c #945918",
"#. c #935007",
"$. c #986617",
"%. c #AF7616",
"&. c #84442D",
"*. c #884A28",
"=. c #924D2C",
"-. c #9B4C2A",
";. c #8D5625",
":. c #865923",
">. c #84542B",
",. c #8B542C",
"<. c #8B5A26",
"1. c #93532C",
"2. c #965827",
"3. c #8D4D35",
"4. c #8D4D3A",
"5. c #85483A",
"6. c #914D34",
"7. c #914A3B",
"8. c #975734",
"9. c #8A5236",
"0. c #A15833",
"q. c #996628",
"w. c #966336",
"e. c #A76926",
"r. c #A87729",
"t. c #B57525",
"y. c #B7782B",
"u. c #A96335",
"i. c #AD6B34",
"p. c #AB653D",
"a. c #AE6A3B",
"s. c #A56638",
"d. c #B16A3C",
"f. c #B0683A",
"g. c #AA7839",
"h. c #B37B34",
"j. c #B87A37",
"k. c #B06E2B",
"l. c #C67E1F",
"z. c #C67B39",
"x. c #843C43",
"c. c #884B44",
"v. c #825646",
"b. c #815945",
"n. c #83564A",
"m. c #81584A",
"M. c #825652",
"N. c #954E42",
"B. c #A25E4B",
"V. c #AA6543",
"C. c #AC6A43",
"Z. c #AC634B",
"A. c #A66845",
"S. c #B16543",
"D. c #B26942",
"F. c #B0664A",
"G. c #AA7443",
"H. c #B67A44",
"J. c #AE6952",
"K. c #9E6848",
"L. c #B5832D",
"P. c #BC852E",
"I. c #BA8828",
"U. c #B9843A",
"Y. c #B78537",
"T. c #B38737",
"R. c #B98015",
"E. c #EBB41C",
"W. c #C99525",
"Q. c #DB9529",
"!. c #C48E31",
"~. c #CA8838",
"^. c #CA9536",
"/. c #DA9F3A",
"(. c #D69836",
"). c #CC8C29",
"_. c #E49B3C",
"`. c #D6A33C",
"'. c #DAA13B",
"]. c #DCAB38",
"[. c #DCAC30",
"{. c #EDAD2B",
"}. c #EFAD25",
"|. c #F1AC2D",
" X c #F5A827",
".X c #EBB32D",
"XX c #EAB22A",
"oX c #F5B22C",
"OX c #F0B424",
"+X c #EDAA34",
"@X c #ECAC3B",
"#X c #E5A93A",
"$X c #F3AB34",
"%X c #F4AC3C",
"&X c #F1A636",
"*X c #EBB433",
"=X c #EBB23B",
"-X c #E7B536",
";X c #F3B234",
":X c #F3B23B",
">X c #F6BA38",
",X c #F8C939",
"<X c #FCD435",
"1X c #FCD63B",
"2X c #FBDB3C",
"3X c #F7D83A",
"4X c #F5D032",
"5X c #FED31C",
"6X c #AE8242",
"7X c #B68444",
"8X c #C78646",
"9X c #DA9D44",
"0X c #DB9D4C",
"qX c #D49A46",
"wX c #CB9551",
"eX c #E29C41",
"rX c #E29C4A",
"tX c #DBA646",
"yX c #D1A54A",
"uX c #E4AA44",
"iX c #EBAD43",
"pX c #EBAE4B",
"aX c #E4A648",
"sX c #F3AE44",
"dX c #F5AD47",
"fX c #ECB244",
"gX c #ECB14D",
"hX c #E7B649",
"jX c #F1B34A",
"kX c #F5B342",
"lX c #EAAA52",
"zX c #F1AE57",
"xX c #ECB456",
"cX c #F2B457",
"vX c #DFAE6E",
"bX c #EFCA4C",
"nX c #ECC446",
"mX c #FCD543",
"MX c #F9D646",
"NX c #F3CD53",
"BX c #F6C758",
"VX c #F9D357",
"CX c #F2C746",
"ZX c #FDC564",
"AX c #F2C890",
"SX c None",
/* pixels */
"SXSXSXSXSXSXSXSXSXSXSXSXSXSXSXSXSXSXSXSXSXSXSXSXSXSXSXSXSXSXSXSXSXSXSXSXSXSXSXSXSXSXSXSXSXSXSXSXSXSXSXSXSXSXSX",
"SXSXSXSXSXSXSXSXSXSXSXSXSXSXSXSXSXSXSXSXSXSXSXSXSXSXSXSXSXSXSXSXSXSXSXSXSXSXSXSXSXSXSXSXSXSXSXSXSXSXSXSXSXSXSX",
"SXSXSXSXSXSXSXSXSXSXSXSXSXSXSXSXSXSXSXSXSXSXSXSXSXSXSXSXSXSXSXSXSXSXSXSXSXSXSXSXSXSXSXSXSXSXSXSXSXSXSXSXSXSXSX",
"SXSXSXSXSXSXSXSXSXSXSXSXSXSXSXSXSXSXSXSXSXSXSXSXSXSXSXSXSXSXSXSXSXSXSXSXSXSXSXSXSXSXSXSXSXSXSXSXSXSXSXSXSXSXSX",
"SXSXSXSXSXSXF F F F F F A F F F A F F F F F F F F F D D D D D ~ ~ ~ ~ ~ ~ Q Q Q Q Q E E E E g SXSXSXSXSXSXSXSX",
"SXSXSXSXSXSXS V C V C V V V z V V l V V l C l G V l V Z Z l l Z l G Z G G Z g V Z Z Z g g D Z h h SXSXSXSXSXSX",
"SXSXSXSXH q Y H N c M N b d d J b b B B B B B B b b b d d a b b b U >.>.>.o.>.3.,.X.:.U 9.&.;.o...O SXSXSXSXSX",
"SXSXSXSXC v %.>XoX>XjXgX-X-XoXBXmX3X3X2X3X2X2XmXmX3XCXgXhXfXiXfXfXfXgXfXfX=XdXdXkX=X#XfXgXjX:XhXtXg.SXSXSXSXSX",
"SXSXSXSXq a ).;X{.+X_.aXtXuX#XcXNXbXbXbXbXbXbXNXVXNXjXgXgXgXpXgXpXgXgXpXgXfXzXjXdX=XhXxXxXiX;X[.gX~.m SXSXSXSX",
"SXSXSXSX2 n Q.+XsXl.#...{ { u ..{ u | u u u | |  .| | {  .{ { { { { { { { { ..} { { | {  .#.Q..X=X(.s SXSXSXSX",
"SXSXSXSX2 v (.uXxXh.5 9 x x j 3 2 C z 2 2 2 z 2 l z z z z C z 2 2 z 2 1 C l 0 0 9 j l V C 4 wX-X X(.s SXSXSXSX",
"SXSXSXSXz b (.-XgXr.< : # $ . * % % %   %   & & & & - * * * * * * * = * * * ; ; * % # ; : X wX@X%X~.M SXSXSXSX",
"SXSXSXSX9 n Q.@XpXk.4 0 , * % > * ; ; * * * ; ; ; ; * & % & & = & % & & & * = = %   * = 1 X ^.@XiX~.M SXSXSXSX",
"SXSXSXSX2 *.Q.&XiXt.p 3 % % % , * * * ; ; ; ; ; ; ; & & & & & & & & & , & = , = & & * > 3 + (.iXdXz.7 SXSXSXSX",
"SXSXSXSX2 ..Q.|.sXt.t 3       , * * * * - - * - * * * = = = = = = = = & = = = , = % , > 0 + ).fXpXz.c SXSXSXSX",
"SXSXSXSX6 N ~.@XgXr.a : * * * R * & & % & & & & & & % # # # # # # # # # # # * * $ # ; ; : p !.-XiXy.a SXSXSXSX",
"SXSXSXSX9 v !.+XiXt.z x V q 0 E V V A 0 V V V V V A V g 0 g 0 V V V A g 0 g V V A 0 g 1 S 4 ^.+XdXy.c SXSXSXSX",
"SXSXSXSXq v !.+XsXt.m k ! Y Y A S S F F S S ! S S ! S S ! S A ! S F ! A ! ! A S ! A l 0 C 6 !.@XiXy.o SXSXSXSX",
"SXSXSXSXC v !.+XkXt.M k S ! q ~ A F S S S S F S S S S S S S ! A F S S F A ! V S ! S x F C 6 !.@XdXk.a SXSXSXSX",
"SXSXSXSXC v !.+X%Xt.6 x S ! S D A A F A A F D A A A D D D D A D A A A A A E A S ! ~ x C C 6 P.=XdXk.c SXSXSXSX",
"SXSXSXSXq b !.&XsXt.m k S Y L S A A A A A F A A A A F A A A A F A A A A S S C S ! S x F C M P.fXpXe.< SXSXSXSX",
"SXSXSXSXC v !.&XsXt.6 k L Y q A F F F A F F F S F F F A D F F F A A G A A S C A S S l F A 2 I.fXpXe.< SXSXSXSX",
"SXSXSXSX9 v P.%XkXy.m k A 0 0 Z V V g 0 V V V g 0 V V g 0 g V V : : : : g 1 1 1 0 0 & l 0 2 L.fXaXe.i SXSXSXSX",
"SXSXSXSX6 c L.%XkXt.m   & 3 3 $ % % % % % % % % % % % % % % % % % % % % % %   & = &   % 1 6 Y.fXuXq.j SXSXSXSX",
"SXSXSXSXSXv y.%XdXy.2 I ) _ _ ( ( ) ) ) ) ) ) ) ) ) ) ) ) ) ) ) ( ( ( ) ) ) P ) ( ( I ( S z L.hXaX+.1 SXSXSXSX",
"SXSXSXSXSXv L.@XdXy.2 I n.M._ ' ` _ _ ` _ _ ` ` _ _ _ _ _ _ _ _ ` ` _ _ _ _ ' _ ` _ ' _ ( 1 L.hXuX+.j SXSXSXSX",
"SXSXSXSXz c y.gXzXj.4 I _ _ n.` ' b.v.m.m.m.m.m.v.v.n.M.n.` m.m.M.M.M.M.` n.n.n.M.n.v.v.^ < G.xX0X8.l SXSXSXSX",
"SXSXSXSXl a q.7X7X2.a L P P ^ 5.P P P P P K P 5.P K c./ ^ P P ) c./ / / ( / 5.K K 5.K K J 4 w.6XH.N V SXSXSXSX",
"SXSXSXSXx 4 p p a a < l l V C C C G C C C C z z m z m 4 a a a p a c a a a C z j j j z B < j i r t + C SXSXSXSX",
"SXSXSXSXz N O.X.;.*.:.o.f o.:.;.,.,.>.<.;.:.:.;.;.;.;.;.,.,.,.;.X.O.O.O.O.<.o.o.o.o.:.,.>.:.o. .+.*.C SXSXSXSX",
"SXSXSXSXz 8.qXtX0X0X9X`.`.`.9XrX0X0X0X9X/./.'.'.9X9X/.`.tX0X0X0X9X`.tXqX0XqX9X9X/.9XtX0X0X0XtX`.qX8.C SXSXSXSX",
"SXSXSXSX2 8.#XdX&XdX$X{.XX{.|.%X&X$X&X|.|.|.|.|.&X&XXXE.}.+X%X+X.X#X-XiXiXiX@X@X@X%XiXzXiXiX&X@XtX1.1 SXSXSXSX",
"SXSXSXSXz 8.(.Q.Q.$XoXoX;X:X$XdX%X;X$X;X;X;X;X;X%X&X:X*X&X&X%X%X$X.X.X*X@XsX%X%X%XkXsXsX:X+X}.-XtX<.0 SXSXSXSX",
"SXSXSXSX< c d  .!.gXhXU.g.G.G.H.j.7X7X6X6X6X7Xg.j.h.H.H.z.z.z.z.j.U.7X~.~.j.T.h.g.g.g.r.^.nX,XMXuX:.S SXSXSXSX",
"SXSXSXSXx m i r.hX-XhX<.< 2 6 o o c c m B a p ..q.t.T.L.).%.%.#.t c 6 5 O p d a a 4 a r T.NX4XbXyXd ! SXSXSXSX",
"SXSXSXSXl j w.VXMX,X>Xq.6 L J s v M M 6 M s d wXaXkXq.p r.%X&X~.d m H M &.4 M M J J M @ T.VX3XMX^.s ~ SXSXSXSX",
"SXSXSXSXl b 7XMX<X5X<XT.7 J 5...=.3.&.3.&.] } rX&X X+ . + eX#X^.t z N >.;.3.4.5.5.5.5 r yXMX<X2XI.i g SXSXSXSX",
"SXSXSXSXz c T.2X<X3XMXyX+ 7 4.u.a.p.C.V.8...] P.#X{.O e + #X[.%.} 6.A.a.e.i.D.S.s.>.m  .hX<XMXNXr.r h SXSXSXSX",
"SXSXSXSXSXc r.2X3X1XMXtXs M 7.d.d.d.C.C.A.8.O 2.qXpXP.$.I.-X^. ...B.J.C.i.g.C.F.V.U c @.BX4XnXyXu a SXSXSXSXSX",
"SXSXSXSXSXc w.2X<X1X1XnXd 4 4.D.D.d.a.p.A.K.*.o 2.z.tX].`.U.2.s 3.Z.Z.a.u.a.d.S.s.N o q.ZX.XyXq.v m SXSXSXSXSX",
"SXSXSXSXSXj <.1X<X1X1XNX;.5 3.V.S.d.S.d.C.J.B.&.O *.2.$.+.&.5 4.B.f.e.i.u.p.S.S.0.N X h.xX@Xr.p M 0 SXSXSXSXSX",
"SXSXSXSXSXC ,.4X2X2X1XVXq.v &.8.-.0.0.-.8.8.8.7.[ [ 8 8 w T x.N.-.+.+.-.2.-.-.-.6.N X U.xX^.u K.J 0 SXSXSXSXSX",
"SXSXSXSXSXC v *XmXmXmXVXG.4 4 1.-.-.-.2.2.1.=.3.6.=.3.7.7.6.=.=.=.=.7.N.N.=.-.-.&.c y ^.zX^.ZXAXN z SXSXSXSXSX",
"SXSXSXSXSXC a [.>X,X,X].<.4 c A.S.S.f.f.i.p.p.C.p.p.p.V.p.u.u.i.p.Z.Z.B.Z.V.u.S.6.M u tXuXvXvXvXa x SXSXSXSXSX",
"SXSXSXSXSXG 7 W.-X*X.Xr.4 M 4 8.C.F.D.d.a.d.D.C.p.a.i.i.i.k.i.f.V.Z.D.D.a.C.d.D.6.2 u ].kXiXcXwXa z SXSXSXSXSX",
"SXSXSXSXSXV 7 ).fX@X=X$.4 q 6 w.p.a.d.d.a.D.D.D.a.i.d.d.i.i.f.d.d.d.a.k.k.A.d.D.4.2 $.#X+XkXgX7XX z SXSXSXSXSX",
"SXSXSXSXSXF 6 R.iXjXiXr.5.< M 1.s.i.d.d.D.V.F.S.d.a.D.S.F.F.S.d.d.d.S.F.Z.C.u.V.5.6 %.XXoX|..XH.m L SXSXSXSXSX",
"SXSXSXSXSXSX6 e.pX:X{.sXwX*.v N 3.9.9.3.3.7.4.4.4.6.3.4.3.7.3.3.3.3.3.4.4.4.7.c.7 + !.fX*X:X@Xw.z Z SXSXSXSXSX",
"SXSXSXSXSXSXm $.uX.XE.+XcXe.t p a s a a v a a o a a o s o s O a a O O s + p o O O } ^.@X.X.X#X2.j h SXSXSXSXSX",
"SXSXSXSXSXSXc @.tX+XOX{.iX(.P.T.U.U.U.U.U.U.U.U.Y.Y.U.U.Y.Y.U.P.U.U.Y.Y.U.I.Y.U.j.!.-X*X.X-X#X;.2 g SXSXSXSXSX",
"SXSXSXSXSXSX5 @.9X%X|.$X+XsXiXfX;XoXoXoX|.oXoXoXoXoXoXoXoXoXoXoXoXoXoXoX}.*XsXjXiXiX*X.X*X;XQ.;.1 g SXSXSXSXSX",
"SXSXSXSXSXSX[ X.8XrX_._.eXeXeX/.`.`.'./.'.'./.'./.'.'.'././././.'./.'././.#X'._.9XeX#X'././.~.&.V g SXSXSXSXSX",
"SXSXSXSXSXSXz c >.<.+.@.+.+.O.@.<.1.;.;.;.;.1.;.1.;.;.1.;.1.;.2.;.;.2.;.2. .@.+.X.X.+.+.@.<.;.z g W SXSXSXSXSX",
"SXSXSXSXSXSXD l l j b j i i i i H q q q q q q q q q q q q q q q q q q q q i i k j k k i i j l D g SXSXSXSXSXSX",
"SXSXSXSXSXSXSXSXSXSXSXSXSXSXSXSXSXSXSXSXSXSXSXSXSXSXSXSXSXSXSXSXSXSXSXSXSXSXSXSXSXSXSXSXSXSXSXSXSXSXSXSXSXSXSX",
"SXSXSXSXSXSXSXSXSXSXSXSXSXSXSXSXSXSXSXSXSXSXSXSXSXSXSXSXSXSXSXSXSXSXSXSXSXSXSXSXSXSXSXSXSXSXSXSXSXSXSXSXSXSXSX",
"SXSXSXSXSXSXSXSXSXSXSXSXSXSXSXSXSXSXSXSXSXSXSXSXSXSXSXSXSXSXSXSXSXSXSXSXSXSXSXSXSXSXSXSXSXSXSXSXSXSXSXSXSXSXSX"
};
