/* XPM */
static char *result[] = {
/* columns rows colors chars-per-pixel */
"55 63 77 1 ",
"  c #261E2C",
". c #2A1F2F",
"X c #271F31",
"o c #2C1E31",
"O c #311E34",
"+ c #381C32",
"@ c #311F39",
"# c #391E3D",
"$ c #27212E",
"% c #29202D",
"& c #272032",
"* c #2D2133",
"= c #282B34",
"- c #2D253B",
"; c #2D2C3C",
": c #312236",
"> c #3A2337",
", c #34233B",
"< c #39253E",
"1 c #342A3C",
"2 c #3A2A3E",
"3 c #263135",
"4 c #2C333B",
"5 c #33303C",
"6 c #43203E",
"7 c #352541",
"8 c #3B2441",
"9 c #342C42",
"0 c #3D2B43",
"q c #3E2E4A",
"w c #2F3140",
"e c #2D3C40",
"r c #353345",
"t c #3E3244",
"y c #303D43",
"u c #3E334A",
"i c #3D3C4C",
"p c #432443",
"a c #412C46",
"s c #482B47",
"d c #432D49",
"f c #4B2D4E",
"g c #423247",
"h c #45334C",
"j c #49354E",
"k c #453A4E",
"l c #4A394F",
"z c #462A50",
"x c #4A2F53",
"c c #532E55",
"v c #542D59",
"b c #463551",
"n c #4B3552",
"m c #453952",
"M c #4B3952",
"N c #4F3F59",
"B c #513353",
"V c #513853",
"C c #523459",
"Z c #2E4042",
"A c #4F4455",
"S c #494A56",
"D c #514455",
"F c #54455B",
"G c #534B5D",
"H c #56505D",
"J c #60475C",
"K c #5B4E63",
"L c #575363",
"P c #5B5264",
"I c #525D63",
"U c #5C5C67",
"Y c #555268",
"T c #5C5B69",
"R c #614D64",
"E c #665B6C",
"W c None",
/* pixels */
"WWWWWWWWWWWWWWWWWWWWWWETTTTTWWWWWWWWWWWWWWWWWWWWWWWWWWW",
"WWWWWWWWWWWWWWWWWWWWRRKKKKKLLKRPYYYKRWWWWWWWWWWWWWWWWWW",
"WWWWWWWWWWWWWWWWWWAgp6p8<8<86<6<<788pBJWWWWWWWWWWWWWWWW",
"WWWWWWWWWWWWWWWRKM07#8#8888888887777@8hFWWWWWWWWWWWWWWW",
"WWWWWWWWWWWWWUGD088ddhdhhnbhhbnbnnbnt9,0lPWWWWWWWWWWWWW",
"WWWWWWWWWWWULDg,@8dnnnMMnnnnnnbxnbbbmu0,<hGIWWWWWWWWWWW",
"WWWWWWWWWWUGA1,,qhnhbbMnnnnbnbnnnbbnbnht17uSLWWWWWWWWWW",
"WWWWWWWWWGl0,<dxnnjbnnnMMnnbnnbxbnhbMbbhh0<-kGWWWWWWWWW",
"WWWWWWWWWj888znnhhjlnljlhhhhhhjbnbjnMnbnbbd87dGWWWWWWWW",
"WWWWWWWq8#pfxmmmlljljhg0002<2880qddzhnMnnbnxdp77WWWWWWW",
"WWWWWW778fxnCmmimlgga2:::OOOO@@@,,0aghhhnnnvnz0,-WWWWWW",
"WWWWW77qbnnnmbbmga2:OO:::::::::ooo::<70dhMNcxnh0-rWWWWW",
"WWWWW7qmndbnmmuu01:++*:::OOO::*:%:>:::,2gjMnjnjq-wWWWWW",
"WWWWqnNMbqkkkg0<****:::*O%O.oo%%%%=:..*110gnjlnh7;iWWWW",
"WWWdxnnhbmggt2:++:*:%:.+%..+ %%%%%%%+%:::,0dlVDDk7wWWWW",
"WWOpfBnhkmit0>++%%O:+......  %$$%%%%%%%**:-0slj6h0;yWWW",
"WW=0BnxjnMt2:::::::%... oo..o. %%%%%..oo***:6illCb8ruWW",
"WW3gnBjnnj0<:%:**%%%...o  ...+..%..o ...*:%.566DMcz9rWW",
"W51hnnnjha,:::::*.%..  .o...%%.%....  o %O:::56lxnCqweW",
"W10jBnnja<:::::%....  .. o..%.....*.  ..%%%:=56lxnCqweW",
"t<sjnnnj0,:o+....................o%....*%::::>56BxBm9eW",
"t<fBjnnd2,:O........%%*%.%....%o%o* ...%:%%O::56nxxm94W",
"0#cBnnnd<,oo..%......o%o.%....*.o%%o...*%%:O%O:2bxcbr;4",
",8BBdjb0::*o... .....%o%%o......%o.%o%.%...OO:::nnxbb14",
"70vnbnh0::*.... .%..%o%oo%%*.......o%...oooo::%>hnmxb9w",
"7dbnbhh<*:%...%%.o%..%o.%oo....%..o%%o..  o+%:%:dnCxm0;",
"0mbbjlg,O::%  .%..%.*.o%o%o%........*.... .oO%%10nnxnq1",
"zmbmMja:O:O% .  .%.....%%o%o..*..o.. ..*.o.O%:%:0nnCnh<",
"hmmhMla:*:%%. %%.%......%o%o..............ooo***0nnnCd<",
"MnkMnj0:::%%  ......*%..o%o%.%*........o. oo*-*-0hnjmb0",
"MnhnMna:*:   ..%%.*.%o%o%o%o.%........o o  X&*::<gMjnd0",
"BMbnMh0:%:%   ......o%o%o%............oo o X&*,*0dnhnb0",
"nnknMf0:**%  ..........%..*.%o%o%o%o%o%o .oXX*-O<gMjjhq",
"nnbnMd8*:*%   .....%*.......o%o%o%o%o%o%.. XXX:o<gnjjh0",
"njhnCd7:*%$  ..%.*o% .*.....%o%%.%%*o%o. . X*X:-<gjhjj0",
"hnmnMd,::*%  ...%o%o....%..%o%oooo. %o%%..XXXX:o<dMjnh0",
"Mhnnn0,o*. % .%.....o%o%o%o%o%o%%oo%o%.o%&X&X*-@<tnlMng",
"njbnnp,o*.%%%.....%.%o%o%o%o%o%oo%%o%o *ooo&X--O<dnMjbd",
"hljjn0@@:.%%%..%*.o%o%o%o%o%o ..%%o%o%o%%oX*X**O,gMjnjd",
"hMnnn0,O*.%%%...%o%o%o%o%o%o%*o%%o%o%o%oo%&&X*::<gjjlnd",
"hnnnnq,:*.%%%......%...%%o*%o%o%........%oXXX*-*<dhlnht",
"jhnnn8,o*.%%%....*........ o%o%oo.......o%oXX*-:,gjjhnd",
"jhfnn0,:*.%%......%o*...o%o%o%o%%oo.....%* XXoo@<dljnn0",
"jjnnn8:*%%%..o..o%o%...%%o%o%o%o.%......o  oo-*o:ghjjhd",
"jfBln1::%.%...oo....%o%ooo%o%..%*.......o  XoX@o,0hjjjd",
"fjjBn<::%.%..oo.o%..*%o%%%o%.......%....oooXXo@o,0mjjnd",
"jjjnh<::o%....o.o.%o .%o%o%o..........o  o oo-o@,thjnbd",
"fBnjj<o:*o.....O.%o%o.o%o%o%.*....*.. ooo  oX**X,0jjjnd",
"jVBjj<O*%%%....o........%o%...* ..%..*..o  Xooo@@0jjjnh",
"jBBjh<:*%...............o%* *....%......o o Xo@o-0kjhMd",
"jjBBd<::+%%..O.Oo....o..%o%o.....*..%..% o ooo@o,0hhjnd",
"jBjjg,O:%.%%....o...%...o%o%..%.....o...oo XXoo@,qnjjnd",
"jjcnd,O*+ % %%+ .o%.o%o%%o%oo%o%o%o%%o%oo .Xo***,dMjhja",
"snnjd,:*%%% +%  .%o.%o%o..o%%o%o%o%.o%o%.. oX-*-1gljhha",
"hjBjd,O*   . %%+....%..o..%oo%o%o% o..%o.  ooX*,<gljjh8",
"hBBxq,:*+.%.%.  o%.*%%*%.$*%%&%$$**%%$*$..XXoo*,,kMjnd8",
"gMCn0@-:oo*o% % %$$$. X$$$$&  X$$$&$  o X &  .**,uMbnh7",
"sMvnq:@O*o..%%%+%*$*..o* *&$. ooX%$*oo. oo& ..**1gjnnd8",
"dnCB0,:+oo..%%% .oooo...o..ooo.. .. o   .....:::0gjnns8",
"dcvBa#,:OO.+.%+ ..o.oooooo.ooooooo..ooooo....oO:2hnjns8",
"zxvna#::OO+....+.o.o.Ooo.oo.oo..ooooooooooo oo+*agVljs>",
"pxxf0+:,OO....  ..ooo.o..oooo.ooooooo  o   oo+:,ajlVja<",
"0mnkt***%     . .    .  .   . .  .    o o .  .o:16Zg651"
};
