/* XPM */
static char *result[] = {
/* columns rows colors chars-per-pixel */
"75 96 104 2 ",
"   c #120F0A",
".  c #16130E",
"X  c #18150F",
"o  c #1A1714",
"O  c #1D1915",
"+  c #1E1D19",
"@  c #231D16",
"#  c #231E19",
"$  c #24221D",
"%  c #2A241D",
"&  c #2F281F",
"*  c #32261E",
"=  c #33281C",
"-  c #262421",
";  c #2B2621",
":  c #2E2A24",
">  c #2E2D29",
",  c #302724",
"<  c #332C25",
"1  c #382E26",
"2  c #342E29",
"3  c #392F29",
"4  c #373026",
"5  c #3A3127",
"6  c #36312B",
"7  c #3C332B",
"8  c #3F382C",
"9  c #373531",
"0  c #3B3632",
"q  c #3D3A35",
"w  c #3E3D39",
"e  c #423327",
"r  c #41362C",
"t  c #44392E",
"y  c #4B3C2E",
"u  c #503F2F",
"i  c #423730",
"p  c #443B32",
"a  c #4B3E32",
"s  c #413E39",
"d  c #4B3F38",
"f  c #503F31",
"g  c #50412F",
"h  c #4D4135",
"j  c #45423C",
"k  c #4C433B",
"l  c #524235",
"z  c #594A37",
"x  c #54453A",
"c  c #58473B",
"v  c #55493D",
"b  c #594A3D",
"n  c #464541",
"m  c #4A4642",
"M  c #4D4944",
"N  c #4E4D49",
"B  c #544C44",
"V  c #5A4C41",
"C  c #534E4A",
"Z  c #4F504A",
"A  c #5D5143",
"S  c #55514C",
"D  c #59534E",
"F  c #555451",
"G  c #5A5652",
"H  c #5C5955",
"J  c #5E5D5A",
"K  c #615445",
"L  c #61564C",
"P  c #665A4B",
"I  c #695E49",
"U  c #615E5A",
"Y  c #6C6252",
"T  c #64625D",
"R  c #666461",
"E  c #696662",
"W  c #6C6A65",
"Q  c #6E6C69",
"!  c #706B65",
"~  c #716E6A",
"^  c #75726D",
"/  c #79746F",
"(  c #777470",
")  c #797671",
"_  c #7D7A75",
"`  c #7F7C79",
"'  c #807C77",
"]  c #817E79",
"[  c #85827D",
"{  c #88847F",
"}  c #878580",
"|  c #898681",
" . c #8D8A85",
".. c #8F8D89",
"X. c #908C87",
"o. c #918E89",
"O. c #95928D",
"+. c #969591",
"@. c #999691",
"#. c #9D9995",
"$. c #9F9D98",
"%. c #A19E99",
"&. c #A4A19D",
"*. c None",
/* pixels */
"*.*.*.*.*.*.*.*.*.*.*.*.*.*.*.*.*.*.*.*.*.*.*.*.*.*.*.*.*.*.*.*.*.*.*.*.*.*.*.*.*.*.*.*.*.*.*.*.*.*.*.*.*.*.*.*.*.*.*.*.*.*.*.*.*.*.*.*.*.*.*.*.*.*.*.",
"*.*.*.*.*.*.*.*.*.*.*.*.*.*.*.*.*.*.*.*.*.*.*.*.*.*.*.*.*.*.*.*.*.*.*.*.*.*.*.*.*.*.*.*.*.*.*.*.*.*.*.*.*.*.*.*.*.*.*.*.*.*.*.*.*.*.*.*.*.*.*.*.*.*.*.",
"*.*.*.*.*.*.*.*.*.*.*.*.*.*.*.*.*.*.*.*.*.*.*.*.*.*.*.*.*.*.*.*.*.*.*.*.*.*.*.*.*.*.*.*.*.*.*.*.*.*.*.*.*.*.*.*.*.*.*.*.*.*.*.*.*.*.*.*.*.*.*.*.*.*.*.",
"*.*.*.*.*.*.*.*.*.*.*.*.*.*.*.*.*.*.*.*.*.*.*.*.*.*.*.*.*.*.*.*.*.*.*.*.*.*.*.*.*.*.*.*.*.*.*.*.*.*.*.*.*.*.*.*.*.*.*.*.*.*.*.*.*.*.*.*.*.*.*.*.*.*.*.",
"*.*.*.*.*.*.*.*.*.*.*.*.*.*.*.*.*.*.*.*.*.*.*.*.*.*.*.*.*.*.*.*.*.*.*.*.*.*.*.*.*.*.*.*.*.*.*.*.*.*.*.*.*.*.*.*.*.*.*.*.*.*.*.*.*.*.*.*.*.*.*.*.*.*.*.",
"*.*.*.*.*.*.*.*.*.*.*.*.*.*.*.*.*.*.*.*.*.*.*.*.*.*.*.*.*.*.*.*.~ W W `  .^ [ [ ) W W Q *.*.*.*.*.*.*.*.*.*.*.*.*.*.*.*.*.*.*.*.*.*.*.*.*.*.*.*.*.*.*.",
"*.*.*.*.*.*.*.*.*.*.*.*.*.*.*.*.*.*.*.*.*.*.*.*.*.*.*.*.W _ [  . ...o.$.&.T [ #.@.@.o.X.| [ ) E *.*.*.*.*.*.*.*.*.*.*.*.*.*.*.*.*.*.*.*.*.*.*.*.*.*.*.",
"*.*.*.*.*.*.*.*.*.*.*.*.*.*.*.*.*.*.*.*.*.*.*.*.*.^ ` | O.O.o. . .X.o.%.&.S T O.o.X.o.o.O.@.#.@.} _ ~ *.*.*.*.*.*.*.*.*.*.*.*.*.*.*.*.*.*.*.*.*.*.*.*.",
"*.*.*.*.*.*.*.*.*.*.*.*.*.*.*.*.*.*.*.*.*.*.*.W ) X.X.O.X.X.X. . . .o._ ] H F ~ _ o. . . .X.o.@.#.#. .' _ *.*.*.*.*.*.*.*.*.*.*.*.*.*.*.*.*.*.*.*.*.*.",
"*.*.*.*.*.*.*.*.*.*.*.*.*.*.*.*.*.*.*.*.*.E W { O.O.|  .|  . . .o.O.%.^ S H G M ^ O.O.o.X. . .|  .X.O.o.} ' ' *.*.*.*.*.*.*.*.*.*.*.*.*.*.*.*.*.*.*.*.",
"*.*.*.*.*.*.*.*.*.*.*.*.*.*.*.*.*.*.*.T Q [ O.O.O.O.O.| | X. .| T H U G m C C C n M m S o.O.] ] } } } {  .X.] [ ' *.*.*.*.*.*.*.*.*.*.*.*.*.*.*.*.*.*.",
"*.*.*.*.*.*.*.*.*.*.*.*.*.*.*.*.*.*.W _ X. .| X.X.O.O.+.X.O.&.$.%. .~ C N C C M s B ~  .%.%.O.o.o. .} [ ] } X.} _ [ *.*.*.*.*.*.*.*.*.*.*.*.*.*.*.*.*.",
"*.*.*.*.*.*.*.*.*.*.*.*.*.*.*.*.T ^ { ..| { { ..X.O.| o.| #.&.#.%.&.) U q M n q s ~ @.O.O.@.o. .@. .@.X.{ [ { }  .` _ ~ *.*.*.*.*.*.*.*.*.*.*.*.*.*.*.",
"*.*.*.*.*.*.*.*.*.*.*.*.*.*.*.E _  . .| | { | X.{ | O.@.$.O.|  . .O.O.%.m p w ]  .] o.o.o.]  .%.@.@.+.X.#.o. .[ } ..] ) ~ *.*.*.*.*.*.*.*.*.*.*.*.*.*.",
"*.*.*.*.*.*.*.*.*.*.*.*.*.*.W {  .| | |  ...X. .X.+.#.O... .| .. . .@.&.[ m U #.O.| } ] ] | | @.@.@.@.@.@.@.#.o.| }  .{ ) ~ *.*.*.*.*.*.*.*.*.*.*.*.*.",
"*.*.*.*.*.*.*.*.*.*.*.*.*.~ [ o.X. .| | X...O.O.#.+.O.o.O.O..... . .#.&.$.m ] #.@.X. .} | } | | X.o.@.@.@.O.@.@.O.X.}  .{ ~ U *.*.*.*.*.*.*.*.*.*.*.*.",
"*.*.*.*.*.*.*.*.*.*.*.*.W { o.X. . .|  .|  . .#.@.O.o.o. . ..... ...| _ ( J Q ( ` }  . ...| { { }  .X.@.#.@.O.@.@.O.X. . . .W G *.*.*.*.*.*.*.*.*.*.*.",
"*.*.*.*.*.*.*.*.*.*.*.T } X.X.o. .O.O.{ [  .O.O.o.o. .o.O.@.} Z 6 2 : - # o O # - > 6 2 S ] ..| | } }  .o.$.#.o.O.@.X.X.{ } | E G *.*.*.*.*.*.*.*.*.*.",
"*.*.*.*.*.*.*.*.*.*.T [  .} }  .O.O.{ _ { } | |  .O.+.+.) n + o + $ - # - + $ $ + $ $ + o + j ^ X.X.} }  .X.O.#.O.@.O. .X.}  .} G *.*.*.*.*.*.*.*.*.*.",
"*.*.*.*.*.*.*.*.*.*.W O.{ [ } X.X.{ _ ] [ [ [ { o.%.[ w $ o + - - > q s m j M C n w 2 - $ + o $ s ] X. .} }  .O.O.O.O. . .| |  .[ H *.*.*.*.*.*.*.*.*.",
"*.*.*.*.*.*.*.*.*.J | { [ [ { o.{ _ ` ] [ [ [ | #.Q 2 + - - ; 0 n n n 0 3 > 2 9 j Z S m q - $ - # 3 ( X.| [ }  .o.O.O.X.} |  .|  .! J *.*.*.*.*.*.*.*.",
"*.*.*.*.*.*.*.*.*.^  .[ [ [  .| _ _ [ [ ] [ { O.Q - - - ; 0 n j 9 ; $ - - ; - $ $ - > s M m 0 ; - - ; W } ] ] [ | o. . .} | |  .} [ H *.*.*.*.*.*.*.*.",
"*.*.*.*.*.*.*.*.W { [ ' [ [ { ^ ^ [ ` ' [ [ ..H + ; - 3 M j ; @ ; 3 6 6 3 6 4 4 1 6 2 - O 3 N M > $ ; O U [ ' _ ] { o.{ [ [ [ ' { } ^ C *.*.*.*.*.*.*.",
"*.*.*.*.*.*.*.*.) | ' ' [ { _ ~ ] ' [ ] [ ..E $ > - j M 2 @ : 6 3 i l c v B v v x a r 1 < , @ 9 C s - > ; E [ ] ` ` [ X._ { ' _ _ ] [ H *.*.*.*.*.*.*.",
"*.*.*.*.*.*.*.H } { ] ] [ [ ~ _ [ ' ( ( [ ( : > : k j $ ; 6 > q B V b V v v x M v a l r 7 7 3 ; # n M % > > ^ ` ^ ^ ` {  ._ [ _ _ _ [ ~ *.*.*.*.*.*.*.",
"*.*.*.*.*.*.*.E  .] ] [ [ ^ _ [ [ ] { | +.n 6 : j q $ 2 6 4 7 h V v p > ; - $ , a V c p r l r 3 1 $ C M : > N  .| [ ' [ {  ._ ` _ _ _ ] G *.*.*.*.*.*.",
"*.*.*.*.*.*.*.) } [ [ [ ^ / [ [ [ { | +.U - ; j p $ 3 6 8 p 7 h c V k 4 % : < 7 l c c t i v x p 1 2 : C j $ : ] O.X. .[ [  .[ / _ _ _ ' T *.*.*.*.*.*.",
"*.*.*.*.*.*.S [ } } } ] ^ ' [ [ { | X. .9 $ 7 s ; 2 7 p v k 7 a c V k 5 t j p 7 l c v r 7 c x v p 1 2 9 S 6 $ m X.}  .[ _ ` ' [ _ ` _ _ [ S *.*.*.*.*.",
"*.*.*.*.*.*.T {  .X. .] _ ' ` { | X...H - - p 7 $ 7 h v v B 7 p b b k 7 h h 8 9 l V c r 7 c l a V r 3 , m n $ > T [ [ [ _ _ ` [ ) ' ' ` | H *.*.*.*.*.",
"*.*.*.*.*.*._ { [ ] _ ' _ ^ ` [ | O.) w - 0 j $ 6 p b t p v 7 i A v h l k g l 8 l c c t 7 v h a x B 3 3 6 S 6 $ q ^ ` [ ^ ) ^ ) _ ~ ( _ } ~ *.*.*.*.*.",
"*.*.*.*.*.T  .[ ] [ { | [ _ _ { X.+.H 6 6 j 8 % 7 v b K V v 7 r v v z b b b b x l c c t 7 x c V c x x 3 > j j $ 6 T [ [ _ ) ) [ } ' _ _ ] ] *.*.*.*.*.",
"*.*.*.*.*.^ | ] ' ` _ ' _ _ ` | +.O.Z 6 s k > < p v b b b x e r x x c z b c b v x l x p 6 x v c c v x i < 9 S : 2 H [ [ [ [ [ [ } } ] [ ] | ] *.*.*.*.",
"*.*.*.*.*.[ ..[ } } } ` ` } } ..$.} m 6 B k ; 6 B V V V v B B 2 k k v v v B c B v v k B j h h k k h l d 6 > N q : m [  .} } } [ [ [ [ ] [ X.` *.*.*.*.",
"*.*.*.*.*.N H R R J J J R R R Q ] R n 0 C k , 3 i q 0 7 7 1 $ # : : , < < : < < 1 6 6 : ; < 3 1 6 7 4 6 < : j B > 9 J ` J T R U H G H J U H F *.*.*.*.",
"*.*.*.*.*.J H R Q Q Q Q R J N F F S N s S 0 < $ : % ; & % % < 3 1 5 e 5 5 7 5 5 4 = < 4 < < < < < 1 < % ; 1 0 S 9 9 j F S S R W Q Q Q ~ E C J *.*.*.*.",
"*.*.*.*.*.O... .} ` ` } } ` } R n 9 > j B < 3 x b b c v x v i r x x c z c c c c v v h t 7 k c z c z x h h 7 1 C q $ $ q ) ` ` ` ' _ ( [ X.o.X.*.*.*.*.",
"*.*.*.*.( +.} [ } ` } ` ` } ..` q n 9 m B < 3 D x q 6 8 v z y e v x f a a h y h h v v p 5 c x 0 i q a V v 7 < M n > > > } ` ` ` ] ] ] | ] O...*.*.*.*.",
"*.*.*.*.` .. .[ } } } } ` } ..` q w q M M : 0 L j : : 7 h v t 7 c v h < & $ $ $ h v b h 7 x B 6 - ; 8 b v t 2 C N 9 6 > _ ` ` ` ` [ } _ _ } ] *.*.*.*.",
"*.*.*.*.*._ ............ . ...Q q s 9 C k : p L j 7 6 8 a c a 7 x c d i 6 6 4 8 p v c h 5 v v p p p h b c 7 6 C C 2 > > ~ _ _ ` [ ] ^ ^ ] ] ( *.*.*.*.",
"*.*.*.*.*.*.F N n n n w w w w w 2 q q B j 2 p D t 8 7 7 a x a 7 x c a t t 8 0 7 p v c x 1 v x p j t j b b 7 6 C F 2 - > w q w w s s n n N G *.*.*.*.*.",
"*.*.*.*.*.*.*.F N F F F F F F J N w s S d > k A r 7 q 7 h c a 5 v z a r i 8 8 7 p v c x 4 v k p s p p V c 7 2 C S 9 > N H F F F F F H S *.*.*.*.*.*.*.",
"*.*.*.*.*.*.*.*.W ] _ ( ( ~ Q _ R q s S d < k A r 7 7 7 h c k 5 v c h i i 8 8 8 p l c k 1 v l p p i d V B i 2 D F 0 2 T ( ~ ^ ( ^ _ ` E *.*.*.*.*.*.*.",
"*.*.*.*.*.*.*._ { [ ' ) ) _ _ ( n m n B j 2 p V 7 7 t 6 k c x 6 v b h p p 8 8 8 t d x l 4 x k i i i d V c i 2 G G s j j } ` _ ) ) ' { [ *.*.*.*.*.*.*.",
"*.*.*.*.*.*.*.[ ' { X.O.+.#.$...F n s C j 2 p A 7 7 8 7 h b x 6 x v h 8 p i 7 7 t x v l 4 x l p r 0 i B c i 2 G U m N G &.#.#.#.#.$.o. .[ *.*.*.*.*.*.",
"*.*.*.*.*.*.Q | ] ' { |  . ...| U m s B k < p V t 7 8 6 h b x 5 h v h 8 t t 8 8 t f c l 1 l k p 7 7 i v c 7 3 G H m m U | [ ] [ [ } _ | } *.*.*.*.*.*.",
"*.*.*.*.*.*.*.~ ) ~ ^ ^ ~ ~ ^ ( J n k B j 1 d V t 5 8 6 h b k 6 h c l t 7 t 7 8 p c c x 5 k k h 7 0 i x B 7 2 G U m n T ~ Q E Q ^ ( ) ] ~ *.*.*.*.*.*.",
"*.*.*.*.*.*.*.M M U H G G D F F F q 0 B j 3 p A y j x p k b x 6 h c v P P P P v d x c x 5 k v b Y P v v c 7 9 D G s n G S C S C F H U N m *.*.*.*.*.*.",
"*.*.*.*.*.*.*.*.s 9 n s M M M M N 9 0 B k 6 a B h P A v x b x 6 a x v h h g y t a x l x 5 x z x z x k h x 0 3 D G i w M m m M N j k 6 s *.*.*.*.*.*.*.",
"*.*.*.*.*.*.*.*.*.J E W m 0 0 m W N 9 B j 6 d v v V b v l v v 6 t x v v c c x x x l h x 6 k K V A L P P L 7 6 D H j H T q 6 q n T U C *.*.*.*.*.*.*.*.",
"*.*.*.*.*.*.*.*.*.J [ H H U R C R F 9 C k 6 p M M k k k M k p 0 6 k x x x k x v k k k k D i h k k h p p i 4 6 G H q H E m S S N C W C *.*.*.*.*.*.*.*.",
"*.*.*.*.*.*.*.*.*.^ T H ( ]  .~ R M > B a 1 < < : : : $ $ $ $ + ; < , : : : ; ; < : , & $ % ; ; % % ; % & < 6 G G 6 m H T _ ` W j H W *.*.*.*.*.*.*.*.",
"*.*.*.*.*.*.*.*.*.^ ~ ! } ..o.` F j 0 B j 6 7 h x x h k h h a 5 7 i a a t t t e 5 1 4 , 6 t p a p p p r 5 1 6 S G j m H ^ ` [ _ H G Q *.*.*.*.*.*.*.*.",
"*.*.*.*.*.*.*.*.*._ O.o.o.o.o.o.} H w C j 6 i c v c x x z x v 5 t k l x x l l x x l a a 7 a v c c b b v v 7 6 F H S W {  . . . .} ] _ *.*.*.*.*.*.*.*.",
"*.*.*.*.*.*.*.*.*./ @.o.o.o.o.o...J w B h 6 t B x h p p a c x 5 t x v a k a a r y a l l e 7 i < < 7 1 1 8 4 6 S D S Q O. .{  . . .{ _ *.*.*.*.*.*.*.*.",
"*.*.*.*.*.*.*.*.*.~ @.o.o.o.o.O...J s B j 2 i V 7 ; - : a c c 5 r c c i ; $ - + i l l a 7 3 3 ; , : 1 3 2 : 2 S H S Q X.| { { { } [ ) *.*.*.*.*.*.*.*.",
"*.*.*.*.*.*.*.*.*.W #.@.o.o.o.O...J s B j 2 7 V h 7 0 r a c c 7 r x x a 3 < ; < a l l f 7 2 2 M % , , ; > % 2 S G S Q O.} { { { { [ *.*.*.*.*.*.*.*.*.",
"*.*.*.*.*.*.*.*.*.*.#.@.X.O.O.O.o.J w A j 4 7 V p i p r a c c 7 3 f l a r i i t p l x d 7 2 2 < , $ $ $ < : 3 C G S ~ O.} } | o.} { *.*.*.*.*.*.*.*.*.",
"*.*.*.*.*.*.*.*.*.*.&.%.O.{ ` ) { J w S j 4 r c a i i r a c x 7 r x l y 7 t 7 8 a l l f 3 ; < < 3 < 8 4 2 : 2 S G S Q #.O. .O.O. .[ *.*.*.*.*.*.*.*.*.",
"*.*.*.*.*.*.*.*.*.T ) / Q ! ^ ^ T Z q S j > 8 B p 7 i t a x c r r l l y 7 7 r t y l x l 2 2 , < < 3 % t 2 ; 2 C G M J [  . .[  . .) *.*.*.*.*.*.*.*.*.",
"*.*.*.*.*.*.*.*.*.*.o.{ { ` ' { [ Z w S h > 8 V p i i i d f x 7 e d f a t 8 r 8 a l x f - , , ; # < % O % , 2 C G M H _ [ [  . . . .*.*.*.*.*.*.*.*.*.",
"*.*.*.*.*.*.*.*.*.*.&.$.O.{ |  ...T s S j 6 t V a r 7 t a l c r 7 l l a r r t 8 y l x 3 , , # 2 6 ; 3 n i 6 3 C G S W  .] [ [ [ [ ] *.*.*.*.*.*.*.*.*.",
"*.*.*.*.*.*.*.*.*.*.$.O.| [ | | | J w S j < t V a A A t a l l r r l l y h K K v a x l 1 , ; # C N # < ; i 6 2 S G S Q X.[ [ ' [ [ ) *.*.*.*.*.*.*.*.*.",
"*.*.*.*.*.*.*.*.*.*.@. .] ] | | { H j S j 4 i V l b z y a f l r r l g y l z l x y f l < ; s 0 s C 0 0 ; r 3 2 C H C ~ X.[ ] [ ' ] _ *.*.*.*.*.*.*.*.*.",
"*.*.*.*.*.*.*.*.*.*... .| | { | [ H q S k 4 r x x l l f a a l r 7 l y x l l l x x x a < ; C 9 > 0 i s ; 0 3 2 C H S ~ o.[ [ ] ) ] _ *.*.*.*.*.*.*.*.*.",
"*.*.*.*.*.*.*.*.*.*.O.{ [ { {  .[ H q S M 1 7 v v z z x x x x d r h x V c V V B v x k 3 ; w $ O $ O q - 7 1 2 S H S ~ O.[ [ ] / ] ' *.*.*.*.*.*.*.*.*.",
"*.*.*.*.*.*.*.*.*.*.o.X.} { | | [ H j S M 6 7 h p t t t r 7 7 q : 7 7 6 7 6 7 7 2 < 2 < - > ; .   $ 9 - 8 1 < S S S ~ +.[ [ ] ] ] _ *.*.*.*.*.*.*.*.*.",
"*.*.*.*.*.*.*.*.*.*.| X. .{ } } | H q F k 6 < & & % % & % & ; O @ # @ @ @ # # # # @ # % : ; ; - $ : ; ; i 5 2 C D S ~ +.] [ ' ' ] ] *.*.*.*.*.*.*.*.*.",
"*.*.*.*.*.*.*.*.*.*.) { X.}  . .| H w S M 6 5 r p y t t r t 7 1 7 p y l a l f d c x d ; > @ # % - ; + ; h 5 2 C G S Q ..[ ' ' ] ] ] *.*.*.*.*.*.*.*.*.",
"*.*.*.*.*.*.*.*.*.*._ }  .| } } ..H w S k 9 7 y l l g f f y y r 0 l l y i r e i f f c , < ; # O O O # & k 5 > C G S J ^ / [ ^ ) ] X.*.*.*.*.*.*.*.*.*.",
"*.*.*.*.*.*.*.*.*.*.~ ( ^ ~ ^ ~ ~ N w S M 6 8 h y a r t y a u t 7 l l f t , > , t l l 3 o @ ; 2 ; - - $ k 4 < C G k F Q T T T T _ | *.*.*.*.*.*.*.*.*.",
"*.*.*.*.*.*.*.*.*.H ( ' _ _ ) _ ' F w S k 9 8 g l 1 ; # 7 l l y 7 f u f t 7 i i t f f f 3 . # @ # O 0 a l 6 > C D N T ' ) / Q ^ ( _ *.*.*.*.*.*.*.*.*.",
"*.*.*.*.*.*.*.*.*.~ #.@. .{  . .O.T w S j 9 e g x 0 ; 1 p f f y 6 u a u r e r r y f f c i ; o ; , # h p a 1 : B S M Q X.[ { [ [ { ] ~ *.*.*.*.*.*.*.*.",
"*.*.*.*.*.*.*.*.*.] O. .} } { } | H s S n 3 e u l r r 7 p a l y 6 u u u r e r e r a f x y < @ $ % 1 d i < ; : M S n E [ [ ' [ [ ' } / *.*.*.*.*.*.*.*.",
"*.*.*.*.*.*.*.*.*.[ | { [ { [ [ [ H s S j 3 r l l r 0 7 t a l i 6 y y l r e r r t f l x a < % $ # , 3 2 ; < : B S k T [ [ [ [ ` ] | ] *.*.*.*.*.*.*.*.",
"*.*.*.*.*.*.*.*.*.[ | { { [ [ { ] H w S n 4 e a x i 7 i p a l y 5 y y l t 3 r e t u l x a 3 : @ $ 3 O < ; < : B S n T [ [ [ ] [ [ } ] *.*.*.*.*.*.*.*.",
"*.*.*.*.*.*.*.*.*.` | { [ { [ [ ` H w S k 2 r a x r 0 r p a l y 6 y u u y 7 t 3 y f x c a 7 4 @ % i 3 < ; < : k C j T ] [ [ _ ' ] [ ) *.*.*.*.*.*.*.*.",
"*.*.*.*.*.*.*.*.*.(  .{ ' [ [ { [ F w F k 6 7 l x t y t t a c y 4 y a u y t t r r f c b h 7 7 $ ; < 7 < ; , : M B n T { _ [ [ [ [ [ ~ *.*.*.*.*.*.*.*.",
"*.*.*.*.*.*.*.*.*.Q } { ^ ] { { } H w S n < 7 l x h I K y f x a 4 y h y t K K K e l V V h 7 t + > 2 < < ; : , M S n T { ` [ ' [ ] [ E *.*.*.*.*.*.*.*.",
"*.*.*.*.*.*.*.*.*.U [ { { { { } { J w F j 6 r a y g l l l a f a < y h y y z z c a a c c h 7 y % : 7 0 < ; ; < M S m W { [ [ [ [ [ [ T *.*.*.*.*.*.*.*.",
"*.*.*.*.*.*.*.*.*.U _ ) ' { { ..+.T s S j 3 t x V b V b c V v h < t g g l l l f x c V c p 5 y % : ; ; ; ; , ; M S k W [ ` [ ' [ { } U *.*.*.*.*.*.*.*.",
"*.*.*.*.*.*.*.*.*.U / E W ! ~ ( ] H s F n 6 7 h h p y t p j 8 h > p k x k k x x v B B v k 7 x a , @ @ @ $ < > k C M T ~ T Q ^ ` } } H *.*.*.*.*.*.*.*.",
"*.*.*.*.*.*.*.*.*.U ^ T / ^ _ _ _ Z w S j 6 4 < : ; & & % % % + $ : < : : < : = : = < 6 & $ < < < , * < 1 4 : M S j G _ [ [ { ..] _ J *.*.*.*.*.*.*.*.",
"*.*.*.*.*.*.*.*.G [ [ [ ] _ { | { J w S j 6 4 h a t h t y y t 8 1 & % & % % % $ @ @ @ O $ : % & % % % @ @ < > k A j Q O.| | | | o.+.} H *.*.*.*.*.*.*.",
"*.*.*.*.*.*.*.*._ X.} } { } { { { J s S n 6 8 h g y t t t e e 8 1 7 y y g u y y g h h y r 1 y z z l z x e 6 > B S n T | { { { [ { [ [ ^ *.*.*.*.*.*.*.",
"*.*.*.*.*.*.*.*._ } { { { ] [ { { J s S j 9 8 v h = = = = e y r < y a t 7 5 5 5 4 8 y x a 1 i 6 1 4 5 7 t 5 > M S M T { { { { [ [ [ [ W *.*.*.*.*.*.*.",
"*.*.*.*.*.*.*.*.]  .[ { { } [ } o.T s S v 9 h b z b b V b g g r 1 p h t h x v v h p y x h < h v z v A x a 5 < k S k T [ ' ` [ [ ] ] [ ^ *.*.*.*.*.*.*.",
"*.*.*.*.*.*.*.*.^ [ [ { } } [ _ +.J j F M 9 8 S B x x f y r t e 4 y y u g f g g g y y l h 1 h b b b b v a 6 > M S M T _ / _ ` ' ] ' ) ~ *.*.*.*.*.*.*.",
"*.*.*.*.*.*.*.E W ] [ [ } { [ ]  .Z j F M 6 q v A v v c f y y r = r a l u y y y g y y y h 1 d c c v z v h 5 > Z S n F ^ / _ [ ' ] [ ' ^ *.*.*.*.*.*.*.",
"*.*.*.*.*.*.*.W ^ [ { [ } } } { } Z j S m < 6 t t p a p p t r e < 5 r r 5 e e 7 e 7 e r r < r t a t r p 7 6 < N G n F ( ` ] ` ' [ [ ] _ T *.*.*.*.*.*.",
"*.*.*.*.*.*.*.~ } } { { } [ { [ } N n H n 6 6 6 7 6 6 7 6 6 6 6 6 3 4 4 1 4 4 6 4 4 5 6 5 6 6 6 5 6 3 7 7 6 6 S F j S ] [ ` ` [ [ [ [ ' H *.*.*.*.*.*.",
"*.*.*.*.*.*.*.] o.} [ Q _ ] { X.} 6 n S w w j 7 q p M B j k k m B 0 q s s j d s j k m m j p 7 j k 7 3 6 7 j s w m 9 m [ [ ] [ [ Q T ! W U *.*.*.*.*.*.",
"*.*.*.*.*.*.*. .O...[ ) / [  .X.W w *.*.*.*.*.*.*.*.*.*.*.*.*.*.*.*.*.*.*.*.*.*.*.*.*.*.*.*.*.*.*.*.*.*.*.*.*.*.*.*.w E ] ] { ( T U E ~ ] *.*.*.*.*.*.",
"*.*.*.*.*.*.*.*.*.*.*.*.*.*.*.*.*.*.*.*.*.*.*.*.*.*.*.*.*.*.*.*.*.*.*.*.*.*.*.*.*.*.*.*.*.*.*.*.*.*.*.*.*.*.*.*.*.*.*.*.*.*.*.*.*.*.*.*.*.*.*.*.*.*.*.",
"*.*.*.*.*.*.*.*.*.*.*.*.*.*.*.*.*.*.*.*.*.*.*.*.*.*.*.*.*.*.*.*.*.*.*.*.*.*.*.*.*.*.*.*.*.*.*.*.*.*.*.*.*.*.*.*.*.*.*.*.*.*.*.*.*.*.*.*.*.*.*.*.*.*.*.",
"*.*.*.*.*.*.*.*.*.*.*.*.*.*.*.*.*.*.*.*.*.*.*.*.*.*.*.*.*.*.*.*.*.*.*.*.*.*.*.*.*.*.*.*.*.*.*.*.*.*.*.*.*.*.*.*.*.*.*.*.*.*.*.*.*.*.*.*.*.*.*.*.*.*.*.",
"*.*.*.*.*.*.*.*.*.*.*.*.*.*.*.*.*.*.*.*.*.*.*.*.*.*.*.*.*.*.*.*.*.*.*.*.*.*.*.*.*.*.*.*.*.*.*.*.*.*.*.*.*.*.*.*.*.*.*.*.*.*.*.*.*.*.*.*.*.*.*.*.*.*.*."
};
