/* XPM */
static char *result[] = {
/* columns rows colors chars-per-pixel */
"64 64 212 2 ",
"   c #1E1D35",
".  c #302E38",
"X  c #3A383A",
"o  c #1C1B46",
"O  c #201F57",
"+  c #26294A",
"@  c #3A3848",
"#  c #262557",
"$  c #312F57",
"%  c #3B3859",
"&  c #262564",
"*  c #28276A",
"=  c #373A67",
"-  c #2B2A73",
";  c #2E2C7D",
":  c #292871",
">  c #3C3A73",
",  c #4E304D",
"<  c #423F59",
"1  c #5C375B",
"2  c #6D3C6C",
"3  c #653A65",
"4  c #713C6F",
"5  c #733C71",
"6  c #3A4770",
"7  c #464446",
"8  c #484649",
"9  c #524E54",
"0  c #5A4D59",
"q  c #504C59",
"w  c #555354",
"e  c #5D5B5D",
"r  c #5A545A",
"t  c #444258",
"y  c #625B5C",
"u  c #4A4A67",
"i  c #4F566E",
"p  c #5F5C60",
"a  c #5B5968",
"s  c #5C597C",
"d  c #504F75",
"f  c #684767",
"g  c #625C62",
"h  c #675A68",
"j  c #744B73",
"k  c #745473",
"l  c #646365",
"z  c #6D656E",
"x  c #6C6A6C",
"c  c #666369",
"v  c #666675",
"b  c #736D73",
"n  c #7B6C7B",
"m  c #746777",
"M  c #6D717E",
"N  c #747273",
"B  c #7A737C",
"V  c #7C7B7C",
"C  c #7A797A",
"Z  c #746B6D",
"A  c #80777B",
"S  c #857979",
"D  c #2E2D80",
"F  c #585C88",
"G  c #615C85",
"H  c #5F6D97",
"J  c #6A658E",
"K  c #686587",
"L  c #7E7E80",
"P  c #7D7B8A",
"I  c #6D6796",
"U  c #6D6895",
"Y  c #726E91",
"T  c #727494",
"R  c #816A81",
"E  c #837D83",
"W  c #897F8A",
"Q  c #877C82",
"!  c #827C99",
"~  c #7D8383",
"^  c #7C83A3",
"/  c #848384",
"(  c #8C8483",
")  c #8E8887",
"_  c #8A838B",
"`  c #8B8B8C",
"'  c #878688",
"]  c #9C8B8B",
"[  c #968888",
"{  c #8C8390",
"}  c #8A8894",
"|  c #928B94",
" . c #998D95",
".. c #938C9B",
"X. c #998D9C",
"o. c #958695",
"O. c #8B9092",
"+. c #949394",
"@. c #9D9493",
"#. c #959699",
"$. c #9A949B",
"%. c #9B9B9C",
"&. c #A1899F",
"*. c #A3969D",
"=. c #A5999C",
"-. c #AA9E9F",
";. c #A19697",
":. c #A9A19F",
">. c #B4A09F",
",. c #9E92A1",
"<. c #9E9DA1",
"1. c #9E98A8",
"2. c #9F97B1",
"3. c #A195A4",
"4. c #A599A5",
"5. c #A99DA2",
"6. c #A497A8",
"7. c #AA9CAB",
"8. c #A79AAC",
"9. c #AD9FB1",
"0. c #9BA6AA",
"q. c #A4A3A4",
"w. c #AEA3A3",
"e. c #ACA3AC",
"r. c #ABABAC",
"t. c #A7A9AF",
"y. c #B0A5A7",
"u. c #BBADAB",
"i. c #B5A8A9",
"p. c #B1B1AF",
"a. c #AAA5B9",
"s. c #B4A5B5",
"d. c #B2ADB3",
"f. c #BAAABD",
"g. c #B8AAB6",
"h. c #B4B3B4",
"j. c #B7B4B8",
"k. c #BCBBBC",
"l. c #BAB5B8",
"z. c #C4B4B4",
"x. c #CDBDBC",
"c. c #C5B9B8",
"v. c #B3ABC1",
"b. c #BCADC2",
"n. c #B9B1C5",
"m. c #BFBDC0",
"M. c #BFB6CE",
"N. c #C2B2C6",
"B. c #C1BEC2",
"V. c #C6B6CA",
"C. c #C5BBCB",
"Z. c #C9BCCD",
"A. c #C5BCD3",
"S. c #CCBBD1",
"D. c #CBBFD9",
"F. c #C3C3C4",
"G. c #C7C5C8",
"H. c #C9C5CA",
"J. c #CCCBCC",
"K. c #CCC6C5",
"L. c #D3C4C2",
"P. c #DDCDCA",
"I. c #D9C8C6",
"U. c #D0D0CE",
"Y. c #CFCDD0",
"T. c #CAC0D8",
"R. c #D1CED3",
"E. c #D6C5DC",
"W. c #DAC9DC",
"Q. c #D4D3D4",
"!. c #D9D7D7",
"~. c #D7D5D8",
"^. c #D9D5DA",
"/. c #DCDBDC",
"(. c #D8DBD8",
"). c #CED1D7",
"_. c #E4D1CE",
"`. c #EAD7D5",
"'. c #EAD9D7",
"]. c #EDDBD9",
"[. c #E3D7D6",
"{. c #F1DEDC",
"}. c #E2E1DF",
"|. c #F4E1DF",
" X c #D5CAE4",
".X c #DCCEE2",
"XX c #DACFEB",
"oX c #DFDDE0",
"OX c #DED1E8",
"+X c #DFD5F0",
"@X c #E1DFE2",
"#X c #E2D5E7",
"$X c #E6DAF6",
"%X c #ECDDFE",
"&X c #E2D6F2",
"*X c #E4E3E4",
"=X c #E7E5E8",
"-X c #E8E5E9",
";X c #ECEBEC",
":X c #EAE8E5",
">X c #F4E5E2",
",X c #F9E4E3",
"<X c #F9EAE9",
"1X c #EEF4EE",
"2X c #F1F0EE",
"3X c #EDE7F6",
"4X c #F1EEF2",
"5X c #EDF2F0",
"6X c #F5F3F5",
"7X c #F9F8F5",
"8X c #F8F8F9",
"9X c None",
/* pixels */
"9X9X9X9X9X9X9X9X9X9X9X9X9X9X9X9X9X9X9X9X9X9X9X9X9X9X9X9X9X9X9X9X9X9X9X9X9X9X9X9X9X9X9X9X9X9X9X9X9X9X9X9X9X9X9X9X9X9X9X9X9X9X9X9X",
"9X9X9X9X9X9X9X9X9X9X9X9X9X9X9X9X9X9X9X9X9X9X9X9X9X9X9X9X9X9X9X9X9X9X9X9X9X9X9X9X9X9X9X9X9X9X9X9X9X9X9X9X9X9X9X9X9X9X9X9X9X9X9X9X",
"9X9X9X9X9X9X9X9X9X9X9X9X9X9X9X9X9X9X9X9X9X9X9X9X9X9X9X9X9X9X9X9X9X9X9X9X9X9X9X9X9X9X9X9X9X9X9X9X9X9X9X9X9X9X9X9X9X9X9X9X9X9X9X9X",
"9X9X9X9X9X9X9X9X9X9X9X9X9X9X9X9X9X9X9X9X9X9X9X9X9X9X9X9X9X9X9X9X9X9X9X9X9X9X9X9X9X9X9X9X9X9X9X9X9X9X9X9X9X9X9X9X9X9X9X9X9X9X9X9X",
"9X9X9X9X9X9X9X9X9X9X9X9X9X9X9X9X9X9X9X9X9X9X9X9X9X9X9X9X(.+.6X9X9X2X9X9X9X9X9X9X9X9X9X9X9X9X9X9X9X9X9X9X9X9X9X9X9X9X9X9X9X9X9X9X",
"9X9X9X9X9X9X9X9X9X9X9X9X9X9X9X9X9X9X9X9X9X9X9X9X9X9X9X9X:./ k.9XQ.L G.9X9X9X9X9X9X9X9X9X9X9X9X9X9X9X9X9X9X9X9X9X9X9X9X9X9X9X9X9X",
"9X9X9X9X9X9X9X9X9X9X9X9X9X9X9X9X9X9X9X9X9X9Xp.h.9X9X9XQ.#.5Xx %.6X/ N m.9X9X9X9X9X9X9X9X9X9X9X9X9X9X9X9X9X9X9X9X9X9X9X9X9X9X9X9X",
"9X9X9X9X9X9X9X9X9X9X9X9X9X9X9X9X9X9X9X9X9X9X+.L r.*X8Xr.F.6X5Xq.+.C h.+.r.V / ' %.U.9X9X9X9X9X9X9X9X9X9X9X9X9X9X9X9X9X9X9X9X9X9X",
"9X9X9X9X9X9X9X9X9X9X9X9X9X9X9X9X9X9X9X9X9X1X~ 2Xr.r l x G.6X6X6Xr.p =Xe t.6X6XG.C ' 6X9X9X9X9X9X9X9X9X9X9X9X9X9X9X9X9X9X9X9X9X9X",
"9X9X9X9X9X9X9X9X9X9X9X9X9X9X9X9X9X9X9X9X9X1XL 6X6X5X*XH.Y.6X6X6X;X}.5XU.6X6Xm.e N %.h.k.F.U.9X9X9X9X9X9X9X9X9X9X9X9X9X9X9X9X9X9X",
"9X9X9X9X9X9X9X9X9X9X9X9X9X9X9X9X9X9X9X9X/.k.x /.6X6X6X6X6X6X6X6X6X;X6X6X6X4XF.^.(.j.' ` +.#.9X9X9X9X9X9X9X9X9X9X9X9X9X9X9X9X9X9X",
"9X9X9X9X9X9X9X9X9X9X9X9X9X9X9X9X9X9X;Xl 8 N r.F.6X6X6X*X6X6XoXj.m.h.m.*X6X6X6X6X6X6X6X6Xh.k.9X9X9X9X9X9X9X9X9X9X9X9X9X9X9X9X9X9X",
"9X9X9X9X9X9X9X9X9X9X9X9X9X9X9X(.J./.m.X c t.m.8X6X6X*Xq.6X6Xh.*XJ.R.6X6X6X6X6X6X6X6X6XF.9 H.:X9X9X9X9X9X9X9X9X9X9X9X9X9X9X9X9X9X",
"9X9X9X9X9X9X9X9X9X9X9X9X9X9X9XJ.V q.q.(.4X6X6X6X6X6XF.Q.J.6XG.*XF.-XQ.Y.~.6X6X6X6X6X6X~.k.~ V U.9X9X9X9X9X9X9X9X9X9X9X9X9X9X9X9X",
"9X9X9X9X9X9X9X9X9X9X9X9X9X9X9X6X+.*X6X6X6X6X6X6X6X6Xk.4Xj.G.Y.~.m.Y.oX^.h.m.6X6X6X8X6X-X$.8 e r.9X9X9X9X9X9X9X9X9X9X9X9X9X9X9X9X",
"9X9X9X9X9X9X9X9X9X9X9X9X9X9X9X9Xk.4.6X6X6X6X6X6X6X6X^.t.;X-Xd.Y.H.d.j.l.H.oXd.;X6X6X6X6X6XF.V h.6X9X9X9X9X9X9X9X9X9X9X9X9X9X9X9X",
"9X9X9X9X9X9X9X9X9X9X9X9X9X9X9X9X*X` r.6X6X6X6X6X6X6X6XZ.d.q.j.-Xd.S.R.R.R.C.B.R.6X6X6X6X6X6X/.<.O.K.9X9X9X9X9X9X9X9X9X9X9X9X9X9X",
"9X9X9X9X9X9X9X9X9X9X9X9X9X9X9X9X9Xh.p p.;X6X6X6X6X6X6X-Xm.j.j.6XH.R.6X6X6X6X@XF.4X8X6X6X6X6X6X~.' *X9X9X9X9X9X9X9X9X9X9X9X9X9X9X",
"9X9X9X9X9X9X9X9X9X9X9X9X9X9X9X9Xl.L F.6X6X6X6X*X4X*X@X~.d.h.d.@X;Xm.;X4X6X6X6X;X;X6X6X6X6X6X*XL r.9X9X9X9X9X9X9X9X9X9X9X9X9X9X9X",
"9X9X9X9X9X9X9X9X9X9X9X9X9X9X9Xr.e V V ;X6X6XoX-X/./.B.6Xm.<.B.e.G.;XY.F.-X6X6X6X4X-X6X6X6X4X#.E /.9X9X9X9X9X9X9X9X9X9X9X9X9X9X9X",
"9X9X9X9X9X9X9X9X9X9X9X9X9X9X9Xm.%.x E 4X6X6XR.6XG.J.Q.6XK.j.k.@XN.d.l.G.B.4X4X4X6X~.6X6X6X6X5Xr./ 9X9X9X9X9X9X9X9X9X9X9X9X9X9X9X",
"9X9X9X9X9X9X9X9X9X9X9X9X9X9X6Xl / k.4X4X6XoXoX/.Q.$.6XoXk.H.J.7X*X(.m.;X-Xk.6X~.6X/.@X6X6X6X+.V / Q.9X9X9X9X9X9X9X9X9X9X9X9X9X9X",
"9X9X9X9X9X9X9X9X9X9X9X9X9X9X9X%.X.-X4X4X4Xd.4XH.C.` Z.+.e.g.n.#XZ.e.3.e.Z.E d.C..X4Xl.6X6X6XF.C ` h.9X9X9X9X9X9X9X9X9X9X9X9X9X9X",
"9X9X9X9X9X9X9X9X9X9X9X9X9X9X9X6X4.B b.E.E.6. Xb.4.n b.i.Q 5.6.W.f.Q 8.( 4.s.A 3.N.OXd.6X6X6X4X/ +.*X9X9X9X9X9X9X9X9X9X9X9X9X9X9X",
"9X9X9X9X9X9X9X9X9X9X9X9X9X9X9X9X9Xk.%.c f.3.E.b.9.=.6.P.;.-.5.S.C.-.$.5.@...C *.s.E.,..X.X#X.X9.x U.9X9X9X9X9X9X9X9X9X9X9X9X9X9X",
"9X9X9X9X9X9X9X9X9X9X9X9X9X9X9X9X9X9XF.| E.V.s.V.X.i.e ~ / -.L.s.V.u.L.N 0.0.V B W S.3.E.S.X.z ' /.9X9X9X9X9X9X9X9X9X9X9X9X9X9X9X",
"9X9X9X9X9X9X9X9X9X9X9X9X9X9X9X9X9X*X/ s.8.S.o.N./ O.^.#.v 0.].P.7.5.i.a M ;X5X` z ,.-.V.9.+.Q.9X9X9X9X9X9X9X9X9X9X9X9X9X9X9X9X9X",
"9X9X9X9X9X9X9X9X9X9X9X9X9X9X9X9X9XG.p p z  .[ *.@.5Xm.+ i Q.c.|.].z.b + K t.6X~.[ S [ 5.b.5.9X9X9X9X9X9X9X9X9X9X9X9X9X9X9X9X9X9X",
"9X9X9X9X9X9X9X9X9X9X9X9X9X9X9X9X9X/.h.;X' @.] S @.(.F.6 6 6 l.|.,X,X} 6 6 i 6XJ.( ( >.=.S.' -X9X9X9X9X9X9X9X9X9X9X9X9X9X9X9X9X9X",
"9X9X9X9X9X9X9X9X9X9X9X9X9X9X9X9X9X9X9X9Xr.w x.[ w.x./.^ F T ].|.,X,XL.^ H t./.J.] ] x.Z ..p q.9X9X9X9X9X9X9X9X9X9X9X9X9X9X9X9X9X",
"9X9X9X9X9X9X9X9X9X9X9X9X9X9X9X9X9X9X9X9X/.p.) I.:.|.`.,X:X,X,X]._.,X,X,X<X|.|._.=.L.S H.Q.H.-X9X9X9X9X9X9X9X9X9X9X9X9X9X9X9X9X9X",
"9X9X9X9X9X9X9X9X9X9X9X9X9X9X9X9X9X9X9X9X9X;Xh.) C {.,X,X|.,XI.L.P.I.P.,X>X,X,Xx.*.S O.9X9X9X9X9X9X9X9X9X9X9X9X9X9X9X9X9X9X9X9X9X",
"9X9X9X9X9X9X9X9X9X9X9X9X9X9X9X9X9X9X9X9X9X/.F.!.C =.[.,X,X,X`.B.;XK.].,X,X`.x. .b ` 4X9X9X9X9X9X9X9X9X9X9X9X9X9X9X9X9X9X9X9X9X9X",
"9X9X9X9X9X9X9X9X9X9X9X9X9X9X9X9X9X9X9X9X}.) ) S h.e Q u._.,X,X{.>X'.,X|.V.-.6.0 r *X9X9X9X9X9X9X9X9X9X9X9X9X9X9X9X9X9X9X9X9X9X9X",
"9X9X9X9X9X9X9X9X9X9X9X9X9X9X9X9X9X9X9X*X` '.{.z.( }.O.l n , E y.L.z.E E ,.X E (.6X9X9X9X9X9X9X9X9X9X9X9X9X9X9X9X9X9X9X9X9X9X9X9X",
"9X9X9X9X9X9X9X9X9X9X9X9X9X9X9X9X9X9X9Xp.>.,XI.L.:.Q.;Xk.w 7 o # % % + q 9 %.*X9X9X9X9X9X9X9X9X9X9X9X9X9X9X9X9X9X9X9X9X9X9X9X9X9X",
"9X9X9X9X9X9X9X9X9X9X9X9X9X9X9X9X9X9X9Xr.y.,Xu.P.@.*XU.x A.+X> : * * Y  XD.L 8X9X9X9X9X9X9X9X9X9X9X9X9X9X9X9X9X9X9X9X9X9X9X9X9X9X",
"9X9X9X9X9X9X9X9X9X9X9X9X9X9X9X9X9X9X9X/.C z.P.L.t C #.$X%X%XM.J > I +X%X%XM.' 5X9X9X9X9X9X9X9X9X9X9X9X9X9X9X9X9X9X9X9X9X9X9X9X9X",
"9X9X9X9X9X9X9X9X9X9X9X9X9X9X9X9X9X9X9X6XE   W = ; s &XXXXX%X%X%X%X%X%X%X%X%Xb.%.9X9X9X9X9X9X9X9X9X9X9X9X9X9X9X9X9X9X9X9X9X9X9X9X",
"9X9X9X9X9X9X9X9X9X9X9X9X9X9X9X9X9X9X9X5Xv & - ; ; ; K D. X%X%X%X%X%X%X%X%X%X%X$.Q.9X9X9X9X9X9X9X9X9X9X9X9X9X9X9X9X9X9X9X9X9X9X9X",
"9X9X9X9X9X9X9X9X9X9X9X9X9X9X9X9X9X9X9X9XF.+ ; D ; ; * a XX%X%X%X%X%X%X%X%XD. X< q.9X9X9X9X9X9X9X9X9X9X9X9X9X9X9X9X9X9X9X9X9X9X9X",
"9X9X9X9X9X9X9X9X9X9X9X9X9X9X9X9X9X9X9X9X9XK.a # ; ; & 7 $X%X%X%X%X%X%X%X%X..$ * # F.9X9X9X9X9X9X9X9X9X9X9X9X9X9X9X9X9X9X9X9X9X9X",
"9X9X9X9X9X9X9X9X9X9X9X9X9X9X9X9X9X9X9X9X9X9X7XF.% & c P 3X%X%X%X%X%X%X%X%XT O & D v 9X9X9X9X9X9X9X9X9X9X9X9X9X9X9X9X9X9X9X9X9X9X",
"9X9X9X9X9X9X9X9X9X9X9X9X9X9X9X9X9X9X9X9X9X9X9X9Xk.h.p.b.%X%X%X%X%X%X%X%XXX! : D D v 9X9X9X9X9X9X9X9X9X9X9X9X9X9X9X9X9X9X9X9X9X9X",
"9X9X9X9X9X9X9X9X9X9X9X9X9X9X9X9X9X9X9X9X9X9X9X9X9X9X#.&X%X%X%X%X%X%X&XC.A.d D ; ; P 9X9X9X9X9X9X9X9X9X9X9X9X9X9X9X9X9X9X9X9X9X9X",
"9X9X9X9X9X9X9X9X9X9X9X9X9X9X9X9X9X9X9X9X9X9X9X9X9X|.+.3X%X%X%X%X%X$Xb.XXP ; D ; O F.9X9X9X9X9X9X9X9X9X9X9X9X9X9X9X9X9X9X9X9X9X9X",
"9X9X9X9X9X9X9X9X9X9X9X9X9X9X9X9X9X9X9X9X9X9X9X9X9X6X} %X%X%X%X%X%XXX Xv.s = - ; % ;X9X9X9X9X9X9X9X9X9X9X9X9X9X9X9X9X9X9X9X9X9X9X",
"9X9X9X9X9X9X9X9X9X9X9X9X9X9X9X9X9X9X9X9X9X9X9X9X9XQ.1.%X%X%X%X%XXXM.T s I I d $ p.9X9X9X9X9X9X9X9X9X9X9X9X9X9X9X9X9X9X9X9X9X9X9X",
"9X9X9X9X9X9X9X9X9X9X9X9X9X9X9X9X9X9X9X9X9X9X9X9X9Xr.{ n.n.v.a.8.! G I I I I F L *X9X9X9X9X9X9X9X9X9X9X9X9X9X9X9X9X9X9X9X9X9X9X9X",
"9X9X9X9X9X9X9X9X9X9X9X9X9X9X9X9X9X9X9X9X9X9X9X9X9X7Xa U I I I I J I I I I I G <.9X9X9X9X9X9X9X9X9X9X9X9X9X9X9X9X9X9X9X9X9X9X9X9X",
"9X9X9X9X9X9X9X9X9X9X9X9X9X9X9X9X9X9X9X9X9X9X9X9X9X7Xq I I I I I u I I I I I G #.9X9X9X9X9X9X9X9X9X9X9X9X9X9X9X9X9X9X9X9X9X9X9X9X",
"9X9X9X9X9X9X9X9X9X9X9X9X9X9X9X9X9X9X9X9X9X9X9X9X9X2X. u J I I I @ d I I I G @ $.9X9X9X9X9X9X9X9X9X9X9X9X9X9X9X9X9X9X9X9X9X9X9X9X",
"9X9X9X9X9X9X9X9X9X9X9X9X9X9X9X9X9X9X9X9X9X9X9X9X9X9X2Xl.Z [ z b u.q.y ]  .x /.2X9X9X9X9X9X9X9X9X9X9X9X9X9X9X9X9X9X9X9X9X9X9X9X9X",
"9X9X9X9X9X9X9X9X9X9X9X9X9X9X9X9X9X9X9X9X9X9X9X9X9X9X:Xr *.u.*.L !.U.n i.z.N r.9X9X9X9X9X9X9X9X9X9X9X9X9X9X9X9X9X9X9X9X9X9X9X9X9X",
"9X9X9X9X9X9X9X9X9X9X9X9X9X9X9X9X9X9X9X9X9X9X9X9X9X9X;Xl N.s.s.{ U.F._ 8.4.$.#.7X9X9X9X9X9X9X9X9X9X9X9X9X9X9X9X9X9X9X9X9X9X9X9X9X",
"9X9X9X9X9X9X9X9X9X9X9X9X9X9X9X9X9X9X9X9X9X9X9X9X(.C w 8 o.f 2 0 :X2X0 3 2 m w g x Q.9X9X9X9X9X9X9X9X9X9X9X9X9X9X9X9X9X9X9X9X9X9X",
"9X9X9X9X9X9X9X9X9X9X9X9X9X9X9X9X9X9X9X9X9X9X9X*Xh h k 2 f f 5 1 G.}., 5 1 R 3 k X.9 5X9X9X9X9X9X9X9X9X9X9X9X9X9X9X9X9X9X9X9X9X9X",
"9X9X9X9X9X9X9X9X9X9X9X9X9X9X9X9X9X9X9X9X9X9X9XJ.o.9.W.1 5 5 5 1 c.J.1 5 5 5 4 &.f.0 Q.9X9X9X9X9X9X9X9X9X9X9X9X9X9X9X9X9X9X9X9X9X",
"9X9X9X9X9X9X9X9X9X9X9X9X9X9X9X9X9X9X9X9X9X9X9X(.$.W..XA k k k h (.;X0 f j j j s..XQ 6X9X9X9X9X9X9X9X9X9X9X9X9X9X9X9X9X9X9X9X9X9X",
"9X9X9X9X9X9X9X9X9X9X9X9X9X9X9X9X9X9X9X9X9X9X9X9X| $.6.W z n E +.9X9X+.g a p g W _ +.9X9X9X9X9X9X9X9X9X9X9X9X9X9X9X9X9X9X9X9X9X9X",
"9X9X9X9X9X9X9X9X9X9X9X9X9X9X9X9X9X9X9X9X9X9X9X9X;XU.J.!.;X8X9X9X9X9X9X6X-X;X=X=X4X9X9X9X9X9X9X9X9X9X9X9X9X9X9X9X9X9X9X9X9X9X9X9X",
"9X9X9X9X9X9X9X9X9X9X9X9X9X9X9X9X9X9X9X9X9X9X9X9X9X9X9X9X9X9X9X9X9X9X9X9X9X9X9X9X9X9X9X9X9X9X9X9X9X9X9X9X9X9X9X9X9X9X9X9X9X9X9X9X",
"9X9X9X9X9X9X9X9X9X9X9X9X9X9X9X9X9X9X9X9X9X9X9X9X9X9X9X9X9X9X9X9X9X9X9X9X9X9X9X9X9X9X9X9X9X9X9X9X9X9X9X9X9X9X9X9X9X9X9X9X9X9X9X9X",
"9X9X9X9X9X9X9X9X9X9X9X9X9X9X9X9X9X9X9X9X9X9X9X9X9X9X9X9X9X9X9X9X9X9X9X9X9X9X9X9X9X9X9X9X9X9X9X9X9X9X9X9X9X9X9X9X9X9X9X9X9X9X9X9X"
};
