/* XPM */
static char *result[] = {
/* columns rows colors chars-per-pixel */
"55 74 255 2 ",
"   c #040201",
".  c #0B0502",
"X  c #0D0904",
"o  c #0A0909",
"O  c #120603",
"+  c #140A03",
"@  c #1B0C04",
"#  c #140C09",
"$  c #1C0D0A",
"%  c #1A0704",
"&  c #1D1204",
"*  c #1D130A",
"=  c #171408",
"-  c #1A1612",
";  c #230D04",
":  c #2B0C05",
">  c #240E09",
",  c #290D08",
"<  c #340D05",
"1  c #231304",
"2  c #2B1304",
"3  c #2C1B05",
"4  c #23130B",
"5  c #2C140A",
"6  c #2C1B0A",
"7  c #241907",
"8  c #331405",
"9  c #3B1405",
"0  c #331B05",
"q  c #3C1C04",
"w  c #34140A",
"e  c #391409",
"r  c #331B0B",
"t  c #3B1C0B",
"y  c #291911",
"u  c #331B13",
"i  c #3C1E12",
"p  c #2C220B",
"a  c #292109",
"s  c #33240C",
"d  c #3C230C",
"f  c #392708",
"g  c #2C2618",
"h  c #3C2314",
"j  c #3A2D1C",
"k  c #362716",
"l  c #3B311C",
"z  c #3F330B",
"x  c #362C24",
"c  c #373227",
"v  c #35322A",
"b  c #441C05",
"n  c #4A1C06",
"m  c #421E0A",
"M  c #481807",
"N  c #421F15",
"B  c #521E12",
"V  c #531A0A",
"C  c #432206",
"Z  c #4B2305",
"A  c #4B2B05",
"S  c #43220A",
"D  c #4B240A",
"F  c #432B0B",
"G  c #4C2B0C",
"H  c #432A05",
"J  c #522B05",
"K  c #542B0C",
"L  c #5B2C0A",
"P  c #572608",
"I  c #48320C",
"U  c #5C330B",
"Y  c #583608",
"T  c #442512",
"R  c #432B13",
"E  c #4C2C1B",
"W  c #482916",
"Q  c #532C14",
"!  c #582B16",
"~  c #4C3113",
"^  c #43321C",
"/  c #493418",
"(  c #5C341C",
")  c #5B3A1D",
"_  c #583516",
"`  c #632A0A",
"'  c #643A0B",
"]  c #6B3C0B",
"[  c #643508",
"{  c #723E08",
"}  c #623414",
"|  c #643C13",
" . c #643C1C",
".. c #6A3816",
"X. c #743C1A",
"o. c #662F13",
"O. c #4A2B23",
"+. c #4A3B23",
"@. c #483726",
"#. c #573A23",
"$. c #553F35",
"%. c #683D22",
"&. c #643D36",
"*. c #5C441B",
"=. c #59420E",
"-. c #6A460C",
";. c #76450A",
":. c #6B4A13",
">. c #6A441B",
",. c #664717",
"<. c #754914",
"1. c #7B4B14",
"2. c #764518",
"3. c #785317",
"4. c #715112",
"5. c #5A4628",
"6. c #4B4537",
"7. c #574834",
"8. c #534B2F",
"9. c #63452C",
"0. c #684827",
"q. c #754725",
"w. c #6C552B",
"e. c #785728",
"r. c #644C35",
"t. c #695437",
"y. c #775936",
"u. c #704B33",
"i. c #7B6538",
"p. c #7B602B",
"a. c #5C5848",
"s. c #504F47",
"d. c #655745",
"f. c #755A47",
"g. c #796548",
"h. c #716B55",
"j. c #787662",
"k. c #82490B",
"l. c #89580D",
"z. c #834E13",
"x. c #86481B",
"c. c #875918",
"v. c #935B14",
"b. c #9D5C0C",
"n. c #A75E1D",
"m. c #8C631A",
"M. c #996519",
"N. c #9D6D0F",
"B. c #A46718",
"V. c #AC741B",
"C. c #BA7A19",
"Z. c #A7680E",
"A. c #854B26",
"S. c #865927",
"D. c #955A27",
"F. c #855C35",
"G. c #9D5D3B",
"H. c #886729",
"J. c #966A29",
"K. c #99722A",
"L. c #87673A",
"P. c #966A35",
"I. c #8C733A",
"U. c #997538",
"Y. c #A66729",
"T. c #A77627",
"R. c #B77727",
"E. c #A67A36",
"W. c #B67B36",
"Q. c #B86D2B",
"!. c #A55F27",
"~. c #C17A27",
"^. c #826A46",
"/. c #8B7648",
"(. c #997846",
"). c #8A7757",
"_. c #957B57",
"`. c #896C4A",
"'. c #A1794C",
"]. c #8E7B67",
"[. c #835A43",
"{. c #BB821A",
"}. c #B98329",
"|. c #A9823B",
" X c #B68838",
".X c #B18C38",
"XX c #BDA337",
"oX c #D78C19",
"OX c #DB9019",
"+X c #C78828",
"@X c #D48C29",
"#X c #D6992C",
"$X c #C58B37",
"%X c #C8983B",
"&X c #D59B35",
"*X c #CB9427",
"=X c #D5A63A",
"-X c #E4A737",
";X c #E8AF38",
":X c #E19A2D",
">X c #9A8348",
",X c #9B8556",
"<X c #A88649",
"1X c #B58C46",
"2X c #BA9548",
"3X c #A78C58",
"4X c #B89855",
"5X c #AD9151",
"6X c #BDA259",
"7X c #958A6B",
"8X c #A89466",
"9X c #B59B66",
"0X c #AB926E",
"qX c #BAA468",
"wX c #B7A978",
"eX c #B6A96E",
"rX c #C89946",
"tX c #C39A56",
"yX c #C58C40",
"uX c #C8A44B",
"iX c #D6A649",
"pX c #C9A957",
"aX c #D5AD58",
"sX c #D7B252",
"dX c #E5B945",
"fX c #EAB04E",
"gX c #C6A866",
"hX c #D8B966",
"jX c #CCB978",
"kX c #D4B976",
"lX c #C9B071",
"zX c #EABB68",
"xX c #E8C959",
"cX c #EEC54B",
"vX c #D9C579",
"bX c #DBC765",
"nX c #F8CA67",
"mX c #E9CF70",
"MX c #E6D666",
"NX c #B4AA8A",
"BX c #B0B5AA",
"VX c #C7B88D",
"CX c #DBC786",
"ZX c #D5C997",
"AX c #E7D682",
"SX c #E9D18E",
"DX c #F3E790",
"FX c #DBD0AD",
"GX c #E6DBAA",
"HX c #F2EAB4",
"JX c #FAF8CB",
"KX c #F1EED3",
"LX c #F8FBE8",
"PX c #F5F6F4",
"IX c None",
/* pixels */
"IXIXIXIXIXIXIXIXIXIXIXIXIXIXIXIXIXIXIXIXIXIXIXIXIXIXIXIXIXIXIXIXIXIXIXIXIXIXIXIXIXIXIXIXIXIXIXIXIXIXIXIXIXIXIX",
"IXIXIXIXIXIXIXIXIXIXIXIXIXIXIXIXIXIXIXIXIXIXC q _ 3X9 e 8 b Z U U IXIXIXIXIXIXIXIXIXIXIXIXIXIXIXIXIXIXIXIXIXIX",
"IXIXIXIXIXIXIXIXIXIXIXIXIXIXIXIXIXIXIX2.d , ; o.FX2 : ; > @ ; 1 q :.3.,.:.IXIXIXIXIXIXIXIXIXIXIXIXIXIXIXIXIXIX",
"IXIXIXIXIXIXIXIXIXIXIXIXIXIXIXIXIXM , ; 5 : 9 o.7Xe > ; ; ; ; 8 S C e.3.,.<.J.IXIXIXIXIXIXIXIXIXIXIXIXIXIXIXIX",
"IXIXIXIXIXIXIXIXIXIXIXIXIXIXIX8 M V 9 M ..9XVX%.o.q.( w q 8 2 0 8 A U J <.H.yXtXE.3.IXIXIXIXIXIXIXIXIXIXIXIXIX",
"IXIXIXIXIXIXIXIXIXIXIXIXIXe 9 M P 9 b 0XVX..` D b b P q.P.F...U U J Z A ,.|.HXJX2XH.H.IXIXIXIXIXIXIXIXIXIXIXIX",
"IXIXIXIXIXIXIXIXIXIXIX8 , e V ` h y.0XQ V Z Q K m D '.K K P.5XP.[ ` U J Y 3.W.1XH.c.v.mXS.IXIXIXIXIXIXIXIXIXIX",
"IXIXIXIXIXIXIXIXIXIX9 , ].r.< < 6X..e e.CXpXuXcX%X:X0.D n 3XX.lX|.l.l.l.1.J.K.S.3.9XlX4XS.1.IXIXIXIXIXIXIXIXIX",
"IXIXIXIXIXIXIXIXH n : f.< e #.wXM M y.eXvX.X6XI.aXuX[ U A 2.;.K.U.U >.S.P.K.W. X4XT.DX<X<.z.:.IXIXIXIXIXIXIXIX",
"IXIXIXIXIXIXIXC m e f.%.X.X.D.P b K aXuXsXdXpXiXiX} ' -.z.v.v.2X;.{ ] ] z.k.4XM.P.S.ZXH.HX] ;.' IXIXIXIXIXIXIX",
"IXIXIXIXIXIXC D S w 5 w 9 M U.q.M Q 3XA.H.aX.XMXbXR.xX}.V.{. X;.v.M.z.' ;.l.E.-.-.Y >.<XY F P { IXIXIXIXIXIXIX",
"IXIXIXIXIXIXq ).> ].N < 9 B S.G.K n P { m.K..XsXuXXXMXC.+XV.2X*X#X#XV.M.S.1.' C 2.A D y.| q D [ -.IXIXIXIXIXIX",
"IXIXIXIXIXq y.; ; < M 9 b b P A.x.k.] L 3.m.-.;.;.m.#X;X;XiX+XOX-X+XM.-.' } _ K r 3 G t 8Xg.E L { [ IXIXIXIXIX",
"IXIXIXIXIXq b ; g.< 9 8 M M Z [ z.[ ] 1.z.<.;.l..XV.-XHX-XdXcXcX*Xl.1.;.] 2.D n t 0 J D j.3XO.e { ;.Y IXIXIXIX",
"IXIXIXIXd G M h NX, 9 M 8XD ` { 2XL 2.] c.c.M.M.}.#XcXnXxXcXJXdX{.m.3.[ G q S f 8 8 g.I.0 `.7.; k.;.[ IXIXIXIX",
"IXIXIXIXb n : 8 e 9 9 } V b P L $XU <.H.|.kXCXjXaXsX-X-XnXnXmXdX#XV.v.1.K F d 8 2 5 q 0 S w 8Xu ;.k.;.I IXIXIX",
"IXIXIXq b b < : M V 9 9 n b n [ %X4XE.U.(.J.K.J.}.+X-XDXMX-XdX:X{.l.4.' -.J q r ; ; ; 2 r : y.h.;.B.;.L IXIXIX",
"IXIXIXu.b q < : 9 n N 9 b b [ S.gXY -.-.4.K.T.T. X$X-XmX#XHXfX*XN.v.[ A K A C 1 1 1 @ ; ).*.w S.f V.k.[ _ IXIX",
"IXIXd Z n q : < M V ! < : b ' ZX' Y -.4.p.I.U.U.E.}.-X;X*XuXbXR.M.1.z.| _ <.U 0 1 @ $ ; r `.$ %XP.! ` [ :.IXIX",
"IXIXC b n L n f.< L.} b 2 f |./.U -.=.,.p.>X5X5X|.}.R.fX}.B.iXbXgX|.4.[ |  .K Q r 2 1 > ; 4 4 pXw v.v.[ <.IXIX",
"IXIXb Z P k.P t.: E V o.t U 4Xr -.3.4.p.6XSXHXKXvX.X.X=XuXpXm. XvXvXI.,.L Q d 8 2 1 2 $ ; @ T e.$ 1.Z.k.E.} IX",
"IXF K Z L b.Z : : < t ` D c.q.A =.4.N.|.6XJXJXHXmXAXMXMXxXHX2XT.4.T.m.M.L >.D f 8 m 8 @ % @ 3X> % 4 ;.[ L ' IX",
"IXq Z Z [ k.t % ; ; N o.L P.D K Y =.4.m.2X2X6X.X.XXX6X.X4XbXvX(.|.m.1.[ U z.;.Z ; 1 e ; @ 5 g.% . O 9 J J A IX",
"IXC P U [ L ; ; ; , P ! q.E L C =.=.=.K.I.|.i.,.*.:.4.Y -.=.3.c...U G A ].>...J ; 2 : e e 0X2 O O . > b Z C IX",
"IXS |  .Z 8 % % > t 5 y [.w G I Y d f :.*.:.I z I =.=.~ A U U _ ! S.b 8 > > > 2 % @ > < F.W.: % O . % 0 b A w.",
"IXq J q. .5 W 5 ! S.c.5 O.w m t C p 3 ~ I -.I z f I U ' C T d T 6 (.gX'.P.%.#.u ; ; : T.lX` : % . . . #.q (.:.",
"IX0.Q T W * !.A.&.! y.F.F., ; 6 2 6 p 3 a H f s s f K C S 1 & 7 : vX2.W d.>.} b m o.} P.Q % + O . . . K 0 P.} ",
"IXQ q N 4 , N f.> > e B CX>.2 1 & 3 3 0 1 Q p & 3 0 f 0 r 1 @ ; `.w.4 @ % . @ $ $ % , 2 N S.. .     O 3 0 H.I ",
"IXQ ,.& >.( : q.u S.{.R y.w.> 5 5 1 t W $ 1 = & & 7 1 r @ @ $ , 4X0 + O .   # . O o O y.i V.>.      . 1 3 L.~ ",
"IX3 q.2 t 1 m C.Z.b.N.-.: 2XS $ ; * t 2 2 6 6 + $ 1 6 T @ 2 5 F.S @ O + O . + % . . O }.E 3.oX~     + 1 3 f I ",
"IX0 S 0 #.1 T Y.Z.[ l.-.O d L.$ 5 9.h m 1 6 @ @ 8 ; t w 5 i > U.2 $ # $ O . . . . . & N.E Y oX+XX   + 3 f f IX",
"IXt 7 1 N & * n.L w Y Y @ @ ).y @ * F ).5.W 1 ; 9 0 D 5 $.u F.R 8 $ % @ . O . .     f N.E H OXOX:.. + 3 p H IX",
"IXI 1 6 ; & % C A.O.: Y w # N 7X# * 6 2 2 : 4 2 5 w 8 ; ; ; 9.i 7.$ 4 + % O   .     F N.>.C OXOX{.+ & a s H IX",
"IX*.1 7 O 3 + ; < J.K r 2 o # @.c . + 1 & 1 @ @ % ; ; % % F.i y 2 % + O O       . . Z 1.S.r +XOXR.X 1 a a IXIX",
"IXIX1 1 + p % ; M B X.> & .   - y.#   o O X . X + + % ; e W 2 ; 2 % % X .         1 G m T.> U oX@Xo 7 a 3 IXIX",
"IXIX1 & * 6 O % % e V @   .     # 9.^ t.y.0X0XVX0X9XpX4X_.T # O ; + O .           3 C 3 y.> w K +X2 f s z IXIX",
"IXIXIX& + & + ; : : %           O E @ @ * & @ + % t % @ 4 u x . O .             X 0 2 1 N E 4 3 ; @ l a ) IXIX",
"IXIXIX& & X + ; >               W O . . . X . X + % X O + @ u 4                 $ @ @ j ( L.%.y y = k s IXIXIX",
"IXIXIX& * & @ %             o T 6       X     . .   . . . . % y y .         O 8 w @ 7.x 2 2 Q E 2 d s f IXIXIX",
"IXIXIXIX@ 1 * %             % 9.o + . o                 .       4 E @ O @ ; 2 q t.s.$ 1 ; 4 2 . a k l IXIXIXIX",
"IXIXIXIXIX* + ; 4 .       o F.O o % O . + # X o         .         k #.< 0 m y.f.- 5 @ @ % O 0.X s 7 IXIXIXIXIX",
"IXIXIXIXIX& & .   . .   . % _ o 1 + O % + % . O % @ : : 9 2 : ; % % Q W.L.5.y 4 8 8 3 @ .   4 @ ^ k IXIXIXIXIX",
"IXIXIXIXIXIX& +         - @.#   O r <X%.t.$ @ % ; 8 n ` ` P M w w 9 e > # 8 9 m L -.;.+     . p I IXIXIXIXIXIX",
"IXIXIXIXIXIXIX& .         . # % 6 =XV.D.+X%Xr.R $.t G n J X.u.4 Y.P.e.#.e Z ' z.T. XT.F     * I IXIXIXIXIXIXIX",
"IXIXIXIXIXIXIXIX+ X       # L.y > %.$XB.iXV.D.K.pXgXM.B.>XxXxXS.-XW.J.~.U.M.W.iXfX$Xl.A   # f s IXIXIXIXIXIXIX",
"IXIXIXIXIXIXIXIXIX+ X . . O , J.5 S E.}._ B.C.C.E.~.-X{.<.{.;X#XY.&XrXW.&XiXfXfXyXc.Y 3 + s a IXIXIXIXIXIXIXIX",
"IXIXIXIXIXIXIXIXIXIX* . . % % t Y.%.W. XrX*X<.}.rX .M.R.9XG Y.&X$X$Xx.@XnXzXfXW.c.Y 3 @ p IXIXIXIXIXIXIXIXIXIX",
"IXIXIXIXIXIXIXIXIXIXIX& + % O # 6XR._ 2.T.XXiXmX{ T.} U.) ,.H.>.c. X*XzXzXrXE.>.S 3 1 7 IXIXIXIXIXIXIXIXIXIXIX",
"IXIXIXIXIXIXIXIXIXIXIXIX& & O . . h S.8X+.z f G ,.W ,.|..X2XNX2 y./ E.|.J.-.A f 1 1 7 IXIXIXIXIXIXIXIXIXIXIXIX",
"IXIXIXIXIXIXIXIXIXIXIXIXIXIX& & O X 8.2 R u E K ~ C g.#.I. .w.#.t > k f a 1 2 & 7 IXIXIXIXIXIXIXIXIXIXIXIXIXIX",
"IXIXIXIXIXIXIXIXIXIXIXIXIXIXIXIX1 & X y @ 6 k w N n e.P Z t t.2 y.} 7 % & s 6 IXIXIXIXIXIXIXIXIXIXIXIXIXIXIXIX",
"IXIXIXIXIXIXIXIXIXIXIXIXIXIXIXIXIXIXIX& & > 2 _ e.D i.<XwXp f.+ i , 2 & & IXIXIXIXIXIXIXIXIXIXIXIXIXIXIXIXIXIX",
"IXIXIXIXIXIXIXIXIXIXIXIXIXIXIXIXIXIXIXIXIX& = a f =.l g g 4 5.- @ @ IXIXIXIXIXIXIXIXIXIXIXIXIXIXIXIXIXIXIXIXIX",
"IXIXIXIXIXIXIXIXIXIXIXIXIXIXIXIXIXIXIXIXIXIXa l h.k a.l H.6X4.p l s IXIXIXIXIXIXIXIXIXIXIXIXIXIXIXIXIXIXIXIXIX",
"IXIXIXIXIXIXIXIXIXIXIXIXIXIXIXIXIXIXIXIXIX& = j.PXa.KXZXDXJXJXCX(.*.I l IXIXIXIXIXIXIXIXIXIXIXIXIXIXIXIXIXIXIX",
"IXIXIXIXIXIXIXIXIXIXIXIXIXIXIXIX= = 7 6.a s x 7Xj.KXKXGXvXJXLXLXfX4XH.3.G IXIXIXIXIXIXIXIXIXIXIXIXIXIXIXIXIXIX",
"IXIXIXIXIXIXIXIXIXIXIXIXIXIXIX* = * I a h.s VX8XFXAX3X0X4XqXNX).1X7._.pX^.IXIXIXIXIXIXIXIXIXIXIXIXIXIXIXIXIXIX",
"IXIXIXIXIXIXIXIXIXIXIXIXIXIXIX& s 6X8.a t.*.vXHXwXGXpX> ^ 5.K.aX X5X1XlXvXjXIXIXIXIXIXIXIXIXIXIXIXIXIXIXIXIXIX",
"IXIXIXIXIXIXIXIXIXIXIXIXIXIX& a g g t.,.w._ ,XI.w.w.I.# @.g ,.>Xi.5Xz.3XtXvXCXIXIXIXIXIXIXIXIXIXIXIXIXIXIXIXIX",
"IXIXIXIXIXIXIXIXIXIXIXIXIX7Xs /.I.^.pXKXLX,XeX8.i.8.eX4 e.lX+.7XNX4X,.VXt.4Xq.7XIXIXIXIXIXIXIXIXIXIXIXIXIXIXIX",
"IXIXIXIXIXIXIXIXIXIXIXIX8.w.i.,X<XU.rXLXKXZXgX8Xi.,X3X,XL.8X- = ,X0.h /.- o g.<XiXeXIXIXIXIXIXIXIXIXIXIXIXIXIX",
"IXIXIXIXIXIXIXIXIXIXIX5.,.ZXgX>X<X(.4XpXFX,.eXGXZXVXI.>Xi.5.g v 6.7.>Xc o o 6.).tXjXIXIXIXIXIXIXIXIXIXIXIXIXIX",
"IXIXIXIXIXIXIXIX4.1.m.4XK.3.qXw.t.,.wX/.9X(.FXPXPXKX<XL.8.`.,X^.+.+.g h._.VX5.<Xu.>XiXIXIXIXIXIXIXIXIXIXIXIXIX",
"IXIXIXIXIXIXIXIXV.hXmX*X|.|.H.,.e.#.1XqX/.6XgXjXL.I.,.0.y.`.(.).+.a.x g.u.g._.I.9.r.3Xt.IXIXIXIXIXIXIXIXIXIXIX",
"IXIXIXIX5X6X|.IX$XGXLXSXaXyX1X5.8.l ^ ,X4Xr.p k p /.5.9.8.L.g.l d.y.a.@.r.@.FXt.r.0XF.*.3XGXIXIXIXIXIXIXIXIXIX",
"IXIXIX,XE.(.gX4XaXrX;XSXW.|.>X0.5.U.>X) c g * y = ,X7.w.8.d._.,Xf.d.t.g.8.k y # k y.4XgXaXmXIXIXIXIXIXIXIXIXIX",
"IXIXIXw.<XH.e.H.rXJ. XhXU.P.1X^ 6 4 U.F g.v * c X 6.8.r.g.l +.y.F./  .@.+./ K Q g <X_.r.W.3XIXIXIXIXIXIXIXIXIX",
"IXIXIXL.<X4X<X5.8XI.E.5XI..XU.i.+.E w.Q r s.a.@.X a.g # # g  .` } R _ ^ a.g.) ) F O.r L.zXr.IXIXIXIXIXIXIXIXIX",
"IXIXi.2Xr.]./.H.4X^.F.<XJ.i.,X* +.w.t.t k = s.6.# BXv 4 # x R ] o.' %.~ #.9.X.q. .r.r.'.aX9XIXIXIXIXIXIXIXIXIX",
"IX/ 5.VX,XlXp.i.e.y.4XL./.y.e.$.x %.! c.$ g.+.u F.x 9.( y.k 9.A.z.D.F.D...X.P.Q.!.2.9.(.3X@.IXIXIXIXIXIXIXIXIX",
"IXl O.#.3X2.0.] X.q.F.P.8Xg.ZX%.h ( D.A.%.Q #.X.q.D.D.D.X.q.u.%X+XW.'.VX1.$XR.@X~.}.o.! X.IXIXIXIXIXIXIXIXIXIX",
"IX^ O.q.G.x.A.D.G.!.2.A...1.X.A.x.R.@XD._.q.A.Y.Q.!.Q.Q.~.@XY.c.E.S.h 7.k B 2.B.&XD.S.O.y.IXIXIXIXIXIXIXIXIXIX",
"IXIXt Q W #.Q E ) 0.D K | ! G w.F.e.F.`.8.8.+.s i #.! >.D h r u u ~ ^ ~ ^ w.5./ S.#.0.IXIXIXIXIXIXIXIXIXIXIXIX",
"IXIXIXy j +./ E ) ^ ^ W ^ h W ^ ^ +.l j j j O.j x x j x x x x x x v x x x x v x v IXIXIXIXIXIXIXIXIXIXIXIXIXIX"
};
