/* XPM */
static char *result[] = {
/* columns rows colors chars-per-pixel */
"64 63 107 2 ",
"   c #2F351C",
".  c #3F4C19",
"X  c #424F0D",
"o  c #44500D",
"O  c #434D16",
"+  c #434E1A",
"@  c #465115",
"#  c #485415",
"$  c #46511A",
"%  c #49541A",
"&  c #5F7504",
"*  c #667905",
"=  c #6A7D05",
"-  c #6C7E09",
";  c #424A26",
":  c #454D2B",
">  c #475024",
",  c #727D46",
"<  c #6D8305",
"1  c #6F8806",
"2  c #6E8409",
"3  c #718506",
"4  c #748906",
"5  c #7D8F07",
"6  c #70840B",
"7  c #758A0B",
"8  c #798E0D",
"9  c #7D9607",
"0  c #77910C",
"q  c #7C950D",
"w  c #7E9A0E",
"e  c #748612",
"r  c #768A12",
"t  c #7A8D13",
"y  c #7D9413",
"u  c #7E9A12",
"i  c #7D951B",
"p  c #7F9919",
"a  c #76862D",
"s  c #7C8E2D",
"d  c #7F912D",
"f  c #758631",
"g  c #768832",
"h  c #798935",
"j  c #75813D",
"k  c #7D8B3D",
"l  c #7E9131",
"z  c #798547",
"x  c #829607",
"c  c #869E07",
"v  c #80960D",
"b  c #849D0E",
"n  c #899F0E",
"m  c #819614",
"M  c #849E14",
"N  c #889F14",
"B  c #81961A",
"V  c #859D1A",
"C  c #889F1A",
"Z  c #87A207",
"A  c #86A00E",
"S  c #8AA30E",
"D  c #86A114",
"F  c #8AA314",
"G  c #8EA816",
"H  c #86A019",
"J  c #8BA41A",
"K  c #8EA91B",
"L  c #91A716",
"P  c #92AB15",
"I  c #91A61C",
"U  c #93AB1B",
"Y  c #99AE1C",
"T  c #97B116",
"R  c #9AB414",
"E  c #97B11B",
"W  c #9BB31C",
"Q  c #9FB81C",
"!  c #A1B51E",
"~  c #A1BA1F",
"^  c #829625",
"/  c #859C22",
"(  c #899E21",
")  c #81932E",
"_  c #869A2A",
"`  c #899D2D",
"'  c #819332",
"]  c #869933",
"[  c #8B9E34",
"{  c #82923C",
"}  c #8DA422",
"|  c #8FA921",
" . c #8AA228",
".. c #90A622",
"X. c #94AB21",
"o. c #99AF23",
"O. c #98AF2D",
"+. c #97B125",
"@. c #9BB322",
"#. c #9EB821",
"$. c #9DB42A",
"%. c #A1B523",
"&. c #A2B925",
"*. c #A1B728",
"=. c #A1B92B",
"-. c #A6B730",
";. c #829141",
/* pixels */
"  : : $ % $ $ $ + ; + + ; $ > + # @ @ # # $ @ @ # @ @ @ O @ @ O # @ O # # @ o # @ # @ O @ @ O @ O O # O O # O # # @ @ # $ ; ;   ",
"+ z ;.s d ' { ' ' ' ' { ' ' ' ' l l ' ' ] ' ' ' ' ' ' d ) ) ) ) ' ' ) ' ' ) _ [ [ ] ) ) l ' { ' ) ' ' ' ) ' ) ' ) ] ) ^ s { z ; ",
"@ { [ V J b N H J N M M M M C V J } } K } J V C C C H C C V C V V V C ( V J @.$.$.X.C V V ( ( ( C C V V V N V C ..O.U L N ` ;.+ ",
". l / M D A P E @.P S S A F G G P P I K U H M C M H H m M N n D F G X.K D J J U +.$.I M C N m J Y L N N N N b N U @.@.#.+.} s @ ",
". d p u u K W W E E P D A J G G T P P T L H H M N C N M N U I S A G H D M V M H K K M b N N H X.o.o.L n n n b N G H U U E G d O ",
". s y 9 u K +.I G E +.F F G U U P G G G L H N C C D M n L *.Y b D K D M H M M D K J M M n F n Y ! ! Y L n L b M D M M F P H ) O ",
". d y w u H K M b J J J H K X.K P P P P G N N M M N b b U %.L b F +.J H H u u q M M b N F Y L W ! ! ! @.o.I N M M p D M S N ) # ",
"+ l H w u | | } C J H H H K K K P P U I J M N N H N F S W +.b n D J H H H V M u M F n F S W W W Y Y Y %.o.L N v p J X.I b M ) O ",
"O ' N n N m B V B B B y V H | J L L P G H H J C N H L P #.Y b N M M V V H H H u F F G U S W W P S S E @.L M q 0 p | $.X.D V ) O ",
"+ ) C F N m = 3 7 = 2 - p M K J H F H F N F U G G Y +.@.#.U n N D V H H H H D u D A K E S %.W S S F E #.K b w 0 u G ..K D M ' + ",
"O ) I Y o.*.8 = r y B 6 H M D D N b N M M C J H I #.Y U I F M M M H V H p D D | K A D D n +.U n n n K +.G D w w u M H V M V ' + ",
"O ] ..! *.=.F 5 m C V B V p D D M M M H N M M N F G S n b N M V V V H M H D D #.#.F D D N I I C M A J K D D D D D D H V N C ' O ",
"O ) L L @.*.Y F H H u p p H D D M M H V H V J G F n b b w w v M V H p D D D w E K F m J C C C C M D H D H D M D b F C V M V ' + ",
"O ) N n U @.@.L D H u w p H u D D M M J M D J | G b n M w w w H V V G D p G D u q H V V V V V C H D M M D D D D D M H M b V ' + ",
"$ ' C F F o.Y J D M D u p p u D F D D H J M D K G A M D u u w D u u p p p D K H = 2 t e 6 7 6 C V H H u D D D M D M H D M V h + ",
"$ ' V N M H H F D D u u G D p D J D D M V M p D D M M D u u D D F D D p D u G H } * e e r - 7 V p H D H G J D M M u m V M V ) + ",
"+ ' V b u q u M D D D D G D F G G G F D H J H H D M D D M D J F A A A M D H u y J 2 y / p u p p D M p H | K H D D u p H D V l . ",
"+ ' V w q q u D D D S G P T P P P L H F K | H H M M M b F U W E A S F b D u D K V / V J } K D G M D F H G H F H H H H H D H d . ",
"$ { V b w u u D D w F U #.W E P P K G D K | H u N C N n G W %.W P P U G S D u D H M K | | K K D p H H D A D M D H H H H D V l O ",
"+ ' V M p H u u A S P Q W %.! W E P G G | H H H H H H F S W ! ~ W ~ Q G A D D F | U U U X.K K H D H D D D D D D H u u H D V l + ",
". l H D u p H p H Y E Q ! ! ! %.@.U F G K u u p M H J o.Y #.W Q Q ! E L n F D G K P P P I P K D H H p D D D D D H M p H D V l + ",
"$ l H u H H p G L W W Q R Y S Y +.G D H p q q w M D G @.@.Y L P W @.P F F D J K I P T I L G D D u H D D D D M D H M u M M H d + ",
". l H D H p H u n L L L L L x N E D D D u u u u M A D J H N b S @.@.L N N D H L T W W E L b w m H H D D M D D D M u q p D V l . ",
"$ l H u H J H H n n c L S L F X.G D H D M D D D D D b N v b b D @.+.F M M F S L W ! W W I b m m H H p D D D D D M u u M M H l $ ",
"$ d H D D J D D M M b F D F U +.D u H D M D M D D M A M w u M M X.X.M H M D M G L @.Y I G N M N M M b K +.P F D M V M M D V l $ ",
". d D S F J J D D M M M M D D J D D D D D D M D D M D M u u M M M C M H M D b F M U U F M N H M D M A E W Q P A M M H M D V d + ",
"O ) H F J G G G D M M V p D D D D H H H D M M D D D H V M V H V M D M H D J M F F F H M M H N C M M S E #.#.L F M M C M D V d + ",
"+ ) H P K J H G H V D V H V M D H H H u V H D D D F H p V M V D V D D G E U P F N b b N N C C M M M J +.@.E G N M V J M D V l . ",
"O ) J U X.H D J K H M H H V p w V V M V D N D M F H J i y B C H M M D L @.+.#.G J b H N M C J V N N J U U L F M V M V H D V l . ",
"O ) H P U F D J K H D V p H D p V H V V J V M H H G J m u m m C D M n N G F E +.U M F M V C V V M M N H b b M H V V V M A V l O ",
"O ) V S K D D D D u H H H p p V V J V } J m J N D K J y m m V M b F G U b G G U U J H N C J C C M F N b N F M V M J p M D V l + ",
"O ) M F I J D D D M D u p 1 0  .i y t 8 m J I I U U I M N N M N N N F I b H M N J C N m N V m N N H b b M F N N M H u q w V l + ",
"O ) D F U D M M D D D p p 2 & 2 = 3 < 6 C C ..I I U L n F U I N J J C C m C N N V M V M N V M K K H b F F b M D b M q 0 w p l + ",
"O ) J S X.J D M H F D u p p 2 i B ( 8 y m M J J H F n c L W W I C J C B m C m m J M M C N M J @.@.X.F S F H F J b N q y w V l . ",
"O ) J J X.K J J K K K | H H i i ( ( B m C N H D n N n Z T W o.o.4 8 C 7 8 8 3 8 V V D D N M G @.@.@.F F K U U E I G D M D V l > ",
"O ' D D J C N U U K F D u } V / / C V V M N G G F b N n P o.@.*.x v - ..- 8 3 8 H H J D M b D U @.U L U U @.+.+.I K D M M V l $ ",
"O ) H A N m ....U P F D D M u p V V V M A D K K U H H n D J G U C v -.o.I m q M D u D p D A D F I I F L G E P F D F M N D M d + ",
"$ d D A b M U L U G S A D M M V B H M M D D K G K M H n A D M F m m *.O.X.C M M p u D M D D u H I U D S b F S D S H H N b V l O ",
"O ) H S G F b G G F S S K J M M u D D D J K I G J D H M D H F H N I o.$.X.J J J D u D D D u F K U K A S S E R L b b F N b V ' O ",
"O ^ N S Y X.b G F W S G E P w x w A F G E W U H G M D D H H u u N N U U G D D M H D D D H D H | K F D W Q T P G L #.@.J D M ' + ",
"O ) J E %.Y b G F &.P G L P x q 9 b L E W +.P F S M M D p u w u D M b M w A M M D H F H H M H J G A F #.Q T P T Y *.*.X.N C ) + ",
"O ) X.! @.o.b H F +.U A S X.N b b A L E W W G S b G J u u u u D D D D M D M D b D K H D M M H D D D G E R P P P Y @.@.U F m ' O ",
"O ) L Y U K b F b G F n D U +.F S G U W Q W P S S U K M u u u D M M M M M M H M u K H D D D D M D G K P E L G P I U U H F V ) O ",
"O ) m S H D M M M F N H F L @.Y F F P Y W #.R Q T W U D H H H H M M M M M u m M J J D D D b M D F K U P U P I L G H N N b V ) + ",
"@ d p Z b u H H J M M M N N L Y U n c S R &.R Q Q Q U J M M M C J V C N m m u m H H M D D D F b F U K I U I L K J D M M D M ' O ",
"$ d M A b M H M m b N N m C N B ..N b n E Q R E P R P D N M M J } C C m m y y B p V N G P U L N J | } U ..I U K J D D D S V ) + ",
"O l V D M D H D m N N I L C C C m ..I b T E E P S F H N C V C V m V V V m 8 m y } m G T R Q R F B m ( ( i ( m y 0 M D M M M ' + ",
"$ d V D M V D V V N N C } C B e t B 6 5 N L F A b b N C M C N V J C C V m q m m V V G R R Q W U C - 3 6 7 7 < < 4 M M D D V ' + ",
"$ d M M M V V H V V V 2 e / e e - - * 3 V N N N N C V C V N V N H H D D D H H u N M G W ! W @.L m v - m B t m v q X.X.H D V l $ ",
"+ s M F M V V V H V H t * 2 & i e e e 8 C N N m V V C V C N N M n M S F U K K H C M N Y W ! @.L Y m - N C C J m M =.+.H D V l $ ",
"+ ) K I D D D D D V M O.3 t t _ C ( B V C V N C M V V V C M M F S F G I U K K D N M m F F P U U ..L x L M M H H M X.J V D V l + ",
"+ ) K +.X.D u D D M M X.J N J C C C N N N N m N M J m m b H U X.I L U K U U G D M N N N N b L P %.o.L N M J H D D M D M w V l + ",
"O s J G J M A A D b F U I L U G A F A M S D w D M D u q y J @.@.E G L I | K F D M M M V J N U Q ! @.G N N M V p D u u M D H l . ",
"O ' m b G H D D M M F I I U P P G F G G G G w D D D u u u K #.+.E F A J | K H u b M m B C H P ~ W W G F H M M M H p u u w V l $ ",
"+ ' C F I J H M M M M J L Y T P E K K U E K u F D H u p u H Y U F 9 9 w J H u D u u y i V M T R W E S F D M V V H p p p w p l ; ",
"+ ' J F J C V B u y m J F U P P P K K K K H u H D D K } m M M S b 9 q u H H D D D y q t M b P R E L A M H M V V H H V p q p l $ ",
"$ '  .} H V M u y y u H H J F F H G H D H D D H M D H H N N C N N M b M M M F b N M M u m N G W #.U F M M M u m p  ./ C B _ k O ",
"O d / J J H M u w q u H H V D D H H H D H H H H V N H H N V C C J M N H b b S b F M M M M N N U @.U H M J m q m y V V C V _ { @ ",
"o ) H F E K H p u p D M M V H M u J H u D H H H M H C N C V C C ( C N J K L I G I J N V C V M G ..J D J ..} m m p V V A M C ) X ",
"o ^ H S T G H D M M D D M D M D H K K D u D D u M D H C V C V C J N G U W +.Q P o.I F M N C M H F n D I $.@.H m M V D Z c M ^ o ",
"o ' C D D D D D D D D w D D D D H K K u D D D D D D D V N V V V N M G +.#.+.E S I N N M M N N C b N F G U X.H N N m b n M ( ) X ",
"O { ] _ / H H / p p  . ./ / / / p  . . ./ / / / / / / _ _ _ ( ( / V V J ..| K V C C V / / / _ _ V V V V ( ( C ( V / V / ^ ] ;.+ ",
"; , j k g g f f f f f f f f f f f a f f f f f f f f g f f f f f a a a a a a a a a a a a f f f f a a a a a a f a f a s h h , , ; "
};
