/* XPM */
static char *result[] = {
/* columns rows colors chars-per-pixel */
"55 57 114 2 ",
"   c #94719E",
".  c #95729F",
"X  c #96739E",
"o  c #96739F",
"O  c #95759F",
"+  c #96749E",
"@  c #97749F",
"#  c #96759F",
"$  c #9673A0",
"%  c #9774A0",
"&  c #9776A0",
"*  c #9775A2",
"=  c #9875A1",
"-  c #9975A1",
";  c #9876A0",
":  c #9976A0",
">  c #9876A1",
",  c #9976A1",
"<  c #9977A1",
"1  c #9A77A1",
"2  c #9975A2",
"3  c #9976A2",
"4  c #9977A2",
"5  c #9A76A2",
"6  c #9A77A2",
"7  c #9B77A2",
"8  c #9A76A3",
"9  c #9A77A3",
"0  c #9B77A3",
"q  c #9D77A2",
"w  c #9E77A2",
"e  c #9B77A4",
"r  c #9778A1",
"t  c #9978A3",
"y  c #9A78A2",
"u  c #9B78A2",
"i  c #9A78A3",
"p  c #9B78A3",
"a  c #9B79A3",
"s  c #997AA3",
"d  c #9C78A3",
"f  c #9C79A3",
"g  c #9A78A4",
"h  c #9B78A4",
"j  c #9B7AA4",
"k  c #9B7BA4",
"l  c #9C78A4",
"z  c #9C79A4",
"x  c #9D79A4",
"c  c #9C79A5",
"v  c #9D79A5",
"b  c #9F79A4",
"n  c #9E79A5",
"m  c #9C7AA4",
"M  c #9D7AA4",
"N  c #9D7BA4",
"B  c #9C7AA5",
"V  c #9D7AA5",
"C  c #9D7BA5",
"Z  c #9E7AA4",
"A  c #9E7AA5",
"S  c #9F7AA5",
"D  c #9E7BA5",
"F  c #9F7BA5",
"G  c #9E79A6",
"H  c #9D7AA6",
"J  c #9E7AA6",
"K  c #9F7AA6",
"L  c #9E7BA6",
"P  c #9F7BA6",
"I  c #9F7BA7",
"U  c #9E7CA5",
"Y  c #9E7CA6",
"T  c #9F7CA6",
"R  c #9E7CA7",
"E  c #9F7CA7",
"W  c #9F7DA7",
"Q  c #9F7EA8",
"!  c #9F7FA8",
"~  c #A07AA5",
"^  c #A07BA6",
"/  c #A07BA7",
"(  c #A07CA7",
")  c #A17CA7",
"_  c #A07DA7",
"`  c #A17DA7",
"'  c #A27CA6",
"]  c #A27CA7",
"[  c #A37CA7",
"{  c #A27DA7",
"}  c #A37DA7",
"|  c #A07CA8",
" . c #A07DA8",
".. c #A17DA8",
"X. c #A27DA8",
"o. c #A37DA8",
"O. c #A07EA8",
"+. c #A17EA8",
"@. c #A07EA9",
"#. c #A17EA9",
"$. c #A17FA9",
"%. c #A27EA9",
"&. c #A27FA9",
"*. c #A27FAA",
"=. c #A280A9",
"-. c #A280AA",
";. c #A380AA",
":. c #A381AA",
">. c #A380AB",
",. c #A381AB",
"<. c #A480AB",
"1. c #A481AB",
"2. c #A481AC",
"3. c #A482AC",
/* pixels */
"..............................................................................................................",
"..............................................................................................................",
"..............................................................................................................",
"..............................................................................................................",
"_ ( ( ( ( ( ( ( ( ............................................................................................",
"( ( ( E E E E ( ( ( ..........................................................................................",
"E T P P P P P P E ( ( _ ......................................................................................",
"P P P P P P P P P P T ( ( ( ( ................................................................................",
"( P P P P P T P ( ( ( ( ( ( ( ................................................................................",
"( P P ( ( ( ( ( ( ( ( ( ( (  .................................................................................",
"( ( ( ( ( ( ( ( ( ( ( ( ( (  .................................................................................",
" .( _ ( ( ( ( ( ( ( ( ( ......................................................................................",
"..............................................................................................................",
"..............................................................................................................",
"................................( ( ..........................................................................",
"..............................( ..#.%.%.#.#._ ................................................................",
"............................( ..&.-.;.*.&.&.( ( ..............................................................",
"..........................( ( %.-.:.<.>.;.#.P P ..............................................................",
"..........................( / ..=.:.2.2.;.E A A  ......... ...................................................",
"..........................( P V L O.,.*.T l x x ( ........( ..................................................",
".........................._ P l 1 6 L L p 6 z p E ......( (  .................................................",
".........................._ I x : @ = l p 0 p 6 P +... .( ( ( ................................................",
".........................._ I x : # % 0 p 6 9 5 T %.&.....( ( _ ..............................................",
".........................._ ( x ; # $ 6 6 , 5 7 &.;.<.&..._ ( ( ..............................................",
".......................... .( v < + . 3 3 - 6 z ;.;.;.+. .( ( ( ..............................................",
".......................... .( A 1 X . 3 6 4 p A *.&.%.( T E ( ( ..............................................",
".......................... .( A u O   2 y a m L R L L L P P E ( ..............................................",
".......................... .( P f ; o 8 p z m M A A A S P P P ( ..............................................",
".......................... .( ( D p 8 z M M z x M A A F P P P  ...............................................",
".......................... .( ( U m c l z M z x M A D P P P T ( ..............................................",
".......................... .| E D N V h p f x V V V L P L P T ( ..............................................",
"............................| P D C H l f f x V V L L T L P E _ ..............................................",
"............................( P D C A l x M z V A L T L L E (  ...............................................",
"............................| P D V G v x L A A Y E T T P E E  ...............................................",
"..............................( T D J Z M L T E E ( W L L P E  ...............................................",
"................................_ T J n Z L L L P Y D J A P E  ...............................................",
"....................................( K A D L J J C V M x A L _ _ ............................................",
"....................................` _ E L M m V B z 6 h l V P _ ............................................",
"...................................... .W T L D D M u p T W _ ( _ _ ..........................................",
"...................................... .( ( ( E P V z $.3.1.;.%...............................................",
"...................................... .( ( ( E L d z >.1.1.;.%.+.............................................",
"...................................... .( ( E E A p V ,.3.,.;.%.+.............................................",
"......................................_ ( ( E T A z V +.1.1.>.&.+.............................................",
".................................... ._ ( ( ( P A z x z E  .%. .( ............................................",
".................................... .( ( ( E P V l x p l v L P ( ............................................",
".................................... .( ( E T L V d z p d l z J ( ............................................",
".................................. .( ( ( E P A z z z 0 z 0 0 J ( ............................................",
"................................ .( ( ( E I L V h h z h e 9 0 P ( ............................................",
"..................................( E P P L V z g i t t * > p E  .............................................",
".................................. .W T L V m j k k s r & > m _ ..............................................",
"......................................` ) ) ] { { ' ~ w q b ) ................................................",
"....................................X.X.X.X.o.o.o.o.[ ~ ^ ) X.................................................",
"......................................+...+.#.+. .@.@.O.@.#.+.................................................",
".................................. .O.O.O.O.O.O.O.Q ! O.@.@.+.................................................",
"..................................X.X.X.X.X.X.o.o.} } ] o.X.X.................................................",
"..............................................................................................................",
".............................................................................................................."
};
