/* XPM */
static char *result[] = {
/* columns rows colors chars-per-pixel */
"64 64 212 2 ",
"   c #1B0F05",
".  c #1B1307",
"X  c #1B150B",
"o  c #1E190E",
"O  c #161711",
"+  c #1C1711",
"@  c #1C1A13",
"#  c #1D1D1A",
"$  c #231907",
"%  c #231609",
"&  c #241B0F",
"*  c #2A1D0D",
"=  c #211711",
"-  c #231D14",
";  c #2B1D12",
":  c #231E19",
">  c #3D1F12",
",  c #28220F",
"<  c #3E2406",
"1  c #35220A",
"2  c #3D250B",
"3  c #3D290E",
"4  c #252216",
"5  c #2B2215",
"6  c #23221C",
"7  c #2D241A",
"8  c #26281D",
"9  c #342515",
"0  c #3B2612",
"q  c #362915",
"w  c #3B2A14",
"e  c #32261A",
"r  c #3D2618",
"t  c #362B1C",
"y  c #3B2C1B",
"u  c #3F3116",
"i  c #242522",
"p  c #2C2522",
"a  c #272824",
"s  c #2B2A25",
"d  c #2E2E2A",
"f  c #352E22",
"g  c #3B2D21",
"h  c #352F2C",
"j  c #392E2B",
"k  c #2E322D",
"l  c #353125",
"z  c #3D3122",
"x  c #33312B",
"c  c #3F312A",
"v  c #323130",
"b  c #442406",
"n  c #492707",
"m  c #442905",
"M  c #492906",
"N  c #43250B",
"B  c #49270C",
"V  c #452A0C",
"C  c #4B2C0C",
"Z  c #522F0E",
"A  c #4D310E",
"S  c #52320E",
"D  c #432611",
"F  c #482614",
"G  c #442B13",
"H  c #4B2D12",
"J  c #422D1A",
"K  c #4C2E19",
"L  c #532D11",
"P  c #463016",
"I  c #4D3214",
"U  c #44321B",
"Y  c #4C331B",
"T  c #4F391C",
"R  c #523313",
"E  c #593714",
"W  c #553916",
"Q  c #5A3B16",
"!  c #53351A",
"~  c #59371A",
"^  c #543A1C",
"/  c #5A3C1C",
"(  c #453624",
")  c #4B3621",
"_  c #4C3B25",
"`  c #443829",
"'  c #4B3C2C",
"]  c #553721",
"[  c #543C23",
"{  c #5B3D22",
"}  c #543F29",
"|  c #5E3E29",
" . c #453A30",
".. c #4C3E33",
"X. c #603E23",
"o. c #5C411D",
"O. c #61431D",
"+. c #6B471C",
"@. c #6D4C1E",
"#. c #734E1F",
"$. c #6E511D",
"%. c #75551D",
"&. c #4E402B",
"*. c #554123",
"=. c #5D4223",
"-. c #53432C",
";. c #5D442B",
":. c #5C482F",
">. c #4D4535",
",. c #524333",
"<. c #564936",
"1. c #5A4B33",
"2. c #534538",
"3. c #5E513A",
"4. c #634424",
"5. c #694625",
"6. c #654A26",
"7. c #6D4D25",
"8. c #64452A",
"9. c #654B2C",
"0. c #6C4E2B",
"q. c #714E24",
"w. c #704E2A",
"e. c #6D5125",
"r. c #67512D",
"t. c #6D512C",
"y. c #735225",
"u. c #795425",
"i. c #795926",
"p. c #73532C",
"a. c #7A552B",
"s. c #75582D",
"d. c #7C5A2C",
"f. c #634C32",
"g. c #6C4E31",
"h. c #6A4F39",
"j. c #714E33",
"k. c #635235",
"l. c #6D5232",
"z. c #625339",
"x. c #6C553A",
"c. c #6D593C",
"v. c #735432",
"b. c #795632",
"n. c #755935",
"m. c #7C5B34",
"M. c #735638",
"N. c #785739",
"B. c #745A3A",
"V. c #7B5C3B",
"C. c #7C6337",
"Z. c #7D613C",
"A. c #745B43",
"S. c #7B5F41",
"D. c #766145",
"F. c #7E6241",
"G. c #77664B",
"H. c #815C2E",
"J. c #825E33",
"K. c #885F33",
"L. c #815E3B",
"P. c #846235",
"I. c #8A6436",
"U. c #84633B",
"Y. c #8A663B",
"T. c #866A3D",
"R. c #8C6A3D",
"E. c #926E3F",
"W. c #94733F",
"Q. c #846543",
"!. c #8A6543",
"~. c #866945",
"^. c #8C6B43",
"/. c #85654A",
"(. c #896648",
"). c #866949",
"_. c #8C6C4B",
"`. c #916745",
"'. c #916C43",
"]. c #916E4B",
"[. c #8D714B",
"{. c #937145",
"}. c #987347",
"|. c #94734D",
" X c #9A754C",
".X c #96794D",
"XX c #9C7A4D",
"oX c #856B52",
"OX c #8D6D50",
"+X c #926E52",
"@X c #957454",
"#X c #9A7551",
"$X c #967A53",
"%X c #9C7B54",
"&X c #93775A",
"*X c #96795A",
"=X c #9D7C5B",
"-X c #A1794E",
";X c #A17D54",
":X c #AA7E55",
">X c #A27E59",
",X c #A07D60",
"<X c #9E815D",
"1X c #A38256",
"2X c #A4835B",
"3X c #A8845A",
"4X c #A9895F",
"5X c #A58562",
"6X c #AA8662",
"7X c #AB8A62",
"8X c #A68A6A",
"9X c #B98E65",
/* pixels */
"x x x l l t l t l l x x x x k k v v v v v h h h h h h h x x x x x l l l l l l l l l l l l l l l l x l l l j l x j j h x x x k k ",
">.-.-.&.-.&.-.1.3.( ` ' <.2.2.2... . . .j g t ( ' ....-.-.,.-.-.-.} -.} -.} -.1.-.} P 3 k.G.G.c.D./.B.U r y z z g y J y w g  .x ",
"3.r.e.6.r.;.k.c.c.P P 9.A.h.:.Y G F D r 0 J J _ 1.f.x.9.9.r.9.r.0.0.g.7.0.g.l.l.0.R B w.%X$XT.P.^.}.>XN.Y 2 J 9 J } { ~ I D ' z ",
"3.9.r.e.e.9.l.l.r.P P :.f.8.K N D G D D D 0 D [ f.g.l.k.l.t.r.e.7.7.7.r.r.l.v.l.4.H 0.=X[.m.s.P.H.Y.%X7X9.2 D } /.*X#X@XV.Y u t ",
"3.6.7.7.0.9.l.f.^ N J Y ] B R Q.@X>X&XS.8.] D N K =.9.0.t.s.l.s.e.$.e.e.t.l.r.;.V { +X+XV.y.y.@.y.H.Y.6X(.H P oX&XL.b.`.=X/.w t ",
"k.r.p.7.7.r.l.9.I G N N N H Q.#X^.!.!.|.>X+X(.j.R b A o.4.r.s.l.l.s.r.t.t.9.[ I B j.(.V.y.y.y.@.y.q.L.%X*X! Y /.N.q.w.H.2X=X0 t ",
"f.7.7.y.7.0.M.9.I N < V B V.%XL.H.H.K.R.Y.!.}.:X%Xp.S M A =.9.g.t.r.6.6.o.T V V / w.b.s.7.7.$.7.q.a.m.@X>XB / l.j.5.q.H.%XOX0 t ",
"k.r.y.7.l.M.x.{ V 3 ! f.|.|.I.a.u.u.u.u.u.a.K.I. X3X1XO.b R Y [ Y Y Y Y G A I =.t.y.q.@.#.e.e.7.q.0.b.!.V.V / 0.q.+.u.H.-XB.G z ",
"f.l.t.y.p.x.f.! D R ).5X_.b.a.u.q.#.q.q.u.#.H.%.P..X1X%X! D D 0 K F K ] K 8.9.0.7.$.$.$.$.6.e.e.7.j.M.4.A m O.t.w.5.#.u.'.m.0 t ",
"k.M.s.y.v.9.] D D 8.).V.p.s.a.q.q.5.q.q.q.#.#.q.i.I.^.4Xb.b D D F D ! | g.x.l.r.r.e.e.$.$.e.r.t.x.g.6.~ V R =.t.7.q.7.p.U./.w t ",
"1.l.l.r.8.[ U 0 D ! t.s.p.5.7.q.q.w.0.0.w.5.w.w.u.C.R.$XV.b b N F B b N V H =.o.=.6.e.e.r.s.n.B.v.h.[ V A o.e.r.r.6.e.p.t.Z.U t ",
"&.^ o.^ I G D D D Y 7.p.a.q.w.w.w.0.w.g.g.j.j.j.0.P.T..Xt.M o.b.].#X;X>XQ.4.2 < A P o.=.e.l.l.9.=.Y U G ^ =.e.6.r.0.7.y.t.=.U f ",
"t D G m m N ] ^ F Z 5.p.p.w.q.w.w.w.0.g.0.w.j.w.b.m.Q.Z.E p.%X<X XW.E.R.%X5Xg.B V o.R V I E R Y J D D Y 9.9.e.6.r.r.t.r.l.*.q f ",
"` J D V I W l.(.w.n ~ j.j.w.0.q.0.w.w.w.0.7.7.7.p.l.B./ 7.|.R.H.u.%.i.u.C.%X_.n v.<X|.w.C H H Y N G Y ^ l.t.s.e.6.6.l.M._ 3 t s ",
"<.U D ^ o.b.p._. X~ I 6.v.7.7.7.7.q.q.0.w.5.w.7.t.4.R Y /.!.p.y.#.7.y.s.U.5XOXR n.T.~..X X$X$X@Xf.m J { | R R I T o.^ [ 3 u t k ",
"1.w R t.7.e.7.I.XXp.A 4.7.7.7.7.7.q.7.7.q.7.7.0.9.H V 6.N.w.q.q.q.7.m./.*X=Xg.R 7.b.C.i.R.E.R.$X*X! K b b C B V C m m I Y y l k ",
"-.G o.r.e.$.@.T.'.b.B o.t.t.r.e.7.e.w.7.p.g.0.8.H N { g.x.v.v.7.p.M.V.0.| Y 2 ~ l.7.7.7.y.a.J.^.<XO.V 9.OX,X,X,X+XL.0.b > 9 j x ",
"_ G 8.0.7.e.@.P.}.L.N ^ r.l.0.7.7.t.t.0.v.9.{ V G ^ 9.M.g.v.g.7./ I C C b b B R 0.v.t.5.y.q.m.Q.m.V 0.@X+X`.+X`.(.`.].M.N y x x ",
"t J [ g.9.7.7.V.`.X.F L =.l.v.l.g.g.x.g.=.Y N Y ^ 9.8.9.6.{ { Y A W o.o.E Y R N H 4.0.g.j.w.b.g.~ n b.L.J.H.H.H.b.K.I. X0.u f x ",
"t J Y 9.l.l.7.b.j.~ F B Y ~ =.8.9.8.| ] K 2 Y ^ / R R C B b n L Q.XX.X{.|.|./.v.~ F ! X.h.8.g.{ B ! 0.p.q.q.#.#.a.a.Y.^.<Xu t l ",
"f r D ! { 4.o.~ L n L L B Z n V K K D J K [ 4.H C Q 7.P.m./ B v.<X{.T.P.Y.R.|.5X@X4.B B H | [ ! 2 ^ 6.7.7.q.q.q.y.p.Y.Y.[.U t l ",
"g J D H V C C L X.j.`.-X#X].b.~ b < K Y ) Y b =.~.4X%X{.XX%XS U.^.d.u.i.J.Y.I.~.$X%XY.w.8.G G H m ^ 0.r.w.q.w.w.q.p.I.^.n.P t l ",
"t D Y ^ b R J.|.9X9X9X:X-X3X7X>XV.R 2 P P 2 0.=X%XR.K.I.Y.>XM 7.b.b.a.a.u.q.a.i.H.R.E.XX4XB.m m 2 =.r.l.g.0.w.8.w.j.L.Q.f.w l k ",
"f D ^ t.S / %X>X`.I.K.I.Y.I.R.;X7X[.o.m 3 ! @X[.V.y.i.i.R.XXC 0.0.s.y.7.7.q.q.q.y.i.i.P.^.5X^ B H =.9.0.g.g.g.j.w.b.p.M.K u l x ",
"e 3 ^ C.7.V m.a.d.a.a.a.u.a.J.K. X1XXX5.B R F.V.b.y.7.u.R.>XA 4.v.y.y.e.7.t.7.7.7.y.u.d.T.}.b.b L 9.g.g.g.g.g.0.7.w.0.0.P y l k ",
"r D o.V.P.C O.p.a.w.q.7.@.#.u.H.R.{.1X1X/ n 4.p.e.y.7.e.m.$X/ W r.e.e.e.7.7.0.7.7.e.e.i.I.^.Y.S E 9.g.g.5.w.w.w.7.p.7.l.T y l k ",
"t G =.n.~.A Q a.a.q.t.7.7.q.u.a.H.I.'.3X%XZ Z w.6.y.y.7.y.V.o.C 9.e.e.e.e.7.7.7.7.e.e.s.U.P.U.Q E 6.0.0.w.w.q.7.7.p.7.v.*.q f k ",
"q P 6.B.).S o.s.p.7.0.7.7.q.q.y.u.P.I.}.7Xa.n O.p.y.@.7.r.6.! G 4.e.e.e.7.r.7.r.e.e.s.s.V.~.~.Q S p.7.7.q.7.q.7.w.w.6.w.*.q t k ",
"q Y 8.B.~.V o.t.p.q.r.7.0.7.q.q.q.u.K.E.XX%XZ E w.q.w.7.7.g.{ N { y.e.e.e.y.7.0.7.e.p.t.V.).Z.R I 0.w.7.q.q.q.q.w.6.w.7.o.w t k ",
"t Y f.V.9.C o.p.w.7.7.r.0.7.q.7.q.u.u.K.'.6X5.Z w.7.7.7.v.r.4.V / y.y.u.7.7.7.t.t.t.p.v.B.oXf.B V 4.v.v.0.w.0.5.7.7.w.t.=.w t k ",
"y T k.x.! C o.l.q.7.7.0.0.7.0.t.q.u.u.H.R.>Xb.n 0.M.w.6.v.7.{ N B.^.m.p.q.7.7.e.t.r.v.v.8.8.G F N H X.0.w.v.v.v.0.0.p.p.9.u u k ",
"y *.l.9.3 H o.l.w.7.7.t.7.0.7.t.7.w.w.H.R.-XN.b ~ 6.l.v.l.0.E Z $X].m.q.y.7.7.r.7.r.n.g.} J D D B B B L / g.g.g.0.w.p.y.r.o.t l ",
"y } k.=.3 P =.s.p.7.7.q.7.0.t.t.0.y.p.m.R.).X.V I A 4.o.~ E Z J.>XL.p.q.q.7.@.7.7.t.l.=.Y N N B R ~ o.L m R r.s.l.s.p.y.p.[ y l ",
"y [ f.[ V P =.l.t.q.q.7.7.7.0.t.6.t.y.b.U.V.N ^ F.c.H V C O.L.>XJ.a.w.q.7.@.7.e.t.t.=.I 2 H 8.Q.@X%X%X].o.< W ;.r.r.7.7.6.^ q f ",
"y [ =.W V V *.t.p.t.y.e.t.e.r.t.6.0.0.v.N.=.G [ M.<X[.[.%X;XY.q.w.q.5.w.7.0.t.r.t.4.B b W F.$X$X^.T.^.@Xt.3 V ^ o.o.o.Q / P w f ",
"w G A m m 3 P =.r.t.t.p.p.t.p.l.t.l.M.v.8.G G ] k.C.C.T.P.P.q.y.q.q.7.0.r.0.t.4.^ M B 7.}. X'.Y.P.d.m.n.e.A 3 N 3 3 m m V 2 q t ",
"( c.Q.[.C.r.H A 4.6.t.v.M.b.v.0.l.g.6.6.R D J ^ 9.l.s.s.y.y.7.w.7.p.7.5.t.0.o.~ B L L.}.'.R.I.J.i.t.p.l.9.I 3 w 2 T v.N./ N w t ",
"1.[.[.{..X<XC.I m / =.0.g.g.0.r.4.O.~ L B N D K I Q o.o.5.j.v.j.g.w.7.0.8.W V C 7.].|.!.Y.P.d.y.y.7.7.t.9.I N D w 8.).=X@XY q f ",
"k.V.i.d.C.T.2X~.S V Y [ ~ ! ! L R Z M R Z L B B Z V C A n Z ~ X.X.5.o.S b C 7._.#X^.Y.Y.H.q.q.@.7.e.t.r.l.Y D G ^ 0.Q.Q.OXT t f ",
"r.r.i.i.y.P.{.%XJ.V D D D D F F M ~ b.%X3X!.!.].%X2X>X|.L.~ N n n b n ~ v._. X[.Y.L.J.u.q.q.7.7.7.7.7.0.l.[ D J | g.b.n.9.P y s ",
"k.y.i.%.y.P.T.^.;Xv.N F F N K L.].#X>X^.^.E.'.{.}.'.{.%X4X;X5.B B j._.+X@X_.Y.L.b.a.q.@.7.7.7.y.e.6.0.0.g.[ G [ 9.0.5.w.{ P t d ",
"z.s.i.y.i.i.P.^.'.@Xg.D N F ] L.OXQ.U.s.d.p.i.a.i.i.i.m.Y.%X;XR n 0.).(.Q.m.b.p.p.p.w.q.w.0.w.7.7.0.0.M.9.H 2 [ g.0.w.6.~ 0 t l ",
"z.s.y.#.y.p.p.Y.`.K.#X!.~ b F X.M.b.a.y.y.e.#.y.y.y.y.u.a.m.1XT.A ! g.N.p.7.O.E E Q 4.y.v.v.v.g.t.v.M.r.! N G [ 9.7.7.5.I w l x ",
"z.s.e.e.y.a.p.w.L.`.L.+X@XN.L b R 8.t.e.@.$.7.e.q.7.7.q.y.J.I.3XE C { 9./ C Z C n B < N / 8.j.x.l.t.6.^ C G V I 4.7.0.9.T 3 l k ",
"3.l.q.7.q.7.M.v.a.a.H.Y.`.=X].o.m I o.t.r.r.e.r.0.w.7.p.7.a.K.;XC.m I I m W O.t.M.v.] N N G ! ! ! R V V < 3 < A o.6.r.t.*.u l k ",
"z.l.7.7.q.7.0.w.j.p.u.a.Y.^.%X<X4.M W 9.e.r.r.0.6.7.0.7.q.p.d.-X|.V 3 < A C.~.~.Q.Q._.l.H G N b V C t.~.$X<XC.m m Q 7.n.=.u t d ",
"k.r.w.7.7.0.0.0.w.w.w.a.a.a.I.1X1XS A 6.9.l.7.0.0.0.w.w.w.w.b.!.[.I < T C.~.C.b.b.b.J.~.l.B V b 6.[.<XT.W.T.1XE.S A 4.t.3.U t l ",
"k.e.7.7.w.0.0.0.w.w.w.w.p.a.d.E.XXy.N 9.l.g.0.7.7.0.w.7.w.q.p.m.v.C H C.~.b.y.7.7.y.y.V.Q.8.< 4.~.~.b.i.s.P.P.1Xd.C R =.*.w t l ",
"k.r.e.7.t.7.0.7.7.0.7.7.p.p.a.I.|.8.b ;.l.t.7.7.7.7.p.7.7.7.b.v.Q V ^ Z.n.w.y.@.7.7.w.s.F.N.B 4.V.t.y.p.@.i.d.'.=XQ V ! P q q l ",
"k.r.7.7.7.7.7.0.7.7.e.e.p.v.V./.S.V A =.l.e.7.q.q.7.w.0.7.7.M.7.I V o.r.p.7.q.q.7.y.q.p.Z.F.I / 7.v.4.7.e.@.y.T.5Xp.b G 3 0 t l ",
"k.0.y.7.7.e.e.0.e.0.e.e.p.j.N.V.~ N V *.r.7.#.@.7.7.w.7.t.t.t.o.V A =.t.p.7.7.7.7.q.7.v.Q.S.C / 6.p.y.7.q.y.y.P.%X^.b C Y w t l ",
"z.0.e.7.7.e.7.t.y.y.e.t.v.N.g.{ 2 m 3 o.9.y.e.@.7.7.y.t.t.v.9.I m T 0.v.7.7.q.7.q.7.7.n.~.8.C / 0.0.6.p.7.7.7.m.|.@XC T x.z.t t ",
"k.r.e.e.e.@.t.y.y.m.t.v.w.j.~ N ] ! < W 8.t.7.7.7.7.y.l.v.t.o.G A o.l.s.p.7.7.7.7.7.v.V.F.H R / v.0.0.q.7.7.7.b.@X$XC ! D.<.t l ",
"k.r.y.$.e.e.t.y.t.n.t.7.4.H n j.,XQ.B I =.0.p.y.7.v.v.M.v.4.C B o.r.n.y.y.w.w.7.y.p.V.Q.6.V ^ 4.v.0.5.w.7.w.7.s.^.|.A Y D._ t l ",
"k.s.y.e.u.t.t.M.N.9.| V B E b.#X=X$XE B ^ O.9.l.x.v.g.g.{ H V ~ 6.t.t.t.0.7.e.y.b.s.~.B.I C 4.9.g.0.0.0.7.w.7.b.U.V.I H x._ t l ",
"k.l.s.%.y.n.p.l.~ N N ~ F.|. X'.Y.2Xm.C C I ^ =.4.{ { R H B ~ 9.v.7.r.7.7.y.7.p.y.Z.~.o.B / 4.0.9.0.0.w.0.w.7.b.7.S m ^ 1.T t f ",
"k.s.i.e.y.p.4.H { ] N 8.+X^.I.a.a.R.;Xm.Z b V C H H N B H ~ 9.v.0.0.t.7.p.p.p.a.b.C.=.V W =.9.M.g.0.0.p.0.v.w.b.7.V H ] _ q t f ",
"k.n.s.u.d./ m | oX] G =.j.a.y.u.#.u.P.1X@X8.I V B H ! X.9.w.s.p.0.9.9.r.M.M.M.g.4.W m G =.6.0.l.g.0.l.t.j.v.v.9./ V Y } J ; 7 h ",
"k.r.s.y./ b =.x.x.G U ;.j.b.q.q.#.#.p.s.|.8X*X[ N 8.8.8.0.w.p.7.o.T I [ 8.8.4.^ G N V [ =.=.=.=.=./ ^ / =.=.4.^ D U Y y g ; p h ",
"3.C.r.Q C ^ f.Y U q J _ :.g.w.w.w.7.s.v.t.k.c.| D Y ;.;.f.8.g.=.I 0 1 0 J K D 2 2 U U U U G Y Y U G D D G G J 2 0 q y t ; + p h ",
"3.c.*.3 G *._ 9 9 9 e r Y [ =.;.=.9.=.;.[ U U w q w r ) } -.:.[ 3 * $ , t y r t y y t q q y y y w e y y t t r q t 5 f 7 : p p v ",
"c &.u 3 y y 9 ; .   % & ; r U ) J J U U y t e &   % * t y ( ( U 5 . . X = ; 7 t f e & . - 4 5 4 ; ; 7 7 t f f 7 o @ : + = i s h ",
", , , u e e - & o @ @ + X * ; ; 9 * 5 9 5 4 o = - o & = 4 5 7 9 5 4 4 X O X X @ # @ X @ - @ # + + + + @ : : 6 # : @ # i a i d v ",
"@ O , 4 4 : 4 6 8 6 : : = + X o X X o : 4 8 6 6 6 6 4 : : ; 8 8 p x s a # # @ O O @ @ # # i i i # # # # # # # # i i a s s d v x "
};
