/* XPM */
static char *result[] = {
/* columns rows colors chars-per-pixel */
"55 56 31 1 ",
"  c #4A2F50",
". c #4E3454",
"X c #4C3C57",
"o c #4E3D59",
"O c #513657",
"+ c #523E53",
"@ c #5B3D55",
"# c #523758",
"$ c #5F375B",
"% c #563D5D",
"& c #5A3D5E",
"* c #61375D",
"= c #60385B",
"- c #553E62",
"; c #5A3B62",
": c #4C4256",
"> c #4D455B",
", c #4B485B",
"< c #534155",
"1 c #5B4157",
"2 c #52415B",
"3 c #59425E",
"4 c #514063",
"5 c #5B4162",
"6 c #614667",
"7 c #624768",
"8 c #644A6B",
"9 c #684D6E",
"0 c #6A4F70",
"q c #6D5273",
"w c #705676",
/* pixels */
"2:22222,-4>o>24>o>o>-4>o22->oo>2-4>o>2-o>o>%-42%:2->>o&",
"2>-;;;;;;;;;;;-;;;;;;;;;;;;;;;;;;;;;;;;;;;;;;;;;;;;;;;&",
",>;;;6;;6;;;;-;;;;;;;;;;;;;;;;;;;;;;;;;;;;;;;;;;;;;;;;&",
",>44;44444-4--------44;----;-;--4;--;-------44;----;--3",
",,44444444444-4444-4------------5----444----4-44------4",
"<<&3-;--&&-%-&-%---;--&&---;;;--&&---&;&;;;&--&&-;;&--3",
"=1=33=;;&&@&&&&&-;&@&$&$&&$@$&;;=&=&===&;&&$&$$$&&=&&@%",
"1@&&&&&3&&&&&&&&;;&&&&&&&&&&&&&;&&&&&&&&;;&&&&&&$&&&&&%",
"31%%%%55%%-%3%%%5%&-%3%3&&%-%%%%%%%%%%-;%%&-%&&&%%&%-&%",
"3%%3%5%%%35%&--3%%3%%&-%%%3&%%3%-35%&-&&#%&;%%%&&%%&&31",
"32%%%&%%3%%%3%%5%%3%-%-&&&3%-%%-5%%%%&%#OO#####%%&%;%&+",
"3%%53%-5%%-3%-%%%5&-%3%3%-%-%%3&%%%%%%%OO  #   O%%&%%%&",
"3%%%5%%%-%-&3%3%%%3%%&3%3%%%5%5%3%%%%##OO%%#$OO  #%&%#%",
"3%3%5%3%3&%3%-&-5%%--%%--%5%3%-%%%-%%#O#;77787&O  O#&;%",
"3%1%%5%%-3%%&-%%%-%5&3%&%%3-%53%%%%%###&80wqq985%..#&;%",
"3<%-%%%4%%-&3%3%%3%%%-3%-3%%5%5&%#%%%%$&9wwqqq096&#O%-<",
"323%355%%%%-%%%%3%-55%%%53&%%%5%%%%###%59qwwwqqq07@O#3%",
"3%%-%%%-%&%oo##o#%%%%%%-&-3%5%%%%%%%%#&-6800ww0ww0;O.&+",
"3%-3%%%3%%#..Oo...#%%%%%33%%3%5%%%%%%#%%&6790990q0-OO%%",
"3%%5%%%%##.O#%2,....o%5--&-5-%5%%%%%%%%%&;6798887;%.#%<",
"3+&35%#...#568865o...%535%3%%5%%-&%%&&&&&&-;66;-%O .O3%",
"32%%%#..X%5qqqwq85#..#%53%-5%%-3%&3%35--&%%%%@%#O. O%&%",
"3%5%#..o58qqqwwq85%.o#%5-&%%%%%5&33%%&&%%%%#####O###%&2",
"3%%%X.#55qqqwqq9553o.O#%35-%%3%%-3-&-%%%&&%%%#####%&%%%",
"32%%.O&8qwwwww055&-%.##&%-%%%&%&-&3-%&&5&-%%%%#####%%%%",
"3%%%X%59qq0qwq95#%5%##%&5&&%%%%%%&&&%%%-&%##o##O##%%35%",
"3%3%%355599q9853%%%%%#%#%&&&%%&%&&&&-%%%3%%o#####%#%%52",
"3<%%%%#%%5554525-3;&%%##%%&-&&%%-%&-&%&3-%%%##o###%%%&+",
"3%%%%o...o%%#O%&555&%%##%&&;%%%&&&&%%%%%%%%%#%%o#o%%35%",
"3255%%#O#%#.O%%-533-&%%%%&%;%&%%-%%3&-35%%%%%%%%%%%%%%%",
"3%-%%#%%%%#.%353&%%%;%%%%&&#%%&%&&&&&%%%%%%%%%%%%%%%%%%",
"3<%%%%#o%##o%%5-%%%%&####%##&%;%&-%%&--3%%%%%5%%5%%%%%<",
"3+%%%%%%OOOo%%%%53%%%#O.O.O#%%&%;&%;&3%%%%%%3&3%5%%%%%%",
"3%%-%%o#OoO.O%%-%5-%%%OOOOO #;%##&-&&--%-3&-%--%%%3-%%%",
"1%3%%%%#OOOO#%%%%555;555&&O .#%#%%&&%%-%%%-%%%&3%5-%3%%",
"2%5%%%%#o#O%##o%%5558899875####@-5&%%3&3&3%3-5%%&%3%-%1",
"3%%%%%%##X####%%%55590qq00976&#%;3%&%%&%%-%53-&3%3%3%1%",
"323%5%%o#%##o#%%%55590qq0www05%#;@&&5&-%%3%%%%%%&--&-&%",
"1%35%%%%%#o.##%-3&&5790q0ww005##%%%-5%%3&3-%%5-33%3%%3<",
"3%%%%5%%%%%##%%%-&&-670qq097;&O#%&%&-&-&%-%3%&%%%-%&-%%",
"1%3&%&%%%%%o#%%%-%%%-65887;;..O%&-&&%%&-%3&%53-%&%3&%3%",
"%%%&5&-%%%%#%#%%%%%-&&;@;%%..#%#&&&&%&%%%-%&%%%%%&-%%-%",
">X---------;-;-%#;;--5;5%;-.#-%-%-&----&--&-&---%-----;",
"2:;--------;-#----%-;-5-;%-###%%&---&--%-&-&--&-;-%;-&=",
"1@%>242%4-22o--o%>-224o%XXXXXXo-2%242%22>%223%22%>%>22*",
"1@>%4224>222-o4>22>-3%>oXXXXXXoo2222>222%22<22%>22>%2%=",
"&@&%1%3%&%&&&&%%&&%&3%@%OO#OO@%%@&%%&&&@%%&&&@%%&&&&&%@",
"1@@&$&&&$&&&&&&&&&&&&@#$@@OOO$@@&&&&@&&&&&&@&&&&&@@@&&@",
"<<%-&&&&&&&&&&%&&&;%%$#@@%###$&&&&&$&&@;&&&&&&&&&&&&&@%",
"::%%;&&;;-;;&;--;;;-%&%;%%#$#%&-=&-%&&&&&&&&&&%-&&;%&&>",
",:5-;-------;---%--o--;%%%%%%-%%535--%-%2--%&---;%---%%",
"2244444-44---4-4---4-->-4444-44444>444444444-->--44>44%",
"5%-----------------5o--43---%5455-%3254%54255%3-4%-5>-&",
"-&&&-;;;;;&;&;;&;;;&;-=&3=&&-&&=&&&&;=&-=&;&&;&&&;&=;&*",
"3&$&%$&&&$&&&*$&&&&$$&&&$&&=&&$&&&$&$&&=$$&&&&$&=&&&=&=",
"3<+X+++@++++<<<<<+++<+<++<+++++++++<<++<+++++++++<+++++"
};
