/* XPM */
static char *result[] = {
/* columns rows colors chars-per-pixel */
"40 61 197 2 ",
"   c #3F293B",
".  c #39373C",
"X  c #49243B",
"o  c #43283D",
"O  c #42363F",
"+  c #422F43",
"@  c #552344",
"#  c #5B254C",
"$  c #542D4E",
"%  c #5A284D",
"&  c #532847",
"*  c #483848",
"=  c #53364C",
"-  c #5A344E",
";  c #5D2B51",
":  c #4E3F5C",
">  c #553556",
",  c #5A3351",
"<  c #652752",
"1  c #622952",
"2  c #38505E",
"3  c #2F5C6A",
"4  c #3B5566",
"5  c #365C66",
"6  c #345C6D",
"7  c #3C5A6B",
"8  c #3E576A",
"9  c #335D72",
"0  c #3C5C71",
"q  c #2E636D",
"w  c #33636F",
"e  c #2F6571",
"r  c #2D6A74",
"t  c #2E6C7B",
"y  c #2B6978",
"u  c #336473",
"i  c #396575",
"p  c #336A75",
"a  c #3A6A76",
"s  c #356579",
"d  c #336D7B",
"f  c #3A6F7A",
"g  c #2D757C",
"h  c #2E7A7E",
"j  c #33737D",
"k  c #38757F",
"l  c #327B7E",
"z  c #4A425E",
"x  c #454C64",
"c  c #444E68",
"v  c #526D7C",
"b  c #40767E",
"n  c #2F7781",
"m  c #2D7C84",
"M  c #2F7E8C",
"N  c #347582",
"B  c #387583",
"V  c #337C84",
"C  c #347D89",
"Z  c #3B7B89",
"A  c #3B7988",
"S  c #497682",
"D  c #587883",
"F  c #2B8285",
"G  c #2D858A",
"H  c #2C8A8D",
"J  c #318386",
"K  c #388087",
"L  c #33838B",
"P  c #3C858C",
"I  c #338A8D",
"U  c #2D938C",
"Y  c #2D8C93",
"T  c #338792",
"R  c #328C92",
"E  c #3B8C93",
"W  c #328E99",
"Q  c #3A8790",
"!  c #269596",
"~  c #2C9395",
"^  c #25959A",
"/  c #2C9499",
"(  c #2C999C",
")  c #2A9997",
"_  c #339395",
"`  c #3D9496",
"'  c #3B9997",
"]  c #32959A",
"[  c #3A9599",
"{  c #359A9C",
"}  c #3B9C9D",
"|  c #319997",
" . c #39A09F",
".. c #359DA1",
"X. c #3D9DA3",
"o. c #36A0A0",
"O. c #3DA2A4",
"+. c #42838A",
"@. c #448C94",
"#. c #4A8991",
"$. c #578791",
"%. c #43939A",
"&. c #4D949A",
"*. c #439B9D",
"=. c #4B9C9E",
"-. c #489297",
";. c #59939B",
":. c #6F8D97",
">. c #728D98",
",. c #609298",
"<. c #769099",
"1. c #49A09F",
"2. c #449DA2",
"3. c #4B9DA2",
"4. c #549DA4",
"5. c #649DA3",
"6. c #43A3A5",
"7. c #4BA3A5",
"8. c #45A5A9",
"9. c #4BA4A9",
"0. c #42A9A9",
"q. c #54A2A6",
"w. c #5BA3A5",
"e. c #5DA5AA",
"r. c #5EACAD",
"t. c #50ABA9",
"y. c #64A2A7",
"u. c #62A3AC",
"i. c #64ABAD",
"p. c #6CAAAD",
"a. c #69A4AB",
"s. c #69A7B1",
"d. c #65AEB4",
"f. c #6CADB1",
"g. c #6BAFB8",
"h. c #74ADB4",
"j. c #7BAFBC",
"k. c #78A7B4",
"l. c #6BB1B8",
"z. c #74B2B9",
"x. c #7DB2BB",
"c. c #7FBBBF",
"v. c #7FB4B5",
"b. c #7DB8C0",
"n. c #889DA5",
"m. c #80A5AE",
"M. c #89ACB4",
"N. c #96ACB7",
"B. c #82B5BC",
"V. c #8AB5BD",
"C. c #83BABC",
"Z. c #8CB9BD",
"A. c #91B5BD",
"S. c #9BB6BD",
"D. c #87B5C1",
"F. c #82BDC4",
"G. c #8CBBC3",
"H. c #8BB6C1",
"J. c #93BEC6",
"K. c #97BCC8",
"L. c #A1BAC3",
"P. c #8CC1C6",
"I. c #8DCACB",
"U. c #84C0C2",
"Y. c #92C4CA",
"T. c #9BC3CA",
"R. c #96C9CD",
"E. c #96CBD1",
"W. c #9EC7D0",
"Q. c #A7C8C7",
"!. c #A3C4CD",
"~. c #A3C9CE",
"^. c #ABCCCF",
"/. c #ABC4CA",
"(. c #B1C3CB",
"). c #A3C6D1",
"_. c #A5C9D0",
"`. c #ACCCD3",
"'. c #ACCEDA",
"]. c #A8C6D1",
"[. c #B2CDD3",
"{. c #B9CDD6",
"}. c #B2CDD8",
"|. c #BACADB",
" X c #ACD1D6",
".X c #A6D2D7",
"XX c #B3D1D5",
"oX c #B6D2D9",
"OX c #BCD4DB",
"+X c #BBD8DD",
"@X c #BAD2D5",
"#X c #B8D6E1",
"$X c #C9CED7",
"%X c #C4D4D6",
"&X c #C3D5DB",
"*X c #C0D8DC",
"=X c None",
/* pixels */
"=X=X=X=X=X=X=X=X=X=X=X=X=X=X=X=X=X=X=X=X=X=X=X=X=X=X=X=X=X=X=X=X=X=X=X=X=X=X=X=X",
"=X=X=X=X=X=X=X=X=X=X=X=X=X=X=X=X=X=X=X=X=X=X=X=X=X=X=X=X=X=X=X=X=X=X=X=X=X=X=X=X",
"=X=X=X=X=X=X=X=X=X=X=X=X=X=X=X=X=X=X=X=X=X=X=X=X=X=X=X=X=X=X=X=X=X=X=X=X=X=X=X=X",
"=X=X=X=X=X=X=X=X=X=X=X=X=X=X=X=X=X=X=X=X=X=X=X=X=X=X=X=X=X=X=X=X=X=X=X=X=X=X=X=X",
"=X=X=X=X=X=X=X=X=X=X=X=X=X=X=X=X=X=X=XV h =X=X=X=X=X=X=X=X=X=X=X=X=X=X=X=X=X=X=X",
"=X=X=X=X=X=X=X=X=X=X=X=X=X=X=X=X=X=Xw _ R r =X=X=X=X=X=X=X=X=X=X=X=X=X=X=X=X=X=X",
"=X=X=X=X=X=X=X=X=X=X=X=X=X=X=X=X=Xd T 8.6.I j =X=X=X=X=X=X=X=X=X=X=X=X=X=X=X=X=X",
"=X=X=X=X=X=X=X=X=X=X=X=X=X=X=X=X9 T } 7.0.7.%.d =X=X=X=X=X=X=X=X=X=X=X=X=X=X=X=X",
"=X=X=X=X=X=X=X=X=X=X=X=X=X=X=X=XB ] 6.9.8.9.7.E =X=X=X=X=X=X=X=X=X=X=X=X=X=X=X=X",
"=X=X=X=X=X=X=X=X=X=X=X=X=X=X=Xk._ 6.9.6.] 0.6.( M p =X=X=X=X=X=X=X=X=X=X=X=X=X=X",
"=X=X=X=X=X=X=X=X=X=X=X=X=XN.|.K.6.7.9.*._ } 7.| ` +.=X=X=X=X=X=X=X=X=X=X=X=X=X=X",
"=X=X=X=X=X=X=X=X=X=X=X=XN.OXK.i.6.9.t.' Y.B.3.7.).).a.=X=X=X=X=X=X=X=X=X=X=X=X=X",
"=X=X=X=X=X=X=X=X=X5 D !.~.Z.=.[ 7.9.6.*.XX&Xi.7.D.`.&X&XS.=X=X=X=X=X=X=X=X=X=X=X",
"=X=X=X=X=X=X=X=X=X7 6 i k P _ ..8.9.} l.OX%Xc. .X.h.Z.&X(.!.D =X=X=X=X=X=X=X=X=X",
"=X=X=X=X=X=X=X=X=Xt C F L Y / 6.6.8.{ 3.G.OXG.] ..2.p.}.(.<.v =X=X=X=X=X=X=X=X=X",
"=X=X=X=X=X=X=X=Xj I ! ! Y / X.9.} O.] ~ i.%X`.e./ W 4.).%XS.=X=X=X=X=X=X=X=X=X=X",
"=X=X=X=X=X=X=Xu R / ! H s / 8.6.~ { ~ ! p.%XOXOX9.! 3.j.P.OXQ.=X=X=X=X=X=X=X=X=X",
"=X=X=X=X=X=X=Xi E L N u A ( 8.[ / ~ ~ L r.&X$X X-.~ ! _ *.V.J.s.r =X=X=X=X=X=X=X",
"=X=X=X=X=X=X=X=X=X6 6 9 E ! W Y ! / I d ' T.$XT.f N ~ W ! Z #.@.Z =X=X=X=X=X=X=X",
"=X=X=X=X=X=X=X=X=X5 u 6 ! W C u K L u u I d.^.~.S w r L ~ i =X=X=X=X=X=X=X=X=X=X",
"=X=X=X=X=X=X=X=X=Xg f w m J u i p p q p B } z.B.b a p u d u =X=X=X=X=X=X=X=X=X=X",
"=X=X=X=X=X=X=X=XN Y l j i d F L j N J C u J _ P p l G l t h V =X=X=X=X=X=X=X=X=X",
"=X=X=X=X=X=X=XV / ! R C E _ [ [ Y ~ ~ ] g w u s C R 7.w.I ~ R j =X=X=X=X=X=X=X=X",
"=X=X=X=X=X=X=XW ! R J a G.y.F.g.! ~ { 6.L N l L ! ' .X#Xz.~ ! m =X=X=X=X=X=X=X=X",
"=X=X=X=X=X=X=Xr p a >.(.&XZ.+X}.P.h.' 9...~ _ _ _ C.$X&X).q.~ ~ N =X=X=X=X=X=X=X",
"=X=X=X=X=X=X=X=X=XA.OX&XOXoX&X&X+XY.6.9.[ b. XR.I.+X@XB.g.4.g Y ~ =X=X=X=X=X=X=X",
"=X=X=X=X=X=X=X=XN s.J.OX&X#XOX^.OXZ.7.8.%.T.@X&X&X&X[.w.[ [ n C T =X=X=X=X=X=X=X",
"=X=X=X=X=X=X=XC Y ) =.M.n.oXZ.y.C.p.2.O.| i.C.~.OX+XOXx.] ! Y y e =X=X=X=X=X=X=X",
"=X=X=X=X=X=XL ] / Y g 7 m.C.@.G { } O.X.] [ E &.Z.@X/.).u.W / H p =X=X=X=X=X=X=X",
"=X=X=X=Xn Y W / J i e 7 f.7.m m { 6.X._ ! ] W j h.{.B.H.k.[ / ] N =X=X=X=X=X=X=X",
"=X=X=X=Xk h l w 9 d i N / ` n N { 9...H J ! ~ y ;.C.j.` Q e T ^ Y =X=X=X=X=X=X=X",
"=X=X=X=X=X=X=X=XC J u H ! B u j ] 2.] G i Y ~ s j =.b...L 0 y C Z =X=X=X=X=X=X=X",
"=X=X=X=X=X=X=XM ! F u I J r f d ~ [ ~ N u l N i r j 4.{ I 7 p u u =X=X=X=X=X=X=X",
"=X=X=X=X=X=XN W ~ J w p u j j p H ~ I u j u p j h u g U F u l j 6 =X=X=X=X=X=X=X",
"=X=X=X=X=X=XR / ) J j j L U l a p g e f J l j J R C y i i d P %.g =X=X=X=X=X=X=X",
"=X=X=X=X=Xg ! / _ K g H } ) y.,.a e d F ! R L R ~ Y F N d l k.I.E 3 =X=X=X=X=X=X",
"=X=X=X=X=Xd V N p r L _ O.=.%X}.-.I _ ~ _ ~ { ..~ _ R U I w.^.%Xb.j =X=X=X=X=X=X",
"=X=X=X=X=X4 3 p N I _ 6.[ R.%X%Xt.O.6.y.oXf.*.O.3..X XF.Y.OX%X&X XU y =X=X=X=X=X",
"=X=X=X=X=X=X=X&.I.I.*.o.e.*X&X`.w.6.3.~.+X~.=.o.e.'.%XOX*X&X&X&X X' L i =X=X=X=X",
"=X=X=X=X=X=XM. X+XD.6.r.}.$X!.f.7.6.i.@X&X+XC.7.2.s.J.Y.P.^.&X+XK.2.Y C =X=X=X=X",
"=X=X=X=X=X<.OXoXp.} r.}.&X~.7.{ 9.3.B.#X&X&X&X@X).p.| { %.Y.&X^.4./ ! E =X=X=X=X",
"=X=X=X=X=XL.&X}.` | J.&X&XT.*.{ 9.2.x.!.).OX&X|.XXE._ { [ T.&XXX#.G R T =X=X=X=X",
"=X=X=X=XS.@X`.'.*.7.`.%X&X^.q.} 9.[ 2.7.=.z.J.i.2.2.[ 8.` C.$X+XD.9 j =X=X=X=X=X",
"=X=X=X>.K.h.[ 4._ ~ h.OX Xa.'  .8.] ! ] X.*.3.*.] ! | 0.*.q.T.XXW.$.=X=X=X=X=X=X",
"=X=X=X5.q.] ! C y W Z.}.i._ | } 6.( ! ] 0.7.7.9.{ Y I O.2.F &.i.g.-.=X=X=X=X=X=X",
"=X=X=XQ ) ~ J u h } G.B.*.Y { O.6.] Y R 0.9.9.9.} F j X.6.G N _ ] W u =X=X=X=X=X",
"=X=X=XB L V =X7 ~ _ 7.*.R t } X.6.R t I 0.9.9.7.o.J 6 E o.I u I ~ ! N =X=X=X=X=X",
"=X=X=X=X9 =X=Xu ~ ! ~ / L 6 ~ ] 6.I 9 N O.7.9.7...J 4 d { R w j ~ ! A =X=X=X=X=X",
"=X=X=X=X=X=X=Xd ! ! ! P u 3 ~ ~ X.k x 7 E o.2.O.~ N =X=Xj N w =XZ R d =X=X=X=X=X",
"=X=X=X=X=X=X=Xu _ ~ C w =X=XH ~ I 8 > z i _ ] { L j =X=X=X=X=X=X=X=X=X=X=X=X=X=X",
"=X=X=X=X=X=X=X7 n h 6 =X=X=Xr Z p z 1 ; x g Y I j =X=X=X=X=X=X=X=X=X=X=X=X=X=X=X",
"=X=X=X=X=X=X=X=Xq 6 =X=X=X=X2 8 z ; % < > x 8 8 =X=X=X=X=X=X=X=X=X=X=X=X=X=X=X=X",
"=X=X=X=X=X=X=X=X=X=X=X=X=X=Xo $ ; < ; 1 1 ; $ + =X=X=X=X=X=X=X=X=X=X=X=X=X=X=X=X",
"=X=X=X=X=X=X=X=X=X=X=X=X=XO X @ % 1 < 1 ; % # o =X=X=X=X=X=X=X=X=X=X=X=X=X=X=X=X",
"=X=X=X=X=X=X=X=X=X=X=X=X=Xo @ # ; < 1 1 1 ; 1 & . =X=X=X=X=X=X=X=X=X=X=X=X=X=X=X",
"=X=X=X=X=X=X=X=X=X=X=X=X=Xo % 1 1 1 1 < < 1 1 & + =X=X=X=X=X=X=X=X=X=X=X=X=X=X=X",
"=X=X=X=X=X=X=X=X=X=X=X=X=X. = - , , , - - , = * . =X=X=X=X=X=X=X=X=X=X=X=X=X=X=X",
"=X=X=X=X=X=X=X=X=X=X=X=X=X=X=X=X=X=X=X=X=X=X=X=X=X=X=X=X=X=X=X=X=X=X=X=X=X=X=X=X",
"=X=X=X=X=X=X=X=X=X=X=X=X=X=X=X=X=X=X=X=X=X=X=X=X=X=X=X=X=X=X=X=X=X=X=X=X=X=X=X=X",
"=X=X=X=X=X=X=X=X=X=X=X=X=X=X=X=X=X=X=X=X=X=X=X=X=X=X=X=X=X=X=X=X=X=X=X=X=X=X=X=X",
"=X=X=X=X=X=X=X=X=X=X=X=X=X=X=X=X=X=X=X=X=X=X=X=X=X=X=X=X=X=X=X=X=X=X=X=X=X=X=X=X"
};
