/* XPM */
static char *result[] = {
/* columns rows colors chars-per-pixel */
"55 68 93 2 ",
"   c #140F0B",
".  c #1B1107",
"X  c #15120C",
"o  c #1B140C",
"O  c #1F180F",
"+  c #161412",
"@  c #1B1611",
"#  c #1E1912",
"$  c #1F1D1A",
"%  c #20160E",
"&  c #251A0F",
"*  c #291B0F",
"=  c #201711",
"-  c #241B12",
";  c #2A1E14",
":  c #241E19",
">  c #2A1F19",
",  c #301F11",
"<  c #292017",
"1  c #25211D",
"2  c #2A231B",
"3  c #312217",
"4  c #31261F",
"5  c #252523",
"6  c #2A2622",
"7  c #252821",
"8  c #2D2925",
"9  c #2B2B29",
"0  c #322B24",
"q  c #332E2A",
"w  c #35312B",
"e  c #3B322C",
"r  c #363331",
"t  c #3A3632",
"y  c #3D3934",
"u  c #3D3B39",
"i  c #403733",
"p  c #423B36",
"a  c #433E39",
"s  c #44413D",
"d  c #4A433D",
"f  c #454341",
"g  c #4A4742",
"h  c #4C4945",
"j  c #4E4C49",
"k  c #514C46",
"l  c #534E4A",
"z  c #55514E",
"x  c #5E544E",
"c  c #545352",
"v  c #595653",
"b  c #5C5956",
"n  c #5D5D5C",
"m  c #60554F",
"M  c #625A54",
"N  c #625E5A",
"B  c #64625C",
"V  c #69625D",
"C  c #676563",
"Z  c #696562",
"A  c #6C6965",
"S  c #6D6B68",
"D  c #716E6C",
"F  c #74726E",
"G  c #7A736E",
"H  c #767574",
"J  c #797572",
"K  c #7B7976",
"L  c #7E7C79",
"P  c #837971",
"I  c #827D79",
"U  c #82817E",
"Y  c #8A817A",
"T  c #868583",
"R  c #8A8682",
"E  c #8C8A86",
"W  c #8D8C8A",
"Q  c #948D86",
"!  c #938F8C",
"~  c #92908D",
"^  c #9A948F",
"/  c #979492",
"(  c #9C9C9B",
")  c #A4A3A1",
"_  c #B0AAA6",
"`  c #B0AEAD",
"'  c #B6B1AD",
"]  c #BAB6B3",
"[  c #BCBBB9",
"{  c #C7C2BE",
"}  c #C1C1C0",
"|  c white",
" . c None",
/* pixels */
"|  . . . . . . . . . . . . . . . . . . . . . . . . . . . . . . . . . . . . . . . . . . . . . . . . . . . . . .",
" . . . . . . . . . . . . . . . . . . . . . . . . . . . . . . . . . . . . . . . . . . . . . . . . . . . . . . .",
" . . . . . . . . . . . . . . . . . . . . . . . . . . . . . . . . . . . . . . . . . . . . . . . . . . . . . . .",
" . . . . . . . . . . . . . . . . . . . . . . . . . . . . . . . . . . . . . . . . . . . . . . . . . . . . . . .",
" . . . . . . . . . . . . . . . . . . . . . . . . . . . . . . . . . . . . . . . . . . . . . . . . . . . . . . .",
" . . . . . . . . . . . . . . . . . . . . . . . . . . . . . . . . . . . . . . . . . . . . . . . . . . . . . . .",
" . . . . . . . . . . . . . . . . . . . . . . . . . . . . . . . . . . . . . . . . . . . . . . . . . . . . . . .",
" . . . . . . . . . . . . . . . . . . . . . . . . . . . . . . . . . . . . . . . . . . . . . . . . . . . . . . .",
" . . . . . . . . . . . . . . . . . . . . . . . . . . . . . . . . . . . . . . . . . . . . . . . . . . . . . . .",
" . . . . . . . . . . . . . . . . . . . . . . . . . . . . . . . .b  . . . . . . . . . . . . . . . . . . . . . .",
" . . . . . . . . . . . . . . . . .E  . . . . . . . . . . . . . .c  . . . . . . . . . . . . . . . . . . . . . .",
" . . . . . . . . . . . . . . . . .L  .! E  . . . . . . . . . . .`  . . . . . . . . . . . . . . . . . . . . . .",
" . . . . . . . . . . . . . . . . .h g v  . . . . . . . . . . .[ T q J  . . . . . . . . . . . . . . . . . . . .",
" . . . . . . . . . . . . . . . . .N 1  . . . . . . . . . . . . . .C 8 h  . . .K  . . . . . . . . . . . . . . .",
" . . . . . . . . . . . . . . . . . .s h  . . . . . . . . . . . . . .u h  . . .n  . . . . . . . . . . . . . . .",
" . . . . . . . . . . . . . . . . . . .: A  . . . . . . . . . . . .P > Q  . . .b  . . . . . . . . . . . . . . .",
" . . . . . . . . . . . . . . . . . . .8 F  . . .(  . . .H  . . . .M : ^  .H 9  . . . . . . . . . . . . . . . .",
" . . . . . . . . . . . . . . . . .K r 1  . . . .n  . .f  . . . .Y - - @ 1 c K  . . . . . . . . . . . . . . . .",
" . . . . . . . . . . . . . . . . . . .8  . . . . .B h  . . . . .p ; - N  . . . . . . . . . . . . .(  . . . . .",
" . . . . . . . . . . . . . . . . . . .h p  . . . .D t  . . . .{ : - q  . . . . . . . . . . . . . .T  . . . . .",
" . . . . .C  . . . . . . . .K  . . . .I - M  . . . .i J  . . ._ : & t  . . . . . . .(  . . . . . .L  . . .W  .",
" . . . . .j  . . . . . . .H !  . . . . .: : R  . . .M 0  . . . .0 ; q  . . . . . . .C  .b S  . . .B R g n  . .",
" . . . . .l  . . . . .I ' T  . . . . . .0 % 0  . . .w - x  . . .Q - >  . . .F  . . . .u f  . . . .E $ z  . . .",
" . . . . .z  . . . . . .G g  . . . . . .c = - i  .M : O d  . . . .d : m  .z S  . . . .r  . . . .l u N  . . . .",
" ./ u u z 6 6 S  . . . . .r h  . . . . . .w % 2 m ; - 8  . . . . .A - # 5 L  . . .K u z  . . .J 6  . . . . . .",
" . . . . . .Z X @  . . . .b - N  . . . . .8 : * 3 < 1  . . . . . .0 - z  . . . .t 9 )  . . . .: v  . . . . . .",
" . . . . . . .v @ S  . . . .0 Z  . . . . .9 O * , * i  . . . . .e # 8  . . . .A @ u  . . . . .+  . . . . . . .",
" . . . . . . . .1 s  . . . .> M  . . . . .$ O * * - - c  . .C q > # V  . . . .k - A  . . . .v D  . . . . . . .",
" . . . . . . . .h + w V G e % Q  . . . .s X . < ; * - + s w . - ; 1  . . . . .2 - V  .C l k -  . . . . . . . .",
" . . . . . . . . .@ O % ; < > e  . . . .1 # . < - % . o X # < < - . d  . . .w % % - < - - : 1  .K D  . . . . .",
" . . . . . . . . .Z t o - > > > 4 e e 2 O - o < ; - % % o o ; < - . o 6 e 2 - % - O O X $ r h f c  . . . . . .",
" . . . . . . . . . . .c g 1 + o - - & & - - & - - & - - - < < * & - - - ; O X o $ q h g  . . . . . . . . . . .",
" . . . . . . . . . . . . . .R Q 2 # - * & < < & - * < - & < & < - - : o a h N ~  . . . . . . . . . . . . . . .",
" . . . . . . . . . .} )  . . .M $ - - # X - O & - & & - - - & & o = - N  . .K T )  . . . . . . . . . . . . . .",
" . . . . . . . . . . . .z 8 +   9 j h + X o & < & * * - & - O X @     6 1 b  . . . . . . . . . . . . . . . . .",
" . . . . . . . . .] ^ D Z J  . . . . . .1 X # O < & * & - O O + t  . . .g w l N  . . . . . .)  . . . . . . . .",
" . . . . . . . . . . . . . . . . . . . .s X O O & * & * & < # X  . . . . . .N w y f u b W R  . . . . . . . . .",
" . . . . . . . . . . . . . . . . . . . .A @ O < & & - - & * - s  . . . . . . . . . . .c T  . . . . . . . . . .",
" . . . . . . . . . . . . . . . . . . . .F O O - * - & & & - - K  . . . . . . . . . . . . . . . . . . . . . . .",
" . . . . . . . . . . . . . . . . . . . .S O * - - - & & * - # R  . . . . . . . . . . . . . . . . . . . . . . .",
" . . . . . . . . . . . . . . . . . . . .C % ; - - - O & - & - L  . . . . . . . . . . . . . . . . . . . . . . .",
" . . . . . . . . . . . . . . . . . . . .B - ; - . - O - & * - A  . . . . . . . . . . . . . . . . . . . . . . .",
" . . . . . . . . . . . . . . . . . . . .v - ; : X O o - - * - M  . . . . . . . . . . . . . . . . . . . . . . .",
" . . . . . . . . . . . . . . . . . . . .g ; ; - o . o - & * : k  . . . . . . . . . . . . . . . . . . . . . . .",
" . . . . . . . . . . . . . . . . . . . .e ; , - o X O - & * - w  . . . . . . . . . . . . . . . . . . . . . . .",
" . . . . . . . . . . . . . . . . . . . .i ; > > o o O - * * - #  . . . . . . . . . . . . . . . . . . . . . . .",
" . . . . . . . . . . . . . . . . . . . .0 ; * - o O & * * - # # S  . . . . . . . . . . . . . . . . . . . . . .",
" . . . . . . . . . . . . . . . . . . . .- - - - X # - % < & & < g  . . . . . . . . . . . . . . . . . . . . . .",
" . . . . . . . . . . . . . . . . . . .e - - - - o - - * & - & & ;  . . . . . . . . . . . . . . . . . . . . . .",
" . . . . . . . . . . . . . . . . . . .< - % - o - - & & - & - * * y  . . . . . . . . . . . . . . . . . . . . .",
" . . . . . . . . . . . . . . . . .l < O o o < < - < - < & & < & - - t  . . . . . . . . . . . . . . . . . . . .",
" . . . . . . . . . . . . . . . .q - - o . - & - & * o O < & & X # - - - w  . . . . . . . . . . . . . . . . . .",
" . . . . . . . . . . . . . . .s - @ X X X - - - & < o o < * < O X X - - - 1  . . . . . . . . . . . . . . . . .",
" . . . . . . . . . . . . . . . . .r 5 $ X - - - & O O X & & & # X X X X + 5  . . . . . . . . . . . . . . . . .",
" . . . . . . . . . . . . . . . . . . . .1 - - - O O O X O - & - o 1 t f 9  . . . . . . . . . . . . . . . . . .",
" . . . . . . . . . . . . . . . . . . . .6 - - - . O # X X O - & * e  . . . . . . . . . . . . . . . . . . . . .",
" . . . . . . . . . . . . . . . . . . . .6 ; - - . X + X X X O & - 2  . . . . . . . . . . . . . . . . . . . . .",
" . . . . . . . . . . . . . . . . . . . .9 - - - X 9 l f 9 $   O & < t  . . . . . . . . . . . . . . . . . . . .",
" . . . . . . . . . . . . . . . . . . . .6 - # @ b  . . . . .t : X X #  . . . . . . . . . . . . . . . . . . . .",
" . . . . . . . . . . . . . . . . . . . .6 # f  . . . . . . . . . . . . . . . . . . . . . . . . . . . . . . . .",
" . . . . . . . . . . . . . . . . . . . . . . . . . . . . . . . . . . . . . . . . . . . . . . . . . . . . . . .",
" . . . . . . . . . . . . . . . . . . . . . . . . . . . . . . . . . . . . . . . . . . . . . . . . . . . . . . .",
" . . . . . . . . . . . . . . . . . . . . . . . . . . . . . . . . . . . . . . . . . . . . . . . . . . . . . . .",
" . . . . . . . . . . . . . . . . . . . . . . . . . . . . . . . . . . . . . . . . . . . . . . . . . . . . . . .",
" . . . . . . . . . . . . . . . . . . . . . . . . . . . . . . . . . . . . . . . . . . . . . . . . . . . . . . .",
" . . . . . . . . . . . . . . . . . . . . . . . . . . . . . . . . . . . . . . . . . . . . . . . . . . . . . . .",
" . . . . . . . . . . . . . . . . . . . . . . . . . . . . . . . . . . . . . . . . . . . . . . . . . . . . . . .",
" . . . . . . . . . . . . . . . . . . . . . . . . . . . . . . . . . . . . . . . . . . . . . . . . . . . . . . ."
};
