/* XPM */
static char *result[] = {
/* columns rows colors chars-per-pixel */
"55 65 188 2 ",
"   c #0F110F",
".  c #14110E",
"X  c #1A140D",
"o  c #0D1D1C",
"O  c #0F1615",
"+  c #151411",
"@  c #1B1712",
"#  c #141A16",
"$  c #1C1A15",
"%  c #131E1B",
"&  c #1B1E1A",
"*  c #21160D",
"=  c #201A0F",
"-  c #241B12",
";  c #221F1C",
":  c #07221F",
">  c #0B221F",
",  c #12201D",
"<  c #1E231D",
"1  c #24211D",
"2  c #0F1F20",
"3  c #121F20",
"4  c #072521",
"5  c #0C2421",
"6  c #062923",
"7  c #0C2A26",
"8  c #0D2C29",
"9  c #112322",
"0  c #132926",
"q  c #1D2A26",
"w  c #122C2A",
"e  c #1A2D2C",
"r  c #182424",
"t  c #0C322C",
"y  c #13322D",
"u  c #1A302D",
"i  c #0B3730",
"p  c #0D3B34",
"a  c #153531",
"s  c #1A3632",
"d  c #143A34",
"f  c #1A3B36",
"g  c #153D39",
"h  c #1B3E39",
"j  c #262522",
"k  c #272928",
"l  c #312D28",
"z  c #342D27",
"x  c #23312F",
"c  c #2C312F",
"v  c #233534",
"b  c #2C3A35",
"n  c #2C3C39",
"m  c #233834",
"M  c #363330",
"N  c #393530",
"B  c #343E3D",
"V  c #433E38",
"C  c #16453D",
"Z  c #1B443D",
"A  c #15483F",
"S  c #1A483F",
"D  c #21423D",
"F  c #30423F",
"G  c #43403D",
"H  c #164641",
"J  c #1B4641",
"K  c #154B43",
"L  c #1B4B44",
"P  c #174F48",
"I  c #1C4E49",
"U  c #165045",
"Y  c #1A5146",
"T  c #1D534B",
"R  c #13524A",
"E  c #1D5750",
"W  c #1F5953",
"Q  c #224541",
"!  c #224B45",
"~  c #234F49",
"^  c #2C4B45",
"/  c #3C4646",
"(  c #354947",
")  c #394745",
"_  c #21544C",
"`  c #2A554E",
"'  c #22594E",
"]  c #37504E",
"[  c #30584D",
"{  c #235651",
"}  c #285651",
"|  c #245C54",
" . c #2A5C55",
".. c #275F58",
"X. c #2A5E59",
"o. c #3D5A56",
"O. c #315D59",
"+. c #3D5F5A",
"@. c #1E6257",
"#. c #1D6856",
"$. c #246156",
"%. c #296257",
"&. c #25655C",
"*. c #2A635C",
"=. c #246A5D",
"-. c #28685D",
";. c #32695D",
":. c #256D62",
">. c #2A6C62",
",. c #2E6763",
"<. c #346F68",
"1. c #396C65",
"2. c #277466",
"3. c #2C7166",
"4. c #277769",
"5. c #2C7469",
"6. c #2D7B6E",
"7. c #367466",
"8. c #33756B",
"9. c #39766D",
"0. c #32796D",
"q. c #3C796E",
"w. c #347C72",
"e. c #3C7C75",
"r. c #454A48",
"t. c #42504F",
"y. c #5B544E",
"u. c #465453",
"i. c #4A5352",
"p. c #4B5B5B",
"a. c #415A56",
"s. c #515E5E",
"d. c #595F60",
"f. c #436A65",
"g. c #4B6768",
"h. c #4B6866",
"j. c #556262",
"k. c #5E6867",
"l. c #596A69",
"z. c #43756E",
"x. c #5F726C",
"c. c #437972",
"v. c #616E6E",
"b. c #726C67",
"n. c #60706F",
"m. c #6A7876",
"M. c #737D7D",
"N. c #2E8075",
"B. c #348274",
"V. c #3A8275",
"C. c #36867A",
"Z. c #3A857A",
"A. c #358A7C",
"S. c #38897B",
"D. c #4E8077",
"F. c #4F857C",
"G. c #57807C",
"H. c #64807F",
"J. c #69827E",
"K. c #5B8582",
"L. c #658684",
"P. c #6C8682",
"I. c #678C87",
"U. c #698D88",
"Y. c #678B88",
"T. c #7F8886",
"R. c #768483",
"E. c #65948A",
"W. c #6D948C",
"Q. c #76938F",
"!. c #7D928F",
"~. c #6A9892",
"^. c #7C9391",
"/. c #7C9895",
"(. c #729D91",
"). c #77A09A",
"_. c #7DA8A6",
"`. c #87928E",
"'. c #839391",
"]. c #889999",
"[. c #94A19F",
"{. c #84ACA7",
"}. c #97A7A3",
"|. c #96ADAA",
" X c #93B6B5",
".X c #A8B5B3",
"XX c #BED7D6",
"oX c None",
/* pixels */
"oXoXoXoXoXoXoXoXoXoXoXoXoXoXoXoXoXoXoXoXoXoXoXoXoXoXoXoXoXoXoXoXoXoXoXoXoXoXoXoXoXoXoXoXoXoXoXoXoXoXoXoXoXoXoX",
"oXoXoXoXoXoXoXoXoXoXoXoXoXoXoXoXoXoXoXoXoXoXoXoXoXoXoXoXoXoXoXoXoXoXoXoXoXoXoXoXoXoXoXoXoXoXoXoXoXoXoXoXoXoXoX",
"oXoXoXoXoXoXoXoXoXoXoXoXoXoXoXoXoXoXoXoXoXoXoXoXoXoXoXoXoXoXoXoXoXoXoXoXoXoXoXoXoXoXoXoXoXoXoXoXoXoXoXoXoXoXoX",
"oXoXoXoXoXoXoXoXoXoXoXoXoXoXoXoXoXoXoXoXoXoXoXoXoXoXoXoXoXoXoXoXoXoXoXoXoXoXoXoXoXoXoXoXoXoXoXoXoXoXoXoXoXoXoX",
"oXoXoXoXoXoXoXoXoXoXoXoXoXoXoXoXoXoXoXoXoXoXoXoXoXoXoXoXoXoXoXoXoXoXoXoXoXoXoXoXoXoXoXoXoXoXoXoXoXoXoXoXoXoXoX",
"oXoXoXoXoXoXoXoXoXoXoXoXoXoXoXoXoXoXoXoXoXoXoXoXoXoXoXoXoXoXoXoXoXoXoXoXoXoXoXoXoXoXoXoXoXoXoXoXoXoXoXoXoXoXoX",
"oXoXoXoXoXoXoXoXoXoXoXoXoXoXoXoXoXoXoXoXoXoXoXoXoXoXoXoXoXx.oXoXoXoXoXoXoXoXoXoXoXoXoXoXoXoXoXoXoXoXoXoXoXoXoX",
"oXoXoXoXoXoXoXoXoXoXoXoXoXoXoXoXoXoXoXoX/.oXoXoXoXQ.oXoXG.6.W.oXoXoX).).oXoXoXoXoXoXoXoXoXoXoXoXoXoXoXoXoXoXoX",
"oXoXoXoXoXoXoXoXoXoXoXoXoXoXoXoXU.oXoXE.X.z.].oX{.q.9._.e.C.c.oXU.f.%.1.oXoXoXoXoXoXoXoXoXoXoXoXoXoXoXoXoXoXoX",
"oXoXoXoXoXoXoXoXoXoXoXoXoXoXoX/.8.<.E.Y.,.&.X.L.K.0.w.:.A.C.1.1.*.-.&.;.oXoXoX{.oXoXoXoXoXoXoXoXoXoXoXoXoXoXoX",
"oXoXoXoXoXoXoXoXoXoXoXE.7.(.oX X:.C.w.,.&.&.&.*.,.:.w.:.A.w.-.*.@.{ T &.~.c.8.,.}.oXoXoXoXoXoXoXoXoXoXoXoXoXoX",
"oXoXoXoXoXoXoXoXoXoXoXE.8.B.e.c.:.5.w.:.*.X.&.=...| *.W :.:.$. .%.&.E 4.Z.S.B.9.oXoXoXoXoXoXoXoXoXoXoXoXoXoXoX",
"oXoXoXoXoXoXoXoXoXoXoXoXz.S.A.A.6.:.X.X.X.&.@.&.R { ..&.| @.#.| { =.{ C.Z.6.:.,.K.m.Y.'.oXoXoXoXoXoXoXoXoXoXoX",
"oXoXoXoXoXoXoXoXoX[ -.G.z.:.N.C.9.&.:.@.=.&.,.X.E w.>.E ,.S.6.| ..&.O.&.,.:.:.*.:.#.$.^ /.oXoXoXoXoXoXoXoXoXoX",
"oXoXoXoXoXoXoXoXoXD | &.&.&.&.&.X.,...,.:...,.&.P >.q.&.B.C.:.T *.*.*.*.&.,.&...E T L L.oXoXoXoXoXoXoXoXoXoXoX",
"oXoXoXoXoXoXP.J.^.[ J X.*.*.-.&.:.@.=.2.5.:...:.W ..&.:.>.>.| ..4.2.@.$.&.&...K H I { O.h.m.oXoXoXoXoXoXoXoXoX",
"oXoXoXoXoXa._  ...W E I I | &.&.$.&.V.C.5.&.,.X.*.*.,.&.&.X.*.3.C.C.e.&...*.....T 0.C.B.>.} l.oXoXoXoXoXoXoXoX",
"oXoXoXoXoXoXI *.&.&.&.%.P ..&.&.W ,.8.:.:...*.&...:...&.&.,.,...@.:.>.X.{ *.*.*.T $.-.=.$.` I.oXoXoXoXoXoXoXoX",
"oXoXoXoXoXoXg.! ..X...T ..&.&.*.T I T T T W <.>.&.$.*.*.&.&.&.X.T P K K H { ..| J L _ I C !.oXoXoXoXoXoXoXoXoX",
"oXoXoXoXl.Q D I I I J } *.&.*.*.{ X.&...,.3.C.C.:.*.-.&.&.&.&.&.*.*.*.*.*.| K H K P T T _ _ D J.oXoXoXoXoXoXoX",
"oXoXoXh.L O.%.&.&.-.| I | | { U *.&.&.*.$.6.A.A.:.$.&.&.*.&.&.:.3.:.*.&.&.%.| I *.*.*.*.&.' Y P.oXoXoXoXoXoXoX",
"oXoXoXoX;._ $.$.| T K I T T J ! &.@.,.*.:.5.A.C.,.&.&.&.*.*.*.5.C.w...X.*.&.-.T *.-.%.} S C f.oXoXoXoXoXoXoXoX",
"oXoXoXoXXX` C A P $.8.w.V.,.! J %.&.&.*...3.A.w.,...%.&.&.*.*.&.w.C.2.K K T I H E I H K T _ ~ Q a..XoXoXoXoXoX",
"oXoXoXl.] Z T | 9.V.B.6.>.| A C { &.*.T I &.B.2...{ &.,.&.&.E T X.:.>.I H T ....E J H J _ T _ L ^ oXoXoXoXoXoX",
"oXoXoXD Z J *.%.>.:.&.&.{ H A C C I J K H { -.-.T K X.,.*.&.I H K ~ ~ J { w.S.A.Z.3._ Z d t 8 o.oXoXoXoXoXoXoX",
"oXoXm Z A A Y _ T { _ I A P T I Q Z K -.| K | | K J I &.-._ H H I I J H $.4.4.5.5.=.%.~ Z e > v i.oXoXoXoXoXoX",
"oX/ r y a s y C J T _ J T w.Z.=.~ A -.S.e.{ A A Z C H P P J J  .*.:...J I | %.*.$.| T J C D u > 3 B oXoXoXoXoX",
"oXoXB > o , 7 Z  .*.| P >.S.S.=.T K 5.A.5.*.J C Z K _ $. .L J *.&.&.&.O.J H H P _ T J p t d 7 : > r '.oXoXoXoX",
"oXoXoXoXs.> h J E T H T w.A.8.&.Y K 3.Z.>.-.I Z C T 5.C.5.{ H | *.*.*.-.} H T &.-.*...T a 5 5 > % r.oXoXoXoXoX",
"oXoXoXoX) > u h s y J @.V.5.*.T A J $.3.&.-.I Z C | 6.A.C...J P X.-.&.&.*.I P _ | | | | J 6 > 5 j.oXoXoXoXoXoX",
"oXoXoXk.o 5 o 5 5 w J $.>.*._ A Z Z _ &.&.*.K J A } 5.A.A.&.L P P T | &.%.! _ T J C C C Z : v s u `.oXoXoXoXoX",
"oXoXoXd.o o > 5 > y Z T W P A ~ J I P W -.| K  .T _ :.A.A.%.I *.T J K A K C L %.%.L 5 9 5 > 7 8 0 M.oXoXoXoXoX",
"oXoXoXoXn.5 0 m t t Z Z Z S ' | _ -.%.J H H  .-...E >.Z.B.| T *.*.L O. .I d C J $. .7 5 a d t > m.oXoXoXoXoXoX",
"oXoXoXoXn.y J Z a > y s e Z %.T _ -.&.;.H C X.&.,.I ..5.:.} K -.%.J | &. .7 7 h J J 7 g %.%.%._ y v.oXoXoXoXoX",
"oXoXoXM.s Z A Z 7 7 t 5 : Z I d J X.-.X.S t !  .X.H K *.&.I K  .*.g C W _ 0 5 5 8 9 0 J E { } ' C n oXoXoXoXoX",
"oXoXoXi.y Z h 8 d  ._ Z 0 9 6 5 s } -. .d 5 0 C Z 8 h I ' d 6 I ` w 4 a f 5 7 d d 9 3 a Z g g 7 0 [.oXoXoXoXoX",
"oXoXoXoX/ s > t  .&.' D 0 8 t w 5 g I h 7 5 : 7 5 o 0 H g 0 5 7 w 5 5 > > 7 Z  .*._ 5 5 > > v u.oXoXoXoXoXoXoX",
"oXoXoXoXoXoX0 ! &.' Z y 7 _  .L u 4 9 5 0 L d 5 , 5 5 4 5 % % 7 8 5 > > > y C T &.&.p 5 e y p.oXoXoXoXoXoXoXoX",
"oXoXoXoXoXj.w ` Y Z 0 > 8 { %.I g 4 5 5 Q %.P s 3 5 8 8 7 , > h Z f 5 , , 5 h K { &.P 5 h Z D oXoXoXoXoXoXoXoX",
"oXoXoXoXoXn w s 8 5 > 5 y @.&.J s 2 5 2 L %.K h 5 t !  .C > 0 C A S y 5 > > 5 a Z L ^ 7 7 d d i.oXoXoXoXoXoXoX",
"oXoXoXoXoX/ 5 o 5 8 y 5 0 | T C 7 5 8 5 d X.K s : d T *.} 0 7 C C Z y 5 > w y 5 5 w y : 9 '.|.oXoXoXoXoXoXoXoX",
"oXoXoXoXoXoX].R.m Z g 5 7 ! Z y 7 h Z h 6 Z h 9 5 d P -.X.0 5 h Z Z d 5 7 D D d : > > > o oXoXoXoXoXoXoXoXoXoX",
"oXoXoXoXoXoXoX'.a J a 4 > y 0 5 a Z Z Z 8 5 7 2 > y J %.} 7 : 5 h Z t > 0 Z Z Z w 5 > > , T.oXoXoXoXoXoXoXoXoX",
"oXoXoXoXoXoXoXs.0 a 5 > > o 5 2 i Z A Z a 2 4 7 5 5 C ' ! 5 8 > > y 5 > 5 h C C f w q x q T.oXoXoXoXoXoXoXoXoX",
"oXoXoXoXoXoXoXk.o o x r.r 9 % , 0 C Z Z 5 2 8 C h 7 7 C t y Z w 5 5 % > > 7 d Z m ( oXoXoXoXoXoXoXoXoXoXoXoXoX",
"oXoXoXoXoXoXoXoXoXoXoXoXb > 9 , : a Z : 5 o y C Z 0 > > > d S a > 5 > > 9 F 5 0 w v oXoXoXoXoXoXoXoXoXoXoXoXoX",
"oXoXoXoXoXoXoXoXoXoXoXoXoX0 D t.> > > > , > 8 Z y > > > > 0 Z a o , 5 > q oXoXoX/ oXoXoXoXoXoXoXoXoXoXoXoXoXoX",
"oXoXoXoXoXoXoXoXoXoXoXoXoXoXoXoXc , , , + # > > , , > > , > 7 0 # % , > b oXoXoXoXoXoXoXoXoXoXoXoXoXoXoXoXoXoX",
"oXoXoXoXoXoXoXoXoXoXoXoXoXoXoXoXc % O   . $ & $ & & , > % , , # . + & , 1 oXoXoXoXoXoXoXoXoXoXoXoXoXoXoXoXoXoX",
"oXoXoXoXoXoXoXoXoXoXoXoXoXoXoXoXoXoXoXoXj @ - - - = # # - = - - + $ 1 $ j oXoXoXoXoXoXoXoXoXoXoXoXoXoXoXoXoXoX",
"oXoXoXoXoXoXoXoXoXoXoXoXoXoXoXoXoXoXoXoXoX- - - X X @ . X - - - X b.oXoXoXoXoXoXoXoXoXoXoXoXoXoXoXoXoXoXoXoXoX",
"oXoXoXoXoXoXoXoXoXoXoXoXoXoXoXoXoXoXoXoXy.- - - X X @ . X * - - * oXoXoXoXoXoXoXoXoXoXoXoXoXoXoXoXoXoXoXoXoXoX",
"oXoXoXoXoXoXoXoXoXoXoXoXoXoXoXoXoXoXoXoXV - - - . 1 G N - . X $ - l oXoXoXoXoXoXoXoXoXoXoXoXoXoXoXoXoXoXoXoXoX",
"oXoXoXoXoXoXoXoXoXoXoXoXoXoXoXoXoXoXoXoXN - - $ j oXoXoXoXr.1 X @ 1 oXoXoXoXoXoXoXoXoXoXoXoXoXoXoXoXoXoXoXoXoX",
"oXoXoXoXoXoXoXoXoXoXoXoXoXoXoXoXoXoXoXoXoX@ z oXoXoXoXoXoXoXoXoXl l oXoXoXoXoXoXoXoXoXoXoXoXoXoXoXoXoXoXoXoXoX",
"oXoXoXoXoXoXoXoXoXoXoXoXoXoXoXoXoXoXoXoXoXoXoXoXoXoXoXoXoXoXoXoXoXoXoXoXoXoXoXoXoXoXoXoXoXoXoXoXoXoXoXoXoXoXoX",
"oXoXoXoXoXoXoXoXoXoXoXoXoXoXoXoXoXoXoXoXoXoXoXoXoXoXoXoXoXoXoXoXoXoXoXoXoXoXoXoXoXoXoXoXoXoXoXoXoXoXoXoXoXoXoX",
"oXoXoXoXoXoXoXoXoXoXoXoXoXoXoXoXoXoXoXoXoXoXoXoXoXoXoXoXoXoXoXoXoXoXoXoXoXoXoXoXoXoXoXoXoXoXoXoXoXoXoXoXoXoXoX",
"oXoXoXoXoXoXoXoXoXoXoXoXoXoXoXoXoXoXoXoXoXoXoXoXoXoXoXoXoXoXoXoXoXoXoXoXoXoXoXoXoXoXoXoXoXoXoXoXoXoXoXoXoXoXoX",
"oXoXoXoXoXoXoXoXoXoXoXoXoXoXoXoXoXoXoXoXoXoXoXoXoXoXoXoXoXoXoXoXoXoXoXoXoXoXoXoXoXoXoXoXoXoXoXoXoXoXoXoXoXoXoX",
"oXoXoXoXoXoXoXoXoXoXoXoXoXoXoXoXoXoXoXoXoXoXoXoXoXoXoXoXoXoXoXoXoXoXoXoXoXoXoXoXoXoXoXoXoXoXoXoXoXoXoXoXoXoXoX",
"oXoXoXoXoXoXoXoXoXoXoXoXoXoXoXoXoXoXoXoXoXoXoXoXoXoXoXoXoXoXoXoXoXoXoXoXoXoXoXoXoXoXoXoXoXoXoXoXoXoXoXoXoXoXoX",
"oXoXoXoXoXoXoXoXoXoXoXoXoXoXoXoXoXoXoXoXoXoXoXoXoXoXoXoXoXoXoXoXoXoXoXoXoXoXoXoXoXoXoXoXoXoXoXoXoXoXoXoXoXoXoX",
"oXoXoXoXoXoXoXoXoXoXoXoXoXoXoXoXoXoXoXoXoXoXoXoXoXoXoXoXoXoXoXoXoXoXoXoXoXoXoXoXoXoXoXoXoXoXoXoXoXoXoXoXoXoXoX",
"oXoXoXoXoXoXoXoXoXoXoXoXoXoXoXoXoXoXoXoXoXoXoXoXoXoXoXoXoXoXoXoXoXoXoXoXoXoXoXoXoXoXoXoXoXoXoXoXoXoXoXoXoXoXoX"
};
